%TF.GenerationSoftware,KiCad,Pcbnew,8.0.9-8.0.9-0~ubuntu24.04.1*%
%TF.CreationDate,2025-03-05T09:33:49+00:00*%
%TF.ProjectId,BMS-Mux-PCB,424d532d-4d75-4782-9d50-43422e6b6963,rev?*%
%TF.SameCoordinates,Original*%
%TF.FileFunction,Soldermask,Bot*%
%TF.FilePolarity,Negative*%
%FSLAX46Y46*%
G04 Gerber Fmt 4.6, Leading zero omitted, Abs format (unit mm)*
G04 Created by KiCad (PCBNEW 8.0.9-8.0.9-0~ubuntu24.04.1) date 2025-03-05 09:33:49*
%MOMM*%
%LPD*%
G01*
G04 APERTURE LIST*
G04 Aperture macros list*
%AMRoundRect*
0 Rectangle with rounded corners*
0 $1 Rounding radius*
0 $2 $3 $4 $5 $6 $7 $8 $9 X,Y pos of 4 corners*
0 Add a 4 corners polygon primitive as box body*
4,1,4,$2,$3,$4,$5,$6,$7,$8,$9,$2,$3,0*
0 Add four circle primitives for the rounded corners*
1,1,$1+$1,$2,$3*
1,1,$1+$1,$4,$5*
1,1,$1+$1,$6,$7*
1,1,$1+$1,$8,$9*
0 Add four rect primitives between the rounded corners*
20,1,$1+$1,$2,$3,$4,$5,0*
20,1,$1+$1,$4,$5,$6,$7,0*
20,1,$1+$1,$6,$7,$8,$9,0*
20,1,$1+$1,$8,$9,$2,$3,0*%
G04 Aperture macros list end*
%ADD10C,6.500000*%
%ADD11C,3.000000*%
%ADD12RoundRect,0.283334X0.726666X-0.566666X0.726666X0.566666X-0.726666X0.566666X-0.726666X-0.566666X0*%
%ADD13O,2.020000X1.700000*%
%ADD14R,1.700000X3.000000*%
%ADD15O,1.700000X3.000000*%
%ADD16RoundRect,0.283334X0.566666X0.566666X-0.566666X0.566666X-0.566666X-0.566666X0.566666X-0.566666X0*%
%ADD17C,1.700000*%
%ADD18R,3.000000X1.700000*%
%ADD19O,3.000000X1.700000*%
%ADD20RoundRect,0.275000X1.025000X-0.825000X1.025000X0.825000X-1.025000X0.825000X-1.025000X-0.825000X0*%
%ADD21O,2.600000X2.200000*%
%ADD22RoundRect,0.283334X-0.566666X-0.566666X0.566666X-0.566666X0.566666X0.566666X-0.566666X0.566666X0*%
%ADD23RoundRect,0.283334X-0.566666X0.566666X-0.566666X-0.566666X0.566666X-0.566666X0.566666X0.566666X0*%
%ADD24R,1.700000X1.700000*%
%ADD25O,1.700000X1.700000*%
G04 APERTURE END LIST*
D10*
%TO.C,H4*%
X70500000Y-131500000D03*
%TD*%
%TO.C,H1*%
X158000000Y-55500000D03*
%TD*%
D11*
%TO.C,J5*%
X103000000Y-57000000D03*
D12*
X107320000Y-58500000D03*
D13*
X107320000Y-55500000D03*
%TD*%
D14*
%TO.C,U4*%
X85000000Y-72000000D03*
D15*
X87540000Y-72000000D03*
X90080000Y-72000000D03*
X95160000Y-72000000D03*
X97700000Y-72000000D03*
X100240000Y-72000000D03*
X102780000Y-72000000D03*
%TD*%
D11*
%TO.C,J2*%
X145590000Y-111985000D03*
X128890000Y-111985000D03*
D16*
X147750000Y-107665000D03*
D17*
X144750000Y-107665000D03*
X141750000Y-107665000D03*
X138750000Y-107665000D03*
X135750000Y-107665000D03*
X132750000Y-107665000D03*
X129750000Y-107665000D03*
X126750000Y-107665000D03*
X147750000Y-104665000D03*
X144750000Y-104665000D03*
X141750000Y-104665000D03*
X138750000Y-104665000D03*
X135750000Y-104665000D03*
X132750000Y-104665000D03*
X129750000Y-104665000D03*
X126750000Y-104665000D03*
%TD*%
D18*
%TO.C,U3*%
X114000000Y-72080000D03*
D19*
X114000000Y-69540000D03*
X114000000Y-67000000D03*
X114000000Y-61920000D03*
X114000000Y-59380000D03*
X114000000Y-56840000D03*
X114000000Y-54300000D03*
%TD*%
D20*
%TO.C,J4*%
X74000000Y-125000000D03*
D21*
X74000000Y-121500000D03*
X74000000Y-118000000D03*
X74000000Y-114500000D03*
X74000000Y-111000000D03*
X74000000Y-107500000D03*
X74000000Y-104000000D03*
X74000000Y-100500000D03*
X74000000Y-97000000D03*
X74000000Y-93500000D03*
X74000000Y-90000000D03*
X74000000Y-86500000D03*
X74000000Y-83000000D03*
X74000000Y-79500000D03*
X74000000Y-76000000D03*
X74000000Y-72500000D03*
X74000000Y-69000000D03*
X74000000Y-65500000D03*
%TD*%
D11*
%TO.C,J1*%
X128910000Y-75015000D03*
X145610000Y-75015000D03*
D22*
X126750000Y-79335000D03*
D17*
X129750000Y-79335000D03*
X132750000Y-79335000D03*
X135750000Y-79335000D03*
X138750000Y-79335000D03*
X141750000Y-79335000D03*
X144750000Y-79335000D03*
X147750000Y-79335000D03*
X126750000Y-82335000D03*
X129750000Y-82335000D03*
X132750000Y-82335000D03*
X135750000Y-82335000D03*
X138750000Y-82335000D03*
X141750000Y-82335000D03*
X144750000Y-82335000D03*
X147750000Y-82335000D03*
%TD*%
D10*
%TO.C,H3*%
X158000000Y-131500000D03*
%TD*%
D11*
%TO.C,J3*%
X89320000Y-91160000D03*
X89320000Y-110860000D03*
D23*
X85000000Y-89000000D03*
D17*
X85000000Y-92000000D03*
X85000000Y-95000000D03*
X85000000Y-98000000D03*
X85000000Y-101000000D03*
X85000000Y-104000000D03*
X85000000Y-107000000D03*
X85000000Y-110000000D03*
X85000000Y-113000000D03*
X82000000Y-89000000D03*
X82000000Y-92000000D03*
X82000000Y-95000000D03*
X82000000Y-98000000D03*
X82000000Y-101000000D03*
X82000000Y-104000000D03*
X82000000Y-107000000D03*
X82000000Y-110000000D03*
X82000000Y-113000000D03*
%TD*%
D10*
%TO.C,H2*%
X70500000Y-55500000D03*
%TD*%
D24*
%TO.C,J6*%
X172040000Y-55000000D03*
D25*
X169500000Y-55000000D03*
X172040000Y-57540000D03*
X169500000Y-57540000D03*
X172040000Y-60080000D03*
X169500000Y-60080000D03*
X172040000Y-62620000D03*
X169500000Y-62620000D03*
X172040000Y-65160000D03*
X169500000Y-65160000D03*
X172040000Y-67700000D03*
X169500000Y-67700000D03*
X172040000Y-70240000D03*
X169500000Y-70240000D03*
X172040000Y-72780000D03*
X169500000Y-72780000D03*
X172040000Y-75320000D03*
X169500000Y-75320000D03*
X172040000Y-77860000D03*
X169500000Y-77860000D03*
%TD*%
M02*
