%TF.GenerationSoftware,KiCad,Pcbnew,8.0.9-8.0.9-0~ubuntu24.04.1*%
%TF.CreationDate,2025-03-05T09:33:49+00:00*%
%TF.ProjectId,BMS-Mux-PCB,424d532d-4d75-4782-9d50-43422e6b6963,rev?*%
%TF.SameCoordinates,Original*%
%TF.FileFunction,Paste,Top*%
%TF.FilePolarity,Positive*%
%FSLAX46Y46*%
G04 Gerber Fmt 4.6, Leading zero omitted, Abs format (unit mm)*
G04 Created by KiCad (PCBNEW 8.0.9-8.0.9-0~ubuntu24.04.1) date 2025-03-05 09:33:49*
%MOMM*%
%LPD*%
G01*
G04 APERTURE LIST*
G04 Aperture macros list*
%AMRoundRect*
0 Rectangle with rounded corners*
0 $1 Rounding radius*
0 $2 $3 $4 $5 $6 $7 $8 $9 X,Y pos of 4 corners*
0 Add a 4 corners polygon primitive as box body*
4,1,4,$2,$3,$4,$5,$6,$7,$8,$9,$2,$3,0*
0 Add four circle primitives for the rounded corners*
1,1,$1+$1,$2,$3*
1,1,$1+$1,$4,$5*
1,1,$1+$1,$6,$7*
1,1,$1+$1,$8,$9*
0 Add four rect primitives between the rounded corners*
20,1,$1+$1,$2,$3,$4,$5,0*
20,1,$1+$1,$4,$5,$6,$7,0*
20,1,$1+$1,$6,$7,$8,$9,0*
20,1,$1+$1,$8,$9,$2,$3,0*%
G04 Aperture macros list end*
%ADD10RoundRect,0.250000X0.450000X-0.262500X0.450000X0.262500X-0.450000X0.262500X-0.450000X-0.262500X0*%
%ADD11RoundRect,0.250000X-0.650000X0.412500X-0.650000X-0.412500X0.650000X-0.412500X0.650000X0.412500X0*%
%ADD12RoundRect,0.250001X0.462499X0.624999X-0.462499X0.624999X-0.462499X-0.624999X0.462499X-0.624999X0*%
%ADD13RoundRect,0.250000X0.262500X0.450000X-0.262500X0.450000X-0.262500X-0.450000X0.262500X-0.450000X0*%
%ADD14RoundRect,0.250000X-0.450000X0.262500X-0.450000X-0.262500X0.450000X-0.262500X0.450000X0.262500X0*%
%ADD15RoundRect,0.150000X0.587500X0.150000X-0.587500X0.150000X-0.587500X-0.150000X0.587500X-0.150000X0*%
%ADD16RoundRect,0.150000X-0.587500X-0.150000X0.587500X-0.150000X0.587500X0.150000X-0.587500X0.150000X0*%
%ADD17RoundRect,0.150000X-0.825000X-0.150000X0.825000X-0.150000X0.825000X0.150000X-0.825000X0.150000X0*%
%ADD18RoundRect,0.237500X-0.237500X0.300000X-0.237500X-0.300000X0.237500X-0.300000X0.237500X0.300000X0*%
%ADD19RoundRect,0.150000X0.825000X0.150000X-0.825000X0.150000X-0.825000X-0.150000X0.825000X-0.150000X0*%
%ADD20RoundRect,0.237500X0.237500X-0.300000X0.237500X0.300000X-0.237500X0.300000X-0.237500X-0.300000X0*%
G04 APERTURE END LIST*
D10*
%TO.C,R11*%
X132750000Y-101912500D03*
X132750000Y-100087500D03*
%TD*%
D11*
%TO.C,C4*%
X108500000Y-69437500D03*
X108500000Y-72562500D03*
%TD*%
D12*
%TO.C,F16*%
X70787500Y-69000000D03*
X67812500Y-69000000D03*
%TD*%
%TO.C,F12*%
X70800000Y-83000000D03*
X67825000Y-83000000D03*
%TD*%
%TO.C,F2*%
X70787500Y-118000000D03*
X67812500Y-118000000D03*
%TD*%
%TO.C,F3*%
X70800000Y-114500000D03*
X67825000Y-114500000D03*
%TD*%
D13*
%TO.C,R17*%
X152112500Y-87300000D03*
X150287500Y-87300000D03*
%TD*%
D14*
%TO.C,R6*%
X132750000Y-85250000D03*
X132750000Y-87075000D03*
%TD*%
D10*
%TO.C,R13*%
X138750000Y-101912500D03*
X138750000Y-100087500D03*
%TD*%
D12*
%TO.C,F4*%
X70800000Y-111000000D03*
X67825000Y-111000000D03*
%TD*%
%TO.C,F11*%
X70800000Y-86500000D03*
X67825000Y-86500000D03*
%TD*%
%TO.C,F15*%
X70800000Y-72500000D03*
X67825000Y-72500000D03*
%TD*%
%TO.C,F14*%
X70787500Y-76000000D03*
X67812500Y-76000000D03*
%TD*%
D15*
%TO.C,Q2*%
X117375000Y-78950000D03*
X117375000Y-77050000D03*
X115500000Y-78000000D03*
%TD*%
D12*
%TO.C,F9*%
X70800000Y-93500000D03*
X67825000Y-93500000D03*
%TD*%
D14*
%TO.C,R8*%
X126750000Y-85250000D03*
X126750000Y-87075000D03*
%TD*%
%TO.C,R1*%
X147750000Y-85250000D03*
X147750000Y-87075000D03*
%TD*%
D16*
%TO.C,Q1*%
X160862500Y-69850000D03*
X160862500Y-71750000D03*
X162737500Y-70800000D03*
%TD*%
D10*
%TO.C,R18*%
X112500000Y-78912500D03*
X112500000Y-77087500D03*
%TD*%
D11*
%TO.C,C3*%
X80800000Y-69237500D03*
X80800000Y-72362500D03*
%TD*%
D14*
%TO.C,R7*%
X129750000Y-85250000D03*
X129750000Y-87075000D03*
%TD*%
D17*
%TO.C,U2*%
X153925000Y-94055000D03*
X153925000Y-95325000D03*
X153925000Y-96595000D03*
X153925000Y-97865000D03*
X153925000Y-99135000D03*
X153925000Y-100405000D03*
X153925000Y-101675000D03*
X153925000Y-102945000D03*
X158875000Y-102945000D03*
X158875000Y-101675000D03*
X158875000Y-100405000D03*
X158875000Y-99135000D03*
X158875000Y-97865000D03*
X158875000Y-96595000D03*
X158875000Y-95325000D03*
X158875000Y-94055000D03*
%TD*%
D10*
%TO.C,R9*%
X126750000Y-101912500D03*
X126750000Y-100087500D03*
%TD*%
D14*
%TO.C,R2*%
X144750000Y-85250000D03*
X144750000Y-87075000D03*
%TD*%
D18*
%TO.C,C1*%
X161200000Y-93537500D03*
X161200000Y-95262500D03*
%TD*%
D10*
%TO.C,R15*%
X144750000Y-101912500D03*
X144750000Y-100087500D03*
%TD*%
D12*
%TO.C,F13*%
X70800000Y-79500000D03*
X67825000Y-79500000D03*
%TD*%
D10*
%TO.C,R16*%
X147750000Y-101912500D03*
X147750000Y-100087500D03*
%TD*%
%TO.C,R14*%
X141750000Y-101912500D03*
X141750000Y-100087500D03*
%TD*%
D14*
%TO.C,R3*%
X141750000Y-85250000D03*
X141750000Y-87075000D03*
%TD*%
D12*
%TO.C,F8*%
X70800000Y-97000000D03*
X67825000Y-97000000D03*
%TD*%
D19*
%TO.C,U1*%
X158875000Y-82645000D03*
X158875000Y-81375000D03*
X158875000Y-80105000D03*
X158875000Y-78835000D03*
X158875000Y-77565000D03*
X158875000Y-76295000D03*
X158875000Y-75025000D03*
X158875000Y-73755000D03*
X153925000Y-73755000D03*
X153925000Y-75025000D03*
X153925000Y-76295000D03*
X153925000Y-77565000D03*
X153925000Y-78835000D03*
X153925000Y-80105000D03*
X153925000Y-81375000D03*
X153925000Y-82645000D03*
%TD*%
D10*
%TO.C,R10*%
X129750000Y-101912500D03*
X129750000Y-100087500D03*
%TD*%
D14*
%TO.C,R4*%
X138750000Y-85250000D03*
X138750000Y-87075000D03*
%TD*%
D10*
%TO.C,R12*%
X135750000Y-101912500D03*
X135750000Y-100087500D03*
%TD*%
D12*
%TO.C,F1*%
X70787500Y-121500000D03*
X67812500Y-121500000D03*
%TD*%
D20*
%TO.C,C2*%
X151200000Y-83662500D03*
X151200000Y-81937500D03*
%TD*%
D12*
%TO.C,F7*%
X70800000Y-100500000D03*
X67825000Y-100500000D03*
%TD*%
%TO.C,F10*%
X70800000Y-90000000D03*
X67825000Y-90000000D03*
%TD*%
%TO.C,F5*%
X70787500Y-107500000D03*
X67812500Y-107500000D03*
%TD*%
D14*
%TO.C,R5*%
X135750000Y-85250000D03*
X135750000Y-87075000D03*
%TD*%
D12*
%TO.C,F6*%
X70800000Y-104000000D03*
X67825000Y-104000000D03*
%TD*%
M02*
