%TF.GenerationSoftware,KiCad,Pcbnew,8.0.9-8.0.9-0~ubuntu24.04.1*%
%TF.CreationDate,2025-03-05T09:33:49+00:00*%
%TF.ProjectId,BMS-Mux-PCB,424d532d-4d75-4782-9d50-43422e6b6963,rev?*%
%TF.SameCoordinates,Original*%
%TF.FileFunction,Copper,L1,Top*%
%TF.FilePolarity,Positive*%
%FSLAX46Y46*%
G04 Gerber Fmt 4.6, Leading zero omitted, Abs format (unit mm)*
G04 Created by KiCad (PCBNEW 8.0.9-8.0.9-0~ubuntu24.04.1) date 2025-03-05 09:33:49*
%MOMM*%
%LPD*%
G01*
G04 APERTURE LIST*
G04 Aperture macros list*
%AMRoundRect*
0 Rectangle with rounded corners*
0 $1 Rounding radius*
0 $2 $3 $4 $5 $6 $7 $8 $9 X,Y pos of 4 corners*
0 Add a 4 corners polygon primitive as box body*
4,1,4,$2,$3,$4,$5,$6,$7,$8,$9,$2,$3,0*
0 Add four circle primitives for the rounded corners*
1,1,$1+$1,$2,$3*
1,1,$1+$1,$4,$5*
1,1,$1+$1,$6,$7*
1,1,$1+$1,$8,$9*
0 Add four rect primitives between the rounded corners*
20,1,$1+$1,$2,$3,$4,$5,0*
20,1,$1+$1,$4,$5,$6,$7,0*
20,1,$1+$1,$6,$7,$8,$9,0*
20,1,$1+$1,$8,$9,$2,$3,0*%
G04 Aperture macros list end*
%TA.AperFunction,SMDPad,CuDef*%
%ADD10RoundRect,0.250000X0.450000X-0.262500X0.450000X0.262500X-0.450000X0.262500X-0.450000X-0.262500X0*%
%TD*%
%TA.AperFunction,SMDPad,CuDef*%
%ADD11RoundRect,0.250000X-0.650000X0.412500X-0.650000X-0.412500X0.650000X-0.412500X0.650000X0.412500X0*%
%TD*%
%TA.AperFunction,SMDPad,CuDef*%
%ADD12RoundRect,0.250001X0.462499X0.624999X-0.462499X0.624999X-0.462499X-0.624999X0.462499X-0.624999X0*%
%TD*%
%TA.AperFunction,ComponentPad*%
%ADD13C,6.500000*%
%TD*%
%TA.AperFunction,SMDPad,CuDef*%
%ADD14RoundRect,0.250000X0.262500X0.450000X-0.262500X0.450000X-0.262500X-0.450000X0.262500X-0.450000X0*%
%TD*%
%TA.AperFunction,ComponentPad*%
%ADD15RoundRect,0.283334X0.726666X-0.566666X0.726666X0.566666X-0.726666X0.566666X-0.726666X-0.566666X0*%
%TD*%
%TA.AperFunction,ComponentPad*%
%ADD16O,2.020000X1.700000*%
%TD*%
%TA.AperFunction,SMDPad,CuDef*%
%ADD17RoundRect,0.250000X-0.450000X0.262500X-0.450000X-0.262500X0.450000X-0.262500X0.450000X0.262500X0*%
%TD*%
%TA.AperFunction,ComponentPad*%
%ADD18R,1.700000X3.000000*%
%TD*%
%TA.AperFunction,ComponentPad*%
%ADD19O,1.700000X3.000000*%
%TD*%
%TA.AperFunction,SMDPad,CuDef*%
%ADD20RoundRect,0.150000X0.587500X0.150000X-0.587500X0.150000X-0.587500X-0.150000X0.587500X-0.150000X0*%
%TD*%
%TA.AperFunction,ComponentPad*%
%ADD21RoundRect,0.283334X0.566666X0.566666X-0.566666X0.566666X-0.566666X-0.566666X0.566666X-0.566666X0*%
%TD*%
%TA.AperFunction,ComponentPad*%
%ADD22C,1.700000*%
%TD*%
%TA.AperFunction,SMDPad,CuDef*%
%ADD23RoundRect,0.150000X-0.587500X-0.150000X0.587500X-0.150000X0.587500X0.150000X-0.587500X0.150000X0*%
%TD*%
%TA.AperFunction,ComponentPad*%
%ADD24R,3.000000X1.700000*%
%TD*%
%TA.AperFunction,ComponentPad*%
%ADD25O,3.000000X1.700000*%
%TD*%
%TA.AperFunction,ComponentPad*%
%ADD26RoundRect,0.275000X1.025000X-0.825000X1.025000X0.825000X-1.025000X0.825000X-1.025000X-0.825000X0*%
%TD*%
%TA.AperFunction,ComponentPad*%
%ADD27O,2.600000X2.200000*%
%TD*%
%TA.AperFunction,ComponentPad*%
%ADD28RoundRect,0.283334X-0.566666X-0.566666X0.566666X-0.566666X0.566666X0.566666X-0.566666X0.566666X0*%
%TD*%
%TA.AperFunction,SMDPad,CuDef*%
%ADD29RoundRect,0.150000X-0.825000X-0.150000X0.825000X-0.150000X0.825000X0.150000X-0.825000X0.150000X0*%
%TD*%
%TA.AperFunction,SMDPad,CuDef*%
%ADD30RoundRect,0.237500X-0.237500X0.300000X-0.237500X-0.300000X0.237500X-0.300000X0.237500X0.300000X0*%
%TD*%
%TA.AperFunction,ComponentPad*%
%ADD31RoundRect,0.283334X-0.566666X0.566666X-0.566666X-0.566666X0.566666X-0.566666X0.566666X0.566666X0*%
%TD*%
%TA.AperFunction,SMDPad,CuDef*%
%ADD32RoundRect,0.150000X0.825000X0.150000X-0.825000X0.150000X-0.825000X-0.150000X0.825000X-0.150000X0*%
%TD*%
%TA.AperFunction,SMDPad,CuDef*%
%ADD33RoundRect,0.237500X0.237500X-0.300000X0.237500X0.300000X-0.237500X0.300000X-0.237500X-0.300000X0*%
%TD*%
%TA.AperFunction,ComponentPad*%
%ADD34R,1.700000X1.700000*%
%TD*%
%TA.AperFunction,ComponentPad*%
%ADD35O,1.700000X1.700000*%
%TD*%
%TA.AperFunction,ViaPad*%
%ADD36C,1.000000*%
%TD*%
%TA.AperFunction,Conductor*%
%ADD37C,1.000000*%
%TD*%
%TA.AperFunction,Conductor*%
%ADD38C,0.350000*%
%TD*%
%TA.AperFunction,Conductor*%
%ADD39C,0.500000*%
%TD*%
%TA.AperFunction,Conductor*%
%ADD40C,0.300000*%
%TD*%
G04 APERTURE END LIST*
D10*
%TO.P,R11,1*%
%TO.N,/SENS_11*%
X132750000Y-101912500D03*
%TO.P,R11,2*%
%TO.N,+3V3*%
X132750000Y-100087500D03*
%TD*%
D11*
%TO.P,C4,1*%
%TO.N,+V_BAT*%
X108500000Y-69437500D03*
%TO.P,C4,2*%
%TO.N,GND*%
X108500000Y-72562500D03*
%TD*%
D12*
%TO.P,F16,1*%
%TO.N,+V_BAT*%
X70787500Y-69000000D03*
%TO.P,F16,2*%
%TO.N,/BATT_16*%
X67812500Y-69000000D03*
%TD*%
%TO.P,F12,1*%
%TO.N,Net-(J4-Pin_13)*%
X70800000Y-83000000D03*
%TO.P,F12,2*%
%TO.N,/BATT_12*%
X67825000Y-83000000D03*
%TD*%
%TO.P,F2,1*%
%TO.N,Net-(J4-Pin_3)*%
X70787500Y-118000000D03*
%TO.P,F2,2*%
%TO.N,/BATT_2*%
X67812500Y-118000000D03*
%TD*%
D13*
%TO.P,H4,1,1*%
%TO.N,unconnected-(H4-Pad1)*%
X70500000Y-131500000D03*
%TD*%
D12*
%TO.P,F3,1*%
%TO.N,Net-(J4-Pin_4)*%
X70800000Y-114500000D03*
%TO.P,F3,2*%
%TO.N,/BATT_3*%
X67825000Y-114500000D03*
%TD*%
D13*
%TO.P,H1,1,1*%
%TO.N,unconnected-(H1-Pad1)*%
X158000000Y-55500000D03*
%TD*%
D14*
%TO.P,R17,1*%
%TO.N,/MUX_SW*%
X152112500Y-87300000D03*
%TO.P,R17,2*%
%TO.N,+3V3*%
X150287500Y-87300000D03*
%TD*%
D15*
%TO.P,J5,1,Pin_1*%
%TO.N,/+12V_ISO*%
X107320000Y-58500000D03*
D16*
%TO.P,J5,2,Pin_2*%
%TO.N,/GND_ISO*%
X107320000Y-55500000D03*
%TD*%
D17*
%TO.P,R6,1*%
%TO.N,/SENS_6*%
X132750000Y-85250000D03*
%TO.P,R6,2*%
%TO.N,+3V3*%
X132750000Y-87075000D03*
%TD*%
D10*
%TO.P,R13,1*%
%TO.N,/SENS_13*%
X138750000Y-101912500D03*
%TO.P,R13,2*%
%TO.N,+3V3*%
X138750000Y-100087500D03*
%TD*%
D12*
%TO.P,F4,1*%
%TO.N,Net-(J4-Pin_5)*%
X70800000Y-111000000D03*
%TO.P,F4,2*%
%TO.N,/BATT_4*%
X67825000Y-111000000D03*
%TD*%
D18*
%TO.P,U4,1,-VIN*%
%TO.N,GND*%
X85000000Y-72000000D03*
D19*
%TO.P,U4,2,+VIN*%
%TO.N,+V_BAT*%
X87540000Y-72000000D03*
%TO.P,U4,3,ON/~{OFF}*%
%TO.N,/EN_SIG*%
X90080000Y-72000000D03*
%TO.P,U4,5,NC*%
%TO.N,unconnected-(U4-NC-Pad5)*%
X95160000Y-72000000D03*
%TO.P,U4,6,+VOUT*%
%TO.N,+3V3*%
X97700000Y-72000000D03*
%TO.P,U4,7,-VOUT*%
%TO.N,GND*%
X100240000Y-72000000D03*
%TO.P,U4,8,NC*%
%TO.N,unconnected-(U4-NC-Pad8)*%
X102780000Y-72000000D03*
%TD*%
D12*
%TO.P,F11,1*%
%TO.N,Net-(J4-Pin_12)*%
X70800000Y-86500000D03*
%TO.P,F11,2*%
%TO.N,/BATT_11*%
X67825000Y-86500000D03*
%TD*%
%TO.P,F15,1*%
%TO.N,Net-(J4-Pin_16)*%
X70800000Y-72500000D03*
%TO.P,F15,2*%
%TO.N,/BATT_15*%
X67825000Y-72500000D03*
%TD*%
%TO.P,F14,1*%
%TO.N,Net-(J4-Pin_15)*%
X70787500Y-76000000D03*
%TO.P,F14,2*%
%TO.N,/BATT_14*%
X67812500Y-76000000D03*
%TD*%
D20*
%TO.P,Q2,1,G*%
%TO.N,/GPIO6_EN*%
X117375000Y-78950000D03*
%TO.P,Q2,2,S*%
%TO.N,GND*%
X117375000Y-77050000D03*
%TO.P,Q2,3,D*%
%TO.N,/EN_SIG*%
X115500000Y-78000000D03*
%TD*%
D12*
%TO.P,F9,1*%
%TO.N,Net-(J4-Pin_10)*%
X70800000Y-93500000D03*
%TO.P,F9,2*%
%TO.N,/BATT_9*%
X67825000Y-93500000D03*
%TD*%
D17*
%TO.P,R8,1*%
%TO.N,/SENS_8*%
X126750000Y-85250000D03*
%TO.P,R8,2*%
%TO.N,+3V3*%
X126750000Y-87075000D03*
%TD*%
%TO.P,R1,1*%
%TO.N,/SENS_1*%
X147750000Y-85250000D03*
%TO.P,R1,2*%
%TO.N,+3V3*%
X147750000Y-87075000D03*
%TD*%
D21*
%TO.P,J2,1,Pin_1*%
%TO.N,GND*%
X147750000Y-107665000D03*
D22*
%TO.P,J2,2,Pin_2*%
X144750000Y-107665000D03*
%TO.P,J2,3,Pin_3*%
X141750000Y-107665000D03*
%TO.P,J2,4,Pin_4*%
X138750000Y-107665000D03*
%TO.P,J2,5,Pin_5*%
X135750000Y-107665000D03*
%TO.P,J2,6,Pin_6*%
X132750000Y-107665000D03*
%TO.P,J2,7,Pin_7*%
X129750000Y-107665000D03*
%TO.P,J2,8,Pin_8*%
X126750000Y-107665000D03*
%TO.P,J2,9,Pin_9*%
%TO.N,/SENS_16*%
X147750000Y-104665000D03*
%TO.P,J2,10,Pin_10*%
%TO.N,/SENS_15*%
X144750000Y-104665000D03*
%TO.P,J2,11,Pin_11*%
%TO.N,/SENS_14*%
X141750000Y-104665000D03*
%TO.P,J2,12,Pin_12*%
%TO.N,/SENS_13*%
X138750000Y-104665000D03*
%TO.P,J2,13,Pin_13*%
%TO.N,/SENS_12*%
X135750000Y-104665000D03*
%TO.P,J2,14,Pin_14*%
%TO.N,/SENS_11*%
X132750000Y-104665000D03*
%TO.P,J2,15,Pin_15*%
%TO.N,/SENS_10*%
X129750000Y-104665000D03*
%TO.P,J2,16,Pin_16*%
%TO.N,/SENS_9*%
X126750000Y-104665000D03*
%TD*%
D23*
%TO.P,Q1,1,G*%
%TO.N,/GPIO5_SW*%
X160862500Y-69850000D03*
%TO.P,Q1,2,S*%
%TO.N,GND*%
X160862500Y-71750000D03*
%TO.P,Q1,3,D*%
%TO.N,/MUX_SW*%
X162737500Y-70800000D03*
%TD*%
D10*
%TO.P,R18,1*%
%TO.N,/EN_SIG*%
X112500000Y-78912500D03*
%TO.P,R18,2*%
%TO.N,+V_BAT*%
X112500000Y-77087500D03*
%TD*%
D24*
%TO.P,U3,1,-VIN*%
%TO.N,GND*%
X114000000Y-72080000D03*
D25*
%TO.P,U3,2,+VIN*%
%TO.N,+V_BAT*%
X114000000Y-69540000D03*
%TO.P,U3,3,ON/~{OFF}*%
%TO.N,unconnected-(U3-ON{slash}~{OFF}-Pad3)*%
X114000000Y-67000000D03*
%TO.P,U3,5,NC*%
%TO.N,unconnected-(U3-NC-Pad5)*%
X114000000Y-61920000D03*
%TO.P,U3,6,+VOUT*%
%TO.N,/+12V_ISO*%
X114000000Y-59380000D03*
%TO.P,U3,7,-VOUT*%
%TO.N,/GND_ISO*%
X114000000Y-56840000D03*
%TO.P,U3,8,NC*%
%TO.N,unconnected-(U3-NC-Pad8)*%
X114000000Y-54300000D03*
%TD*%
D11*
%TO.P,C3,1*%
%TO.N,+V_BAT*%
X80800000Y-69237500D03*
%TO.P,C3,2*%
%TO.N,GND*%
X80800000Y-72362500D03*
%TD*%
D26*
%TO.P,J4,1,Pin_1*%
%TO.N,GND*%
X74000000Y-125000000D03*
D27*
%TO.P,J4,2,Pin_2*%
%TO.N,Net-(J4-Pin_2)*%
X74000000Y-121500000D03*
%TO.P,J4,3,Pin_3*%
%TO.N,Net-(J4-Pin_3)*%
X74000000Y-118000000D03*
%TO.P,J4,4,Pin_4*%
%TO.N,Net-(J4-Pin_4)*%
X74000000Y-114500000D03*
%TO.P,J4,5,Pin_5*%
%TO.N,Net-(J4-Pin_5)*%
X74000000Y-111000000D03*
%TO.P,J4,6,Pin_6*%
%TO.N,Net-(J4-Pin_6)*%
X74000000Y-107500000D03*
%TO.P,J4,7,Pin_7*%
%TO.N,Net-(J4-Pin_7)*%
X74000000Y-104000000D03*
%TO.P,J4,8,Pin_8*%
%TO.N,Net-(J4-Pin_8)*%
X74000000Y-100500000D03*
%TO.P,J4,9,Pin_9*%
%TO.N,Net-(J4-Pin_9)*%
X74000000Y-97000000D03*
%TO.P,J4,10,Pin_10*%
%TO.N,Net-(J4-Pin_10)*%
X74000000Y-93500000D03*
%TO.P,J4,11,Pin_11*%
%TO.N,Net-(J4-Pin_11)*%
X74000000Y-90000000D03*
%TO.P,J4,12,Pin_12*%
%TO.N,Net-(J4-Pin_12)*%
X74000000Y-86500000D03*
%TO.P,J4,13,Pin_13*%
%TO.N,Net-(J4-Pin_13)*%
X74000000Y-83000000D03*
%TO.P,J4,14,Pin_14*%
%TO.N,Net-(J4-Pin_14)*%
X74000000Y-79500000D03*
%TO.P,J4,15,Pin_15*%
%TO.N,Net-(J4-Pin_15)*%
X74000000Y-76000000D03*
%TO.P,J4,16,Pin_16*%
%TO.N,Net-(J4-Pin_16)*%
X74000000Y-72500000D03*
%TO.P,J4,17,Pin_17*%
%TO.N,+V_BAT*%
X74000000Y-69000000D03*
%TO.P,J4,18,Pin_18*%
%TO.N,unconnected-(J4-Pin_18-Pad18)*%
X74000000Y-65500000D03*
%TD*%
D17*
%TO.P,R7,1*%
%TO.N,/SENS_7*%
X129750000Y-85250000D03*
%TO.P,R7,2*%
%TO.N,+3V3*%
X129750000Y-87075000D03*
%TD*%
D28*
%TO.P,J1,1,Pin_1*%
%TO.N,GND*%
X126750000Y-79335000D03*
D22*
%TO.P,J1,2,Pin_2*%
X129750000Y-79335000D03*
%TO.P,J1,3,Pin_3*%
X132750000Y-79335000D03*
%TO.P,J1,4,Pin_4*%
X135750000Y-79335000D03*
%TO.P,J1,5,Pin_5*%
X138750000Y-79335000D03*
%TO.P,J1,6,Pin_6*%
X141750000Y-79335000D03*
%TO.P,J1,7,Pin_7*%
X144750000Y-79335000D03*
%TO.P,J1,8,Pin_8*%
X147750000Y-79335000D03*
%TO.P,J1,9,Pin_9*%
%TO.N,/SENS_8*%
X126750000Y-82335000D03*
%TO.P,J1,10,Pin_10*%
%TO.N,/SENS_7*%
X129750000Y-82335000D03*
%TO.P,J1,11,Pin_11*%
%TO.N,/SENS_6*%
X132750000Y-82335000D03*
%TO.P,J1,12,Pin_12*%
%TO.N,/SENS_5*%
X135750000Y-82335000D03*
%TO.P,J1,13,Pin_13*%
%TO.N,/SENS_4*%
X138750000Y-82335000D03*
%TO.P,J1,14,Pin_14*%
%TO.N,/SENS_3*%
X141750000Y-82335000D03*
%TO.P,J1,15,Pin_15*%
%TO.N,/SENS_2*%
X144750000Y-82335000D03*
%TO.P,J1,16,Pin_16*%
%TO.N,/SENS_1*%
X147750000Y-82335000D03*
%TD*%
D29*
%TO.P,U2,1,S*%
%TO.N,/MUX_SW*%
X153925000Y-94055000D03*
%TO.P,U2,2*%
%TO.N,/SENS_9*%
X153925000Y-95325000D03*
%TO.P,U2,3*%
%TO.N,/SENS_10*%
X153925000Y-96595000D03*
%TO.P,U2,4*%
%TO.N,/GPIO7_ADC*%
X153925000Y-97865000D03*
%TO.P,U2,5*%
%TO.N,/SENS_11*%
X153925000Y-99135000D03*
%TO.P,U2,6*%
%TO.N,/SENS_12*%
X153925000Y-100405000D03*
%TO.P,U2,7*%
%TO.N,/GPIO8_ADC*%
X153925000Y-101675000D03*
%TO.P,U2,8,GND*%
%TO.N,GND*%
X153925000Y-102945000D03*
%TO.P,U2,9*%
%TO.N,/GPIO10_ADC*%
X158875000Y-102945000D03*
%TO.P,U2,10*%
%TO.N,/SENS_16*%
X158875000Y-101675000D03*
%TO.P,U2,11*%
%TO.N,/SENS_15*%
X158875000Y-100405000D03*
%TO.P,U2,12*%
%TO.N,/GPIO9_ADC*%
X158875000Y-99135000D03*
%TO.P,U2,13*%
%TO.N,/SENS_14*%
X158875000Y-97865000D03*
%TO.P,U2,14*%
%TO.N,/SENS_13*%
X158875000Y-96595000D03*
%TO.P,U2,15,~{OE}*%
%TO.N,GND*%
X158875000Y-95325000D03*
%TO.P,U2,16,VCC*%
%TO.N,+3V3*%
X158875000Y-94055000D03*
%TD*%
D10*
%TO.P,R9,1*%
%TO.N,/SENS_9*%
X126750000Y-101912500D03*
%TO.P,R9,2*%
%TO.N,+3V3*%
X126750000Y-100087500D03*
%TD*%
D17*
%TO.P,R2,1*%
%TO.N,/SENS_2*%
X144750000Y-85250000D03*
%TO.P,R2,2*%
%TO.N,+3V3*%
X144750000Y-87075000D03*
%TD*%
D30*
%TO.P,C1,1*%
%TO.N,+3V3*%
X161200000Y-93537500D03*
%TO.P,C1,2*%
%TO.N,GND*%
X161200000Y-95262500D03*
%TD*%
D10*
%TO.P,R15,1*%
%TO.N,/SENS_15*%
X144750000Y-101912500D03*
%TO.P,R15,2*%
%TO.N,+3V3*%
X144750000Y-100087500D03*
%TD*%
D12*
%TO.P,F13,1*%
%TO.N,Net-(J4-Pin_14)*%
X70800000Y-79500000D03*
%TO.P,F13,2*%
%TO.N,/BATT_13*%
X67825000Y-79500000D03*
%TD*%
D13*
%TO.P,H3,1,1*%
%TO.N,unconnected-(H3-Pad1)*%
X158000000Y-131500000D03*
%TD*%
D10*
%TO.P,R16,1*%
%TO.N,/SENS_16*%
X147750000Y-101912500D03*
%TO.P,R16,2*%
%TO.N,+3V3*%
X147750000Y-100087500D03*
%TD*%
D31*
%TO.P,J3,1,Pin_1*%
%TO.N,/BATT_15*%
X85000000Y-89000000D03*
D22*
%TO.P,J3,2,Pin_2*%
%TO.N,/BATT_13*%
X85000000Y-92000000D03*
%TO.P,J3,3,Pin_3*%
%TO.N,/BATT_11*%
X85000000Y-95000000D03*
%TO.P,J3,4,Pin_4*%
%TO.N,/BATT_9*%
X85000000Y-98000000D03*
%TO.P,J3,5,Pin_5*%
%TO.N,/BATT_7*%
X85000000Y-101000000D03*
%TO.P,J3,6,Pin_6*%
%TO.N,/BATT_5*%
X85000000Y-104000000D03*
%TO.P,J3,7,Pin_7*%
%TO.N,/BATT_3*%
X85000000Y-107000000D03*
%TO.P,J3,8,Pin_8*%
%TO.N,/BATT_1*%
X85000000Y-110000000D03*
%TO.P,J3,9,Pin_9*%
%TO.N,GND*%
X85000000Y-113000000D03*
%TO.P,J3,10,Pin_10*%
%TO.N,/BATT_16*%
X82000000Y-89000000D03*
%TO.P,J3,11,Pin_11*%
%TO.N,/BATT_14*%
X82000000Y-92000000D03*
%TO.P,J3,12,Pin_12*%
%TO.N,/BATT_12*%
X82000000Y-95000000D03*
%TO.P,J3,13,Pin_13*%
%TO.N,/BATT_10*%
X82000000Y-98000000D03*
%TO.P,J3,14,Pin_14*%
%TO.N,/BATT_8*%
X82000000Y-101000000D03*
%TO.P,J3,15,Pin_15*%
%TO.N,/BATT_6*%
X82000000Y-104000000D03*
%TO.P,J3,16,Pin_16*%
%TO.N,/BATT_4*%
X82000000Y-107000000D03*
%TO.P,J3,17,Pin_17*%
%TO.N,/BATT_2*%
X82000000Y-110000000D03*
%TO.P,J3,18,Pin_18*%
%TO.N,unconnected-(J3-Pin_18-Pad18)*%
X82000000Y-113000000D03*
%TD*%
D10*
%TO.P,R14,1*%
%TO.N,/SENS_14*%
X141750000Y-101912500D03*
%TO.P,R14,2*%
%TO.N,+3V3*%
X141750000Y-100087500D03*
%TD*%
D17*
%TO.P,R3,1*%
%TO.N,/SENS_3*%
X141750000Y-85250000D03*
%TO.P,R3,2*%
%TO.N,+3V3*%
X141750000Y-87075000D03*
%TD*%
D12*
%TO.P,F8,1*%
%TO.N,Net-(J4-Pin_9)*%
X70800000Y-97000000D03*
%TO.P,F8,2*%
%TO.N,/BATT_8*%
X67825000Y-97000000D03*
%TD*%
D32*
%TO.P,U1,1,S*%
%TO.N,/MUX_SW*%
X158875000Y-82645000D03*
%TO.P,U1,2*%
%TO.N,/SENS_1*%
X158875000Y-81375000D03*
%TO.P,U1,3*%
%TO.N,/SENS_2*%
X158875000Y-80105000D03*
%TO.P,U1,4*%
%TO.N,/GPIO1_ADC*%
X158875000Y-78835000D03*
%TO.P,U1,5*%
%TO.N,/SENS_3*%
X158875000Y-77565000D03*
%TO.P,U1,6*%
%TO.N,/SENS_4*%
X158875000Y-76295000D03*
%TO.P,U1,7*%
%TO.N,/GPIO2_ADC*%
X158875000Y-75025000D03*
%TO.P,U1,8,GND*%
%TO.N,GND*%
X158875000Y-73755000D03*
%TO.P,U1,9*%
%TO.N,/GPIO6_ADC*%
X153925000Y-73755000D03*
%TO.P,U1,10*%
%TO.N,/SENS_8*%
X153925000Y-75025000D03*
%TO.P,U1,11*%
%TO.N,/SENS_7*%
X153925000Y-76295000D03*
%TO.P,U1,12*%
%TO.N,/GPIO3_ADC*%
X153925000Y-77565000D03*
%TO.P,U1,13*%
%TO.N,/SENS_6*%
X153925000Y-78835000D03*
%TO.P,U1,14*%
%TO.N,/SENS_5*%
X153925000Y-80105000D03*
%TO.P,U1,15,~{OE}*%
%TO.N,GND*%
X153925000Y-81375000D03*
%TO.P,U1,16,VCC*%
%TO.N,+3V3*%
X153925000Y-82645000D03*
%TD*%
D10*
%TO.P,R10,1*%
%TO.N,/SENS_10*%
X129750000Y-101912500D03*
%TO.P,R10,2*%
%TO.N,+3V3*%
X129750000Y-100087500D03*
%TD*%
D17*
%TO.P,R4,1*%
%TO.N,/SENS_4*%
X138750000Y-85250000D03*
%TO.P,R4,2*%
%TO.N,+3V3*%
X138750000Y-87075000D03*
%TD*%
D10*
%TO.P,R12,1*%
%TO.N,/SENS_12*%
X135750000Y-101912500D03*
%TO.P,R12,2*%
%TO.N,+3V3*%
X135750000Y-100087500D03*
%TD*%
D12*
%TO.P,F1,1*%
%TO.N,Net-(J4-Pin_2)*%
X70787500Y-121500000D03*
%TO.P,F1,2*%
%TO.N,/BATT_1*%
X67812500Y-121500000D03*
%TD*%
D33*
%TO.P,C2,1*%
%TO.N,+3V3*%
X151200000Y-83662500D03*
%TO.P,C2,2*%
%TO.N,GND*%
X151200000Y-81937500D03*
%TD*%
D13*
%TO.P,H2,1,1*%
%TO.N,unconnected-(H2-Pad1)*%
X70500000Y-55500000D03*
%TD*%
D12*
%TO.P,F7,1*%
%TO.N,Net-(J4-Pin_8)*%
X70800000Y-100500000D03*
%TO.P,F7,2*%
%TO.N,/BATT_7*%
X67825000Y-100500000D03*
%TD*%
%TO.P,F10,1*%
%TO.N,Net-(J4-Pin_11)*%
X70800000Y-90000000D03*
%TO.P,F10,2*%
%TO.N,/BATT_10*%
X67825000Y-90000000D03*
%TD*%
%TO.P,F5,1*%
%TO.N,Net-(J4-Pin_6)*%
X70787500Y-107500000D03*
%TO.P,F5,2*%
%TO.N,/BATT_5*%
X67812500Y-107500000D03*
%TD*%
D17*
%TO.P,R5,1*%
%TO.N,/SENS_5*%
X135750000Y-85250000D03*
%TO.P,R5,2*%
%TO.N,+3V3*%
X135750000Y-87075000D03*
%TD*%
D12*
%TO.P,F6,1*%
%TO.N,Net-(J4-Pin_7)*%
X70800000Y-104000000D03*
%TO.P,F6,2*%
%TO.N,/BATT_6*%
X67825000Y-104000000D03*
%TD*%
D34*
%TO.P,J6,1,Pin_1*%
%TO.N,GND*%
X172040000Y-55000000D03*
D35*
%TO.P,J6,2,Pin_2*%
%TO.N,/GPIO1_ADC*%
X169500000Y-55000000D03*
%TO.P,J6,3,Pin_3*%
%TO.N,GND*%
X172040000Y-57540000D03*
%TO.P,J6,4,Pin_4*%
%TO.N,/GPIO2_ADC*%
X169500000Y-57540000D03*
%TO.P,J6,5,Pin_5*%
%TO.N,GND*%
X172040000Y-60080000D03*
%TO.P,J6,6,Pin_6*%
%TO.N,/GPIO3_ADC*%
X169500000Y-60080000D03*
%TO.P,J6,7,Pin_7*%
%TO.N,GND*%
X172040000Y-62620000D03*
%TO.P,J6,8,Pin_8*%
%TO.N,/GPIO5_SW*%
X169500000Y-62620000D03*
%TO.P,J6,9,Pin_9*%
%TO.N,GND*%
X172040000Y-65160000D03*
%TO.P,J6,10,Pin_10*%
%TO.N,/GPIO6_EN*%
X169500000Y-65160000D03*
%TO.P,J6,11,Pin_11*%
%TO.N,GND*%
X172040000Y-67700000D03*
%TO.P,J6,12,Pin_12*%
%TO.N,/GPIO6_ADC*%
X169500000Y-67700000D03*
%TO.P,J6,13,Pin_13*%
%TO.N,GND*%
X172040000Y-70240000D03*
%TO.P,J6,14,Pin_14*%
%TO.N,/GPIO7_ADC*%
X169500000Y-70240000D03*
%TO.P,J6,15,Pin_15*%
%TO.N,GND*%
X172040000Y-72780000D03*
%TO.P,J6,16,Pin_16*%
%TO.N,/GPIO8_ADC*%
X169500000Y-72780000D03*
%TO.P,J6,17,Pin_17*%
%TO.N,GND*%
X172040000Y-75320000D03*
%TO.P,J6,18,Pin_18*%
%TO.N,/GPIO9_ADC*%
X169500000Y-75320000D03*
%TO.P,J6,19,Pin_19*%
%TO.N,GND*%
X172040000Y-77860000D03*
%TO.P,J6,20,Pin_20*%
%TO.N,/GPIO10_ADC*%
X169500000Y-77860000D03*
%TD*%
D36*
%TO.N,GND*%
X151300000Y-103000000D03*
X161650000Y-96665077D03*
X158900000Y-72300000D03*
%TO.N,+3V3*%
X126750000Y-98500000D03*
X151200000Y-101500000D03*
X149500000Y-84000000D03*
X97700000Y-75700000D03*
X141750000Y-88650000D03*
X138800000Y-93400000D03*
X138800000Y-88700000D03*
X144750000Y-88650000D03*
X138750000Y-98500000D03*
X147750000Y-88650000D03*
X129750000Y-98500000D03*
X159622910Y-92822910D03*
X135750000Y-98500000D03*
X132750000Y-98500000D03*
%TO.N,/GPIO3_ADC*%
X152400000Y-72300000D03*
X150400000Y-75000000D03*
%TO.N,/GPIO2_ADC*%
X157100000Y-71100000D03*
X157100000Y-65200000D03*
%TO.N,/GPIO6_EN*%
X161400000Y-65100000D03*
X156300000Y-61600000D03*
%TO.N,/GPIO5_SW*%
X163600000Y-68900000D03*
X163600000Y-63800000D03*
%TO.N,/GPIO1_ADC*%
X155700000Y-66200000D03*
X155700000Y-72300000D03*
%TO.N,/GPIO10_ADC*%
X157700000Y-105000000D03*
X161700000Y-106600000D03*
%TO.N,/MUX_SW*%
X151800000Y-93500000D03*
X157510000Y-84010000D03*
X161600000Y-74700000D03*
X154200000Y-87300000D03*
%TD*%
D37*
%TO.N,GND*%
X114000000Y-72080000D02*
X108982500Y-72080000D01*
D38*
X147750000Y-79335000D02*
X147750000Y-79350000D01*
D37*
X114000000Y-73675000D02*
X117375000Y-77050000D01*
D39*
X158875000Y-95325000D02*
X161137500Y-95325000D01*
X159450000Y-71750000D02*
X158900000Y-72300000D01*
D37*
X114000000Y-72080000D02*
X114000000Y-73675000D01*
D39*
X158900000Y-72300000D02*
X158900000Y-73730000D01*
X151355000Y-102945000D02*
X151300000Y-103000000D01*
X161200000Y-95262500D02*
X161200000Y-96215077D01*
X161200000Y-96215077D02*
X161650000Y-96665077D01*
X160862500Y-71750000D02*
X159450000Y-71750000D01*
X158900000Y-73730000D02*
X158875000Y-73755000D01*
X161137500Y-95325000D02*
X161200000Y-95262500D01*
X151200000Y-81937500D02*
X150352500Y-81937500D01*
X153925000Y-102945000D02*
X151355000Y-102945000D01*
X151762500Y-81375000D02*
X153925000Y-81375000D01*
D37*
X108982500Y-72080000D02*
X108500000Y-72562500D01*
D39*
X150352500Y-81937500D02*
X147750000Y-79335000D01*
X151200000Y-81937500D02*
X151762500Y-81375000D01*
%TO.N,+3V3*%
X151200000Y-83662500D02*
X151737500Y-83662500D01*
X151737500Y-83662500D02*
X152755000Y-82645000D01*
D37*
X138750000Y-98500000D02*
X138750000Y-100087500D01*
X97700000Y-75700000D02*
X97700000Y-77000000D01*
D40*
X132750000Y-98500000D02*
X132750000Y-100087500D01*
X144750000Y-88650000D02*
X144750000Y-87062500D01*
D39*
X161200000Y-93537500D02*
X161200000Y-93500000D01*
D40*
X135750000Y-98500000D02*
X135750000Y-100087500D01*
X129750000Y-98500000D02*
X129750000Y-100087500D01*
X141750000Y-88650000D02*
X141750000Y-87062500D01*
D39*
X149837500Y-83662500D02*
X149500000Y-84000000D01*
D37*
X138750000Y-100087500D02*
X147750000Y-100087500D01*
D40*
X147750000Y-88650000D02*
X147750000Y-87062500D01*
X126750000Y-98500000D02*
X126750000Y-100087500D01*
D37*
X149787500Y-100087500D02*
X147750000Y-100087500D01*
X123875000Y-87075000D02*
X138750000Y-87075000D01*
D39*
X151200000Y-83662500D02*
X149837500Y-83662500D01*
D37*
X138750000Y-88650000D02*
X138800000Y-88700000D01*
X138750000Y-87075000D02*
X138750000Y-88650000D01*
X151200000Y-101500000D02*
X149787500Y-100087500D01*
X102100000Y-81400000D02*
X118200000Y-81400000D01*
D39*
X160522910Y-92822910D02*
X159622910Y-92822910D01*
X161200000Y-93500000D02*
X160522910Y-92822910D01*
X159577090Y-92822910D02*
X158875000Y-93525000D01*
D40*
X147750000Y-88650000D02*
X149250000Y-88650000D01*
D39*
X152755000Y-82645000D02*
X153925000Y-82645000D01*
D40*
X149250000Y-88650000D02*
X150287500Y-87612500D01*
D37*
X118200000Y-81400000D02*
X123875000Y-87075000D01*
X138800000Y-88700000D02*
X138800000Y-93400000D01*
D39*
X159622910Y-92822910D02*
X159577090Y-92822910D01*
X158875000Y-93525000D02*
X158875000Y-94055000D01*
D40*
X150287500Y-87612500D02*
X150287500Y-87300000D01*
D37*
X97700000Y-77000000D02*
X102100000Y-81400000D01*
D40*
%TO.N,+V_BAT*%
X106000000Y-71000000D02*
X107562500Y-69437500D01*
X112500000Y-77087500D02*
X109587500Y-77087500D01*
X107562500Y-69437500D02*
X108500000Y-69437500D01*
X109587500Y-77087500D02*
X106000000Y-73500000D01*
X106000000Y-73500000D02*
X106000000Y-71000000D01*
D39*
%TO.N,/BATT_16*%
X67512500Y-69000000D02*
X69262500Y-70750000D01*
X69262500Y-70750000D02*
X74924874Y-70750000D01*
X82000000Y-77825126D02*
X82000000Y-89000000D01*
X74924874Y-70750000D02*
X82000000Y-77825126D01*
%TO.N,Net-(J4-Pin_16)*%
X70487500Y-72500000D02*
X74000000Y-72500000D01*
D38*
%TO.N,/BATT_15*%
X69212500Y-74200000D02*
X74833452Y-74200000D01*
X81200000Y-90500000D02*
X83500000Y-90500000D01*
X83500000Y-90500000D02*
X85000000Y-89000000D01*
X67512500Y-72500000D02*
X69212500Y-74200000D01*
X74833452Y-74200000D02*
X80200000Y-79566548D01*
X80200000Y-89500000D02*
X81200000Y-90500000D01*
X80200000Y-79566548D02*
X80200000Y-89500000D01*
D39*
%TO.N,Net-(J4-Pin_15)*%
X70475000Y-76000000D02*
X74000000Y-76000000D01*
D38*
%TO.N,/BATT_14*%
X67500000Y-76000000D02*
X69200000Y-77700000D01*
X69200000Y-77700000D02*
X74500000Y-77700000D01*
X74500000Y-77700000D02*
X74768808Y-77700000D01*
X79300000Y-90300000D02*
X81000000Y-92000000D01*
X74500000Y-77700000D02*
X74833452Y-77700000D01*
X79300000Y-82231192D02*
X79300000Y-90300000D01*
X81000000Y-92000000D02*
X82000000Y-92000000D01*
X74768808Y-77700000D02*
X79300000Y-82231192D01*
D39*
%TO.N,Net-(J4-Pin_14)*%
X70475000Y-79500000D02*
X74000000Y-79500000D01*
D38*
%TO.N,/BATT_13*%
X80799998Y-93500000D02*
X83500000Y-93500000D01*
X74833452Y-81200000D02*
X78500000Y-84866548D01*
X78500000Y-84866548D02*
X78500000Y-91200002D01*
X78500000Y-91200002D02*
X80799998Y-93500000D01*
X69200000Y-81200000D02*
X74833452Y-81200000D01*
X83500000Y-93500000D02*
X85000000Y-92000000D01*
X67500000Y-79500000D02*
X69200000Y-81200000D01*
D39*
%TO.N,Net-(J4-Pin_13)*%
X70487500Y-83000000D02*
X74000000Y-83000000D01*
D38*
%TO.N,/BATT_12*%
X77650000Y-92150000D02*
X80500000Y-95000000D01*
X67512500Y-83000000D02*
X69212500Y-84700000D01*
X80500000Y-95000000D02*
X82000000Y-95000000D01*
X74833452Y-84700000D02*
X77650000Y-87516548D01*
X69212500Y-84700000D02*
X74833452Y-84700000D01*
X77650000Y-87516548D02*
X77650000Y-92150000D01*
%TO.N,/BATT_11*%
X80125000Y-96425000D02*
X76900000Y-93200000D01*
X69200000Y-88200000D02*
X67500000Y-86500000D01*
X76900000Y-89300000D02*
X75800000Y-88200000D01*
X83575000Y-96425000D02*
X80125000Y-96425000D01*
X76900000Y-93200000D02*
X76900000Y-89300000D01*
X85000000Y-95000000D02*
X83575000Y-96425000D01*
X75800000Y-88200000D02*
X69200000Y-88200000D01*
D39*
%TO.N,Net-(J4-Pin_12)*%
X70475000Y-86500000D02*
X74000000Y-86500000D01*
%TO.N,Net-(J4-Pin_11)*%
X74000000Y-90000000D02*
X70475000Y-90000000D01*
D38*
%TO.N,/BATT_10*%
X76100000Y-92700000D02*
X76100000Y-94500000D01*
X69200000Y-91700000D02*
X75100000Y-91700000D01*
X76100000Y-94500000D02*
X79600000Y-98000000D01*
X67500000Y-90000000D02*
X69200000Y-91700000D01*
X79600000Y-98000000D02*
X82000000Y-98000000D01*
X75100000Y-91700000D02*
X76100000Y-92700000D01*
D39*
%TO.N,Net-(J4-Pin_10)*%
X70475000Y-93500000D02*
X74000000Y-93500000D01*
D38*
%TO.N,/BATT_9*%
X79125000Y-99425000D02*
X83575000Y-99425000D01*
X74900000Y-95200000D02*
X79125000Y-99425000D01*
X67500000Y-93500000D02*
X69200000Y-95200000D01*
X83575000Y-99425000D02*
X85000000Y-98000000D01*
X69200000Y-95200000D02*
X74900000Y-95200000D01*
D39*
%TO.N,Net-(J4-Pin_9)*%
X70475000Y-97000000D02*
X74000000Y-97000000D01*
D38*
%TO.N,/BATT_8*%
X69200000Y-98700000D02*
X76100000Y-98700000D01*
X76100000Y-98700000D02*
X78400000Y-101000000D01*
X67500000Y-97000000D02*
X69200000Y-98700000D01*
X78400000Y-101000000D02*
X82000000Y-101000000D01*
D39*
%TO.N,Net-(J4-Pin_8)*%
X74000000Y-100500000D02*
X70475000Y-100500000D01*
D38*
%TO.N,/BATT_7*%
X67500000Y-100500000D02*
X69200000Y-102200000D01*
X83500000Y-102500000D02*
X85000000Y-101000000D01*
X76400000Y-102200000D02*
X76700000Y-102500000D01*
X69200000Y-102200000D02*
X76400000Y-102200000D01*
X76700000Y-102500000D02*
X83500000Y-102500000D01*
D39*
%TO.N,Net-(J4-Pin_7)*%
X70475000Y-104000000D02*
X74000000Y-104000000D01*
D38*
%TO.N,/BATT_6*%
X79900000Y-104000000D02*
X82000000Y-104000000D01*
X67500000Y-104000000D02*
X69200000Y-105700000D01*
X69200000Y-105700000D02*
X78200000Y-105700000D01*
X78200000Y-105700000D02*
X79900000Y-104000000D01*
D39*
%TO.N,Net-(J4-Pin_6)*%
X74000000Y-107500000D02*
X70475000Y-107500000D01*
D38*
%TO.N,/BATT_5*%
X69200000Y-109200000D02*
X76900000Y-109200000D01*
X76900000Y-109200000D02*
X80675000Y-105425000D01*
X67500000Y-107500000D02*
X69200000Y-109200000D01*
X80675000Y-105425000D02*
X83575000Y-105425000D01*
X83575000Y-105425000D02*
X85000000Y-104000000D01*
D39*
%TO.N,Net-(J4-Pin_5)*%
X70475000Y-111000000D02*
X74000000Y-111000000D01*
D38*
%TO.N,/BATT_4*%
X80900000Y-107000000D02*
X82000000Y-107000000D01*
X69200000Y-112700000D02*
X75200000Y-112700000D01*
X67500000Y-111000000D02*
X69200000Y-112700000D01*
X75200000Y-112700000D02*
X80900000Y-107000000D01*
%TO.N,/BATT_3*%
X75800000Y-116200000D02*
X78400000Y-113600000D01*
X83575000Y-108425000D02*
X85000000Y-107000000D01*
X81559745Y-108425000D02*
X83575000Y-108425000D01*
X78400000Y-111584745D02*
X81559745Y-108425000D01*
X67512500Y-114500000D02*
X69212500Y-116200000D01*
X69212500Y-116200000D02*
X75800000Y-116200000D01*
X78400000Y-113600000D02*
X78400000Y-111584745D01*
D39*
%TO.N,Net-(J4-Pin_4)*%
X70487500Y-114500000D02*
X74000000Y-114500000D01*
D38*
%TO.N,/BATT_2*%
X79700000Y-112300000D02*
X82000000Y-110000000D01*
X79700000Y-115100000D02*
X79700000Y-112300000D01*
X69200000Y-119700000D02*
X75100000Y-119700000D01*
X75100000Y-119700000D02*
X79700000Y-115100000D01*
X67500000Y-118000000D02*
X69200000Y-119700000D01*
D39*
%TO.N,Net-(J4-Pin_3)*%
X70475000Y-118000000D02*
X74000000Y-118000000D01*
%TO.N,Net-(J4-Pin_2)*%
X70487500Y-121500000D02*
X74000000Y-121500000D01*
D40*
%TO.N,/BATT_1*%
X83500000Y-115100000D02*
X83500000Y-111500000D01*
X69212500Y-123200000D02*
X75400000Y-123200000D01*
X75400000Y-123200000D02*
X83500000Y-115100000D01*
X83500000Y-111500000D02*
X85000000Y-110000000D01*
X67512500Y-121500000D02*
X69212500Y-123200000D01*
%TO.N,/SENS_8*%
X128400000Y-72100000D02*
X150300894Y-72100000D01*
X126750000Y-82335000D02*
X125100000Y-80685000D01*
X125100000Y-80685000D02*
X125100000Y-75400000D01*
X126750000Y-85250000D02*
X126750000Y-82335000D01*
X153225894Y-75025000D02*
X153925000Y-75025000D01*
X125100000Y-75400000D02*
X128400000Y-72100000D01*
X150300894Y-72100000D02*
X153225894Y-75025000D01*
%TO.N,/SENS_7*%
X133935000Y-73065000D02*
X149995894Y-73065000D01*
X129750000Y-82335000D02*
X128300000Y-80885000D01*
X128300000Y-78700000D02*
X133935000Y-73065000D01*
X129750000Y-85250000D02*
X129750000Y-82335000D01*
X153225894Y-76295000D02*
X153925000Y-76295000D01*
X149995894Y-73065000D02*
X153225894Y-76295000D01*
X128300000Y-80885000D02*
X128300000Y-78700000D01*
%TO.N,/SENS_6*%
X131200000Y-80785000D02*
X131200000Y-78300000D01*
X132750000Y-82335000D02*
X131200000Y-80785000D01*
X132750000Y-85250000D02*
X132750000Y-82335000D01*
X152187716Y-78835000D02*
X153925000Y-78835000D01*
X150352716Y-77000000D02*
X152187716Y-78835000D01*
X132500000Y-77000000D02*
X150352716Y-77000000D01*
X131200000Y-78300000D02*
X132500000Y-77000000D01*
%TO.N,/SENS_3*%
X142450000Y-85250000D02*
X143200000Y-86000000D01*
X154100000Y-91200000D02*
X162000000Y-83300000D01*
X143200000Y-86000000D02*
X143200000Y-88800000D01*
X141750000Y-85250000D02*
X142450000Y-85250000D01*
X143200000Y-88800000D02*
X145600000Y-91200000D01*
X141750000Y-85250000D02*
X141750000Y-82335000D01*
X159854156Y-77565000D02*
X158875000Y-77565000D01*
X162000000Y-79710844D02*
X159854156Y-77565000D01*
X145600000Y-91200000D02*
X154100000Y-91200000D01*
X162000000Y-83300000D02*
X162000000Y-79710844D01*
%TO.N,/SENS_5*%
X135000000Y-77900000D02*
X150262766Y-77900000D01*
X134300000Y-78600000D02*
X135000000Y-77900000D01*
X135750000Y-85250000D02*
X135750000Y-82335000D01*
X152467766Y-80105000D02*
X153925000Y-80105000D01*
X134300000Y-80885000D02*
X134300000Y-78600000D01*
X135750000Y-82335000D02*
X134300000Y-80885000D01*
X150262766Y-77900000D02*
X152467766Y-80105000D01*
%TO.N,/SENS_1*%
X147750000Y-85250000D02*
X153950000Y-85250000D01*
X147750000Y-85250000D02*
X147750000Y-82335000D01*
X153950000Y-85250000D02*
X157825000Y-81375000D01*
X157825000Y-81375000D02*
X158875000Y-81375000D01*
%TO.N,/SENS_4*%
X140200000Y-86000000D02*
X140200000Y-88800000D01*
X140200000Y-88800000D02*
X143600000Y-92200000D01*
X143600000Y-92200000D02*
X154800000Y-92200000D01*
X163200000Y-83800000D02*
X163200000Y-78500000D01*
X138750000Y-85250000D02*
X139450000Y-85250000D01*
X163200000Y-78500000D02*
X160995000Y-76295000D01*
X138750000Y-85250000D02*
X138750000Y-82335000D01*
X139450000Y-85250000D02*
X140200000Y-86000000D01*
X160995000Y-76295000D02*
X158875000Y-76295000D01*
X154800000Y-92200000D02*
X163200000Y-83800000D01*
%TO.N,/SENS_2*%
X146200000Y-88800000D02*
X147500000Y-90100000D01*
X145450000Y-85250000D02*
X146200000Y-86000000D01*
X160600000Y-83300000D02*
X160600000Y-81130894D01*
X159574106Y-80105000D02*
X158875000Y-80105000D01*
X144750000Y-85250000D02*
X145450000Y-85250000D01*
X160600000Y-81130894D02*
X159574106Y-80105000D01*
X146200000Y-86000000D02*
X146200000Y-88800000D01*
X144750000Y-85250000D02*
X144750000Y-82335000D01*
X147500000Y-90100000D02*
X153800000Y-90100000D01*
X153800000Y-90100000D02*
X160600000Y-83300000D01*
%TO.N,/SENS_14*%
X143200000Y-106115000D02*
X143200000Y-108200000D01*
X144100000Y-109100000D02*
X156100000Y-109100000D01*
X161200000Y-99100000D02*
X159965000Y-97865000D01*
X159965000Y-97865000D02*
X158875000Y-97865000D01*
X156100000Y-109100000D02*
X161200000Y-104000000D01*
X161200000Y-104000000D02*
X161200000Y-99100000D01*
X141750000Y-104665000D02*
X141750000Y-101912500D01*
X143200000Y-108200000D02*
X144100000Y-109100000D01*
X141750000Y-104665000D02*
X143200000Y-106115000D01*
%TO.N,/SENS_16*%
X158175894Y-101675000D02*
X158875000Y-101675000D01*
X155185894Y-104665000D02*
X158175894Y-101675000D01*
X147750000Y-104665000D02*
X155185894Y-104665000D01*
X147750000Y-104665000D02*
X147750000Y-101912500D01*
%TO.N,/SENS_12*%
X135750000Y-101912500D02*
X136450000Y-101912500D01*
X136450000Y-101912500D02*
X137200000Y-101162500D01*
X151805000Y-100405000D02*
X153925000Y-100405000D01*
X138250000Y-97450000D02*
X148850000Y-97450000D01*
X137200000Y-101162500D02*
X137200000Y-98500000D01*
X148850000Y-97450000D02*
X151805000Y-100405000D01*
X137200000Y-98500000D02*
X138250000Y-97450000D01*
X135750000Y-104665000D02*
X135750000Y-101912500D01*
%TO.N,/SENS_13*%
X138750000Y-104665000D02*
X138750000Y-101912500D01*
X156500000Y-109900000D02*
X161900000Y-104500000D01*
X140300000Y-106215000D02*
X140300000Y-108260000D01*
X138750000Y-104665000D02*
X140300000Y-106215000D01*
X141940000Y-109900000D02*
X156500000Y-109900000D01*
X161900000Y-98400000D02*
X160095000Y-96595000D01*
X140300000Y-108260000D02*
X141940000Y-109900000D01*
X161900000Y-104500000D02*
X161900000Y-98400000D01*
X160095000Y-96595000D02*
X158875000Y-96595000D01*
%TO.N,/SENS_15*%
X144750000Y-104665000D02*
X146185000Y-106100000D01*
X159605000Y-100405000D02*
X158875000Y-100405000D01*
X160500000Y-101300000D02*
X159605000Y-100405000D01*
X146185000Y-106100000D02*
X158084925Y-106100000D01*
X160500000Y-103684925D02*
X160500000Y-101300000D01*
X144750000Y-104665000D02*
X144750000Y-101912500D01*
X158084925Y-106100000D02*
X160500000Y-103684925D01*
%TO.N,/SENS_11*%
X149600000Y-96400000D02*
X152335000Y-99135000D01*
X134200000Y-101162500D02*
X134200000Y-98495000D01*
X136295000Y-96400000D02*
X149600000Y-96400000D01*
X132750000Y-104665000D02*
X132750000Y-101912500D01*
X134200000Y-98495000D02*
X136295000Y-96400000D01*
X133450000Y-101912500D02*
X134200000Y-101162500D01*
X132750000Y-101912500D02*
X133450000Y-101912500D01*
X152335000Y-99135000D02*
X153925000Y-99135000D01*
%TO.N,/SENS_9*%
X128200000Y-101162500D02*
X128200000Y-98000000D01*
X126750000Y-104665000D02*
X126750000Y-101912500D01*
X126750000Y-101912500D02*
X127450000Y-101912500D01*
X128200000Y-98000000D02*
X131500000Y-94700000D01*
X127450000Y-101912500D02*
X128200000Y-101162500D01*
X150900000Y-94700000D02*
X151525000Y-95325000D01*
X151525000Y-95325000D02*
X153925000Y-95325000D01*
X131500000Y-94700000D02*
X150900000Y-94700000D01*
%TO.N,/SENS_10*%
X129750000Y-104665000D02*
X129750000Y-101912500D01*
X131200000Y-101162500D02*
X131200000Y-98400000D01*
X130450000Y-101912500D02*
X131200000Y-101162500D01*
X131200000Y-98400000D02*
X134000000Y-95600000D01*
X150200000Y-95600000D02*
X151195000Y-96595000D01*
X129750000Y-101912500D02*
X130450000Y-101912500D01*
X151195000Y-96595000D02*
X153925000Y-96595000D01*
X134000000Y-95600000D02*
X150200000Y-95600000D01*
D37*
%TO.N,/GND_ISO*%
X109500000Y-55500000D02*
X110840000Y-56840000D01*
X107320000Y-55500000D02*
X109500000Y-55500000D01*
X110840000Y-56840000D02*
X114000000Y-56840000D01*
%TO.N,/+12V_ISO*%
X108200000Y-59380000D02*
X114000000Y-59380000D01*
X107320000Y-58500000D02*
X108200000Y-59380000D01*
D40*
%TO.N,/GPIO3_ADC*%
X152950001Y-77565000D02*
X153925000Y-77565000D01*
X150400000Y-75014999D02*
X152950001Y-77565000D01*
X152400000Y-72200000D02*
X164520000Y-60080000D01*
X152400000Y-72300000D02*
X152400000Y-72200000D01*
X150400000Y-75000000D02*
X150400000Y-75014999D01*
X164520000Y-60080000D02*
X169500000Y-60080000D01*
%TO.N,/GPIO9_ADC*%
X159260894Y-91700000D02*
X160100000Y-91700000D01*
X157100000Y-98334999D02*
X157100000Y-93860894D01*
X160100000Y-91700000D02*
X167200000Y-84600000D01*
X158875000Y-99135000D02*
X157900001Y-99135000D01*
X167200000Y-84600000D02*
X167200000Y-77620000D01*
X157100000Y-93860894D02*
X159260894Y-91700000D01*
X157900001Y-99135000D02*
X157100000Y-98334999D01*
X167200000Y-77620000D02*
X169500000Y-75320000D01*
%TO.N,/GPIO7_ADC*%
X167460000Y-70240000D02*
X169500000Y-70240000D01*
X155600000Y-92800000D02*
X164700000Y-83700000D01*
X164700000Y-83700000D02*
X164700000Y-73000000D01*
X153925000Y-97865000D02*
X154899999Y-97865000D01*
X154899999Y-97865000D02*
X155600000Y-97164999D01*
X164700000Y-73000000D02*
X167460000Y-70240000D01*
X155600000Y-97164999D02*
X155600000Y-92800000D01*
%TO.N,/GPIO2_ADC*%
X157100000Y-71100000D02*
X157100000Y-74300000D01*
X157100000Y-74300000D02*
X157825000Y-75025000D01*
X157825000Y-75025000D02*
X158875000Y-75025000D01*
X164760000Y-57540000D02*
X169500000Y-57540000D01*
X169500000Y-57540000D02*
X169500000Y-58099106D01*
X157100000Y-65200000D02*
X164760000Y-57540000D01*
%TO.N,/GPIO8_ADC*%
X165900000Y-76380000D02*
X169500000Y-72780000D01*
X156300000Y-100800000D02*
X156300000Y-93500000D01*
X155425000Y-101675000D02*
X156300000Y-100800000D01*
X153925000Y-101675000D02*
X155425000Y-101675000D01*
X156300000Y-93500000D02*
X165900000Y-83900000D01*
X165900000Y-83900000D02*
X165900000Y-76380000D01*
%TO.N,/GPIO6_EN*%
X117375000Y-78950000D02*
X118550000Y-78950000D01*
X126850000Y-70650000D02*
X152476346Y-70650000D01*
X153500000Y-64400000D02*
X156300000Y-61600000D01*
X161400000Y-65100000D02*
X169440000Y-65100000D01*
X153500000Y-69626346D02*
X153500000Y-64400000D01*
X152476346Y-70650000D02*
X153500000Y-69626346D01*
X169440000Y-65100000D02*
X169500000Y-65160000D01*
X118550000Y-78950000D02*
X126850000Y-70650000D01*
%TO.N,/GPIO5_SW*%
X161750000Y-69850000D02*
X160862500Y-69850000D01*
X163600000Y-63800000D02*
X164780000Y-62620000D01*
X164780000Y-62620000D02*
X169500000Y-62620000D01*
X162700000Y-68900000D02*
X161750000Y-69850000D01*
X163600000Y-68900000D02*
X162700000Y-68900000D01*
%TO.N,/GPIO6_ADC*%
X153925000Y-73755000D02*
X153925000Y-72175000D01*
X153925000Y-72175000D02*
X158400000Y-67700000D01*
X158400000Y-67700000D02*
X169500000Y-67700000D01*
%TO.N,/GPIO1_ADC*%
X164800000Y-55000000D02*
X169500000Y-55000000D01*
X157435000Y-78835000D02*
X158875000Y-78835000D01*
X155700000Y-64100000D02*
X164800000Y-55000000D01*
X155700000Y-66200000D02*
X155700000Y-64100000D01*
X155700000Y-77100000D02*
X157435000Y-78835000D01*
X155700000Y-72300000D02*
X155700000Y-77100000D01*
%TO.N,/GPIO10_ADC*%
X161700000Y-106600000D02*
X162700000Y-105600000D01*
X162700000Y-105600000D02*
X162700000Y-91300000D01*
X158875000Y-102945000D02*
X158875000Y-103825000D01*
X158875000Y-103825000D02*
X157700000Y-105000000D01*
X162700000Y-91300000D02*
X169500000Y-84500000D01*
X169500000Y-84500000D02*
X169500000Y-77860000D01*
%TO.N,/MUX_SW*%
X157460000Y-84060000D02*
X158875000Y-82645000D01*
X151800000Y-93500000D02*
X152355000Y-94055000D01*
X152355000Y-94055000D02*
X153925000Y-94055000D01*
X162737500Y-73562500D02*
X161600000Y-74700000D01*
X154200000Y-87300000D02*
X152112500Y-87300000D01*
X154220000Y-87300000D02*
X157460000Y-84060000D01*
X162737500Y-70800000D02*
X162737500Y-73562500D01*
X154200000Y-87300000D02*
X154220000Y-87300000D01*
%TO.N,/EN_SIG*%
X115500000Y-78000000D02*
X115000000Y-78000000D01*
X90080000Y-73080000D02*
X90080000Y-72000000D01*
X114087500Y-78912500D02*
X112500000Y-78912500D01*
X91500000Y-74500000D02*
X90080000Y-73080000D01*
X112500000Y-78912500D02*
X102912500Y-78912500D01*
X98500000Y-74500000D02*
X91500000Y-74500000D01*
X102912500Y-78912500D02*
X98500000Y-74500000D01*
X115000000Y-78000000D02*
X114087500Y-78912500D01*
%TD*%
%TA.AperFunction,Conductor*%
%TO.N,+V_BAT*%
G36*
X111152508Y-68000597D02*
G01*
X111300818Y-68015204D01*
X111324644Y-68019943D01*
X111461409Y-68061430D01*
X111483853Y-68070728D01*
X111609883Y-68138092D01*
X111630093Y-68151596D01*
X111750000Y-68250000D01*
X112000000Y-68500000D01*
X114993907Y-68500000D01*
X115006061Y-68500597D01*
X115182941Y-68518018D01*
X115206769Y-68522757D01*
X115371001Y-68572576D01*
X115393453Y-68581877D01*
X115544798Y-68662772D01*
X115565010Y-68676277D01*
X115697666Y-68785145D01*
X115714854Y-68802333D01*
X115823722Y-68934989D01*
X115837227Y-68955201D01*
X115918121Y-69106543D01*
X115927424Y-69129001D01*
X115977240Y-69293224D01*
X115981982Y-69317065D01*
X115998802Y-69487846D01*
X115998802Y-69512154D01*
X115981982Y-69682934D01*
X115977240Y-69706775D01*
X115927424Y-69870998D01*
X115918121Y-69893456D01*
X115837227Y-70044798D01*
X115823722Y-70065010D01*
X115714854Y-70197666D01*
X115697666Y-70214854D01*
X115565010Y-70323722D01*
X115544798Y-70337227D01*
X115393456Y-70418121D01*
X115370998Y-70427424D01*
X115206775Y-70477240D01*
X115182934Y-70481982D01*
X115006061Y-70499403D01*
X114993907Y-70500000D01*
X110000000Y-70500000D01*
X109500000Y-70500000D01*
X107359646Y-70500000D01*
X107347492Y-70499403D01*
X107199188Y-70484796D01*
X107175348Y-70480054D01*
X107038596Y-70438571D01*
X107016141Y-70429269D01*
X106890116Y-70361907D01*
X106869906Y-70348403D01*
X106750000Y-70250000D01*
X106749999Y-70249999D01*
X106500000Y-70000000D01*
X106146447Y-70000000D01*
X106146444Y-70000000D01*
X102897516Y-70000000D01*
X102887793Y-69999618D01*
X102886293Y-69999500D01*
X102886287Y-69999500D01*
X102673713Y-69999500D01*
X102673707Y-69999500D01*
X102672207Y-69999618D01*
X102662484Y-70000000D01*
X100357516Y-70000000D01*
X100347793Y-69999618D01*
X100346293Y-69999500D01*
X100346287Y-69999500D01*
X100133713Y-69999500D01*
X100133707Y-69999500D01*
X100132207Y-69999618D01*
X100122484Y-70000000D01*
X97817516Y-70000000D01*
X97807793Y-69999618D01*
X97806293Y-69999500D01*
X97806287Y-69999500D01*
X97593713Y-69999500D01*
X97593707Y-69999500D01*
X97592207Y-69999618D01*
X97582484Y-70000000D01*
X95277516Y-70000000D01*
X95267793Y-69999618D01*
X95266293Y-69999500D01*
X95266287Y-69999500D01*
X95053713Y-69999500D01*
X95053707Y-69999500D01*
X95052207Y-69999618D01*
X95042484Y-70000000D01*
X90197516Y-70000000D01*
X90187793Y-69999618D01*
X90186293Y-69999500D01*
X90186287Y-69999500D01*
X89973713Y-69999500D01*
X89973707Y-69999500D01*
X89972207Y-69999618D01*
X89962484Y-70000000D01*
X89353556Y-70000000D01*
X89353553Y-70000000D01*
X89000000Y-70000000D01*
X88750010Y-70249989D01*
X88749999Y-70249999D01*
X88749989Y-70250010D01*
X88500000Y-70500000D01*
X88500000Y-70853553D01*
X88500000Y-70853556D01*
X88500000Y-72493907D01*
X88499403Y-72506061D01*
X88481982Y-72682934D01*
X88477240Y-72706775D01*
X88427424Y-72870998D01*
X88418121Y-72893456D01*
X88337227Y-73044798D01*
X88323722Y-73065010D01*
X88214854Y-73197666D01*
X88197666Y-73214854D01*
X88065010Y-73323722D01*
X88044798Y-73337227D01*
X87893456Y-73418121D01*
X87870998Y-73427424D01*
X87706775Y-73477240D01*
X87682934Y-73481982D01*
X87512154Y-73498802D01*
X87487846Y-73498802D01*
X87317065Y-73481982D01*
X87293224Y-73477240D01*
X87129001Y-73427424D01*
X87106543Y-73418121D01*
X86955201Y-73337227D01*
X86934989Y-73323722D01*
X86802333Y-73214854D01*
X86785145Y-73197666D01*
X86676277Y-73065010D01*
X86662772Y-73044798D01*
X86581878Y-72893456D01*
X86572575Y-72870998D01*
X86522757Y-72706769D01*
X86518018Y-72682943D01*
X86504771Y-72548444D01*
X86504324Y-72530242D01*
X86504891Y-72518707D01*
X86505500Y-72493907D01*
X86505500Y-71506092D01*
X86504891Y-71481292D01*
X86504294Y-71469138D01*
X86502469Y-71444389D01*
X86500597Y-71425382D01*
X86500000Y-71413229D01*
X86500000Y-70853556D01*
X86500000Y-70853553D01*
X86500000Y-70500000D01*
X86315285Y-70315285D01*
X86313244Y-70309814D01*
X86293796Y-70257669D01*
X86292518Y-70255962D01*
X86207547Y-70142455D01*
X86207544Y-70142452D01*
X86092335Y-70056206D01*
X86092328Y-70056202D01*
X86034713Y-70034713D01*
X86000000Y-70000000D01*
X85902525Y-70000000D01*
X85897883Y-69999501D01*
X85897881Y-69999500D01*
X85897873Y-69999500D01*
X85897865Y-69999500D01*
X85081692Y-69999500D01*
X85069541Y-69998903D01*
X85055612Y-69997531D01*
X85030873Y-69995706D01*
X85018714Y-69995109D01*
X85011473Y-69994931D01*
X84993907Y-69994500D01*
X80006093Y-69994500D01*
X79989229Y-69994914D01*
X79981285Y-69995109D01*
X79969126Y-69995706D01*
X79944395Y-69997530D01*
X79925385Y-69999403D01*
X79913232Y-70000000D01*
X75009960Y-70000000D01*
X74999782Y-69999500D01*
X74998792Y-69999500D01*
X70501016Y-69999500D01*
X70488862Y-69998903D01*
X70317065Y-69981982D01*
X70293224Y-69977240D01*
X70129001Y-69927424D01*
X70106543Y-69918121D01*
X69955201Y-69837227D01*
X69934989Y-69823722D01*
X69802333Y-69714854D01*
X69785145Y-69697666D01*
X69676277Y-69565010D01*
X69662772Y-69544798D01*
X69581877Y-69393453D01*
X69572575Y-69370998D01*
X69548983Y-69293224D01*
X69522757Y-69206769D01*
X69518018Y-69182941D01*
X69501197Y-69012153D01*
X69501197Y-68987846D01*
X69506403Y-68934989D01*
X69518018Y-68817056D01*
X69522757Y-68793232D01*
X69572577Y-68628994D01*
X69581875Y-68606549D01*
X69662775Y-68455195D01*
X69676272Y-68434995D01*
X69785149Y-68302328D01*
X69802328Y-68285149D01*
X69934995Y-68176272D01*
X69955195Y-68162775D01*
X70106549Y-68081875D01*
X70128994Y-68072577D01*
X70293232Y-68022757D01*
X70317056Y-68018018D01*
X70493939Y-68000597D01*
X70506093Y-68000000D01*
X97500000Y-68000000D01*
X111140354Y-68000000D01*
X111152508Y-68000597D01*
G37*
%TD.AperFunction*%
%TD*%
%TA.AperFunction,Conductor*%
%TO.N,GND*%
G36*
X85006061Y-70500597D02*
G01*
X85182941Y-70518018D01*
X85206769Y-70522757D01*
X85371001Y-70572576D01*
X85393453Y-70581877D01*
X85544798Y-70662772D01*
X85565010Y-70676277D01*
X85697666Y-70785145D01*
X85714854Y-70802333D01*
X85823722Y-70934989D01*
X85837227Y-70955201D01*
X85918121Y-71106543D01*
X85927424Y-71129001D01*
X85977240Y-71293224D01*
X85981982Y-71317065D01*
X85999403Y-71493938D01*
X86000000Y-71506092D01*
X86000000Y-72493907D01*
X85999403Y-72506061D01*
X85981982Y-72682934D01*
X85977240Y-72706775D01*
X85927424Y-72870998D01*
X85918121Y-72893456D01*
X85837227Y-73044798D01*
X85823722Y-73065010D01*
X85714854Y-73197666D01*
X85697666Y-73214854D01*
X85565010Y-73323722D01*
X85544798Y-73337227D01*
X85393456Y-73418121D01*
X85370998Y-73427424D01*
X85206775Y-73477240D01*
X85182934Y-73481982D01*
X85006061Y-73499403D01*
X84993907Y-73500000D01*
X80006093Y-73500000D01*
X79993939Y-73499403D01*
X79817065Y-73481982D01*
X79793224Y-73477240D01*
X79629001Y-73427424D01*
X79606543Y-73418121D01*
X79455201Y-73337227D01*
X79434989Y-73323722D01*
X79302333Y-73214854D01*
X79285145Y-73197666D01*
X79176277Y-73065010D01*
X79162772Y-73044798D01*
X79081878Y-72893456D01*
X79072575Y-72870998D01*
X79022757Y-72706769D01*
X79018018Y-72682941D01*
X79000597Y-72506061D01*
X79000000Y-72493907D01*
X79000000Y-71506092D01*
X79000597Y-71493938D01*
X79018018Y-71317056D01*
X79022757Y-71293232D01*
X79072577Y-71128994D01*
X79081875Y-71106549D01*
X79162775Y-70955195D01*
X79176272Y-70934995D01*
X79285149Y-70802328D01*
X79302328Y-70785149D01*
X79434995Y-70676272D01*
X79455195Y-70662775D01*
X79606549Y-70581875D01*
X79628994Y-70572577D01*
X79793232Y-70522757D01*
X79817056Y-70518018D01*
X79993939Y-70500597D01*
X80006093Y-70500000D01*
X84993907Y-70500000D01*
X85006061Y-70500597D01*
G37*
%TD.AperFunction*%
%TD*%
M02*
