%TF.GenerationSoftware,KiCad,Pcbnew,8.0.9-8.0.9-0~ubuntu24.04.1*%
%TF.CreationDate,2025-03-05T09:33:49+00:00*%
%TF.ProjectId,BMS-Mux-PCB,424d532d-4d75-4782-9d50-43422e6b6963,rev?*%
%TF.SameCoordinates,Original*%
%TF.FileFunction,Legend,Top*%
%TF.FilePolarity,Positive*%
%FSLAX46Y46*%
G04 Gerber Fmt 4.6, Leading zero omitted, Abs format (unit mm)*
G04 Created by KiCad (PCBNEW 8.0.9-8.0.9-0~ubuntu24.04.1) date 2025-03-05 09:33:49*
%MOMM*%
%LPD*%
G01*
G04 APERTURE LIST*
%ADD10C,0.100000*%
%ADD11C,0.300000*%
%ADD12C,0.150000*%
%ADD13C,0.200000*%
%ADD14C,0.125000*%
%ADD15C,0.120000*%
%ADD16C,0.000000*%
G04 APERTURE END LIST*
D10*
X161900000Y-109900000D02*
X161900000Y-109000000D01*
X159900000Y-109900000D02*
X159900000Y-109000000D01*
X157900000Y-113900000D02*
X159900000Y-113900000D01*
X159900000Y-115900000D01*
X157900000Y-115900000D01*
X157900000Y-113900000D01*
X90200000Y-120000000D02*
X92200000Y-120000000D01*
X92200000Y-122000000D01*
X90200000Y-122000000D01*
X90200000Y-120000000D01*
X157900000Y-109900000D02*
X157900000Y-109000000D01*
X75450000Y-128600000D02*
X96150000Y-128600000D01*
X96150000Y-133900000D01*
X75450000Y-133900000D01*
X75450000Y-128600000D01*
D11*
X120500000Y-60500000D02*
X121500000Y-60500000D01*
X94000000Y-64500000D02*
X97500000Y-68000000D01*
D10*
X159900000Y-111900000D02*
X161900000Y-111900000D01*
X161900000Y-113900000D01*
X159900000Y-113900000D01*
X159900000Y-111900000D01*
X92200000Y-124000000D02*
X93100000Y-124000000D01*
X159900000Y-113900000D02*
X161900000Y-113900000D01*
X161900000Y-115900000D01*
X159900000Y-115900000D01*
X159900000Y-113900000D01*
D11*
X97500000Y-68000000D02*
X110000000Y-68000000D01*
D10*
X86200000Y-122000000D02*
X88200000Y-122000000D01*
X88200000Y-124000000D01*
X86200000Y-124000000D01*
X86200000Y-122000000D01*
X90200000Y-122000000D02*
X92200000Y-122000000D01*
X92200000Y-124000000D01*
X90200000Y-124000000D01*
X90200000Y-122000000D01*
X88200000Y-122000000D02*
X90200000Y-122000000D01*
X90200000Y-124000000D01*
X88200000Y-124000000D01*
X88200000Y-122000000D01*
X157900000Y-109900000D02*
X159900000Y-109900000D01*
X159900000Y-111900000D01*
X157900000Y-111900000D01*
X157900000Y-109900000D01*
X92200000Y-122000000D02*
X93100000Y-122000000D01*
X157900000Y-111900000D02*
X159900000Y-111900000D01*
X159900000Y-113900000D01*
X157900000Y-113900000D01*
X157900000Y-111900000D01*
X88200000Y-120000000D02*
X90200000Y-120000000D01*
X90200000Y-122000000D01*
X88200000Y-122000000D01*
X88200000Y-120000000D01*
X86200000Y-120000000D02*
X88200000Y-120000000D01*
X88200000Y-122000000D01*
X86200000Y-122000000D01*
X86200000Y-120000000D01*
D11*
X109000000Y-60500000D02*
X110000000Y-60500000D01*
D10*
X92200000Y-120000000D02*
X93100000Y-120000000D01*
D11*
X120500000Y-68000000D02*
X121500000Y-68000000D01*
D10*
X159900000Y-109900000D02*
X161900000Y-109900000D01*
X161900000Y-111900000D01*
X159900000Y-111900000D01*
X159900000Y-109900000D01*
D12*
X160417438Y-114639411D02*
X160369819Y-114734649D01*
X160369819Y-114734649D02*
X160369819Y-114877506D01*
X160369819Y-114877506D02*
X160417438Y-115020363D01*
X160417438Y-115020363D02*
X160512676Y-115115601D01*
X160512676Y-115115601D02*
X160607914Y-115163220D01*
X160607914Y-115163220D02*
X160798390Y-115210839D01*
X160798390Y-115210839D02*
X160941247Y-115210839D01*
X160941247Y-115210839D02*
X161131723Y-115163220D01*
X161131723Y-115163220D02*
X161226961Y-115115601D01*
X161226961Y-115115601D02*
X161322200Y-115020363D01*
X161322200Y-115020363D02*
X161369819Y-114877506D01*
X161369819Y-114877506D02*
X161369819Y-114782268D01*
X161369819Y-114782268D02*
X161322200Y-114639411D01*
X161322200Y-114639411D02*
X161274580Y-114591792D01*
X161274580Y-114591792D02*
X160941247Y-114591792D01*
X160941247Y-114591792D02*
X160941247Y-114782268D01*
D11*
X76904510Y-130265114D02*
X77118796Y-130336542D01*
X77118796Y-130336542D02*
X77190225Y-130407971D01*
X77190225Y-130407971D02*
X77261653Y-130550828D01*
X77261653Y-130550828D02*
X77261653Y-130765114D01*
X77261653Y-130765114D02*
X77190225Y-130907971D01*
X77190225Y-130907971D02*
X77118796Y-130979400D01*
X77118796Y-130979400D02*
X76975939Y-131050828D01*
X76975939Y-131050828D02*
X76404510Y-131050828D01*
X76404510Y-131050828D02*
X76404510Y-129550828D01*
X76404510Y-129550828D02*
X76904510Y-129550828D01*
X76904510Y-129550828D02*
X77047368Y-129622257D01*
X77047368Y-129622257D02*
X77118796Y-129693685D01*
X77118796Y-129693685D02*
X77190225Y-129836542D01*
X77190225Y-129836542D02*
X77190225Y-129979400D01*
X77190225Y-129979400D02*
X77118796Y-130122257D01*
X77118796Y-130122257D02*
X77047368Y-130193685D01*
X77047368Y-130193685D02*
X76904510Y-130265114D01*
X76904510Y-130265114D02*
X76404510Y-130265114D01*
X77904510Y-131050828D02*
X77904510Y-129550828D01*
X77904510Y-129550828D02*
X78404510Y-130622257D01*
X78404510Y-130622257D02*
X78904510Y-129550828D01*
X78904510Y-129550828D02*
X78904510Y-131050828D01*
X79547368Y-130979400D02*
X79761654Y-131050828D01*
X79761654Y-131050828D02*
X80118796Y-131050828D01*
X80118796Y-131050828D02*
X80261654Y-130979400D01*
X80261654Y-130979400D02*
X80333082Y-130907971D01*
X80333082Y-130907971D02*
X80404511Y-130765114D01*
X80404511Y-130765114D02*
X80404511Y-130622257D01*
X80404511Y-130622257D02*
X80333082Y-130479400D01*
X80333082Y-130479400D02*
X80261654Y-130407971D01*
X80261654Y-130407971D02*
X80118796Y-130336542D01*
X80118796Y-130336542D02*
X79833082Y-130265114D01*
X79833082Y-130265114D02*
X79690225Y-130193685D01*
X79690225Y-130193685D02*
X79618796Y-130122257D01*
X79618796Y-130122257D02*
X79547368Y-129979400D01*
X79547368Y-129979400D02*
X79547368Y-129836542D01*
X79547368Y-129836542D02*
X79618796Y-129693685D01*
X79618796Y-129693685D02*
X79690225Y-129622257D01*
X79690225Y-129622257D02*
X79833082Y-129550828D01*
X79833082Y-129550828D02*
X80190225Y-129550828D01*
X80190225Y-129550828D02*
X80404511Y-129622257D01*
X82190224Y-131050828D02*
X82190224Y-129550828D01*
X82190224Y-129550828D02*
X82690224Y-130622257D01*
X82690224Y-130622257D02*
X83190224Y-129550828D01*
X83190224Y-129550828D02*
X83190224Y-131050828D01*
X83904510Y-129550828D02*
X83904510Y-130765114D01*
X83904510Y-130765114D02*
X83975939Y-130907971D01*
X83975939Y-130907971D02*
X84047368Y-130979400D01*
X84047368Y-130979400D02*
X84190225Y-131050828D01*
X84190225Y-131050828D02*
X84475939Y-131050828D01*
X84475939Y-131050828D02*
X84618796Y-130979400D01*
X84618796Y-130979400D02*
X84690225Y-130907971D01*
X84690225Y-130907971D02*
X84761653Y-130765114D01*
X84761653Y-130765114D02*
X84761653Y-129550828D01*
X85333082Y-129550828D02*
X86333082Y-131050828D01*
X86333082Y-129550828D02*
X85333082Y-131050828D01*
X88547367Y-130265114D02*
X88761653Y-130336542D01*
X88761653Y-130336542D02*
X88833082Y-130407971D01*
X88833082Y-130407971D02*
X88904510Y-130550828D01*
X88904510Y-130550828D02*
X88904510Y-130765114D01*
X88904510Y-130765114D02*
X88833082Y-130907971D01*
X88833082Y-130907971D02*
X88761653Y-130979400D01*
X88761653Y-130979400D02*
X88618796Y-131050828D01*
X88618796Y-131050828D02*
X88047367Y-131050828D01*
X88047367Y-131050828D02*
X88047367Y-129550828D01*
X88047367Y-129550828D02*
X88547367Y-129550828D01*
X88547367Y-129550828D02*
X88690225Y-129622257D01*
X88690225Y-129622257D02*
X88761653Y-129693685D01*
X88761653Y-129693685D02*
X88833082Y-129836542D01*
X88833082Y-129836542D02*
X88833082Y-129979400D01*
X88833082Y-129979400D02*
X88761653Y-130122257D01*
X88761653Y-130122257D02*
X88690225Y-130193685D01*
X88690225Y-130193685D02*
X88547367Y-130265114D01*
X88547367Y-130265114D02*
X88047367Y-130265114D01*
X89833082Y-129550828D02*
X90118796Y-129550828D01*
X90118796Y-129550828D02*
X90261653Y-129622257D01*
X90261653Y-129622257D02*
X90404510Y-129765114D01*
X90404510Y-129765114D02*
X90475939Y-130050828D01*
X90475939Y-130050828D02*
X90475939Y-130550828D01*
X90475939Y-130550828D02*
X90404510Y-130836542D01*
X90404510Y-130836542D02*
X90261653Y-130979400D01*
X90261653Y-130979400D02*
X90118796Y-131050828D01*
X90118796Y-131050828D02*
X89833082Y-131050828D01*
X89833082Y-131050828D02*
X89690225Y-130979400D01*
X89690225Y-130979400D02*
X89547367Y-130836542D01*
X89547367Y-130836542D02*
X89475939Y-130550828D01*
X89475939Y-130550828D02*
X89475939Y-130050828D01*
X89475939Y-130050828D02*
X89547367Y-129765114D01*
X89547367Y-129765114D02*
X89690225Y-129622257D01*
X89690225Y-129622257D02*
X89833082Y-129550828D01*
X91047368Y-130622257D02*
X91761654Y-130622257D01*
X90904511Y-131050828D02*
X91404511Y-129550828D01*
X91404511Y-129550828D02*
X91904511Y-131050828D01*
X93261653Y-131050828D02*
X92761653Y-130336542D01*
X92404510Y-131050828D02*
X92404510Y-129550828D01*
X92404510Y-129550828D02*
X92975939Y-129550828D01*
X92975939Y-129550828D02*
X93118796Y-129622257D01*
X93118796Y-129622257D02*
X93190225Y-129693685D01*
X93190225Y-129693685D02*
X93261653Y-129836542D01*
X93261653Y-129836542D02*
X93261653Y-130050828D01*
X93261653Y-130050828D02*
X93190225Y-130193685D01*
X93190225Y-130193685D02*
X93118796Y-130265114D01*
X93118796Y-130265114D02*
X92975939Y-130336542D01*
X92975939Y-130336542D02*
X92404510Y-130336542D01*
X93904510Y-131050828D02*
X93904510Y-129550828D01*
X93904510Y-129550828D02*
X94261653Y-129550828D01*
X94261653Y-129550828D02*
X94475939Y-129622257D01*
X94475939Y-129622257D02*
X94618796Y-129765114D01*
X94618796Y-129765114D02*
X94690225Y-129907971D01*
X94690225Y-129907971D02*
X94761653Y-130193685D01*
X94761653Y-130193685D02*
X94761653Y-130407971D01*
X94761653Y-130407971D02*
X94690225Y-130693685D01*
X94690225Y-130693685D02*
X94618796Y-130836542D01*
X94618796Y-130836542D02*
X94475939Y-130979400D01*
X94475939Y-130979400D02*
X94261653Y-131050828D01*
X94261653Y-131050828D02*
X93904510Y-131050828D01*
D12*
X86941541Y-120469819D02*
X87608207Y-121469819D01*
X87608207Y-120469819D02*
X86941541Y-121469819D01*
D13*
X94926816Y-82467219D02*
X95260149Y-83467219D01*
X95260149Y-83467219D02*
X95593482Y-82467219D01*
X96117292Y-82467219D02*
X96307768Y-82467219D01*
X96307768Y-82467219D02*
X96403006Y-82514838D01*
X96403006Y-82514838D02*
X96498244Y-82610076D01*
X96498244Y-82610076D02*
X96545863Y-82800552D01*
X96545863Y-82800552D02*
X96545863Y-83133885D01*
X96545863Y-83133885D02*
X96498244Y-83324361D01*
X96498244Y-83324361D02*
X96403006Y-83419600D01*
X96403006Y-83419600D02*
X96307768Y-83467219D01*
X96307768Y-83467219D02*
X96117292Y-83467219D01*
X96117292Y-83467219D02*
X96022054Y-83419600D01*
X96022054Y-83419600D02*
X95926816Y-83324361D01*
X95926816Y-83324361D02*
X95879197Y-83133885D01*
X95879197Y-83133885D02*
X95879197Y-82800552D01*
X95879197Y-82800552D02*
X95926816Y-82610076D01*
X95926816Y-82610076D02*
X96022054Y-82514838D01*
X96022054Y-82514838D02*
X96117292Y-82467219D01*
X97450625Y-83467219D02*
X96974435Y-83467219D01*
X96974435Y-83467219D02*
X96974435Y-82467219D01*
X97641102Y-82467219D02*
X98212530Y-82467219D01*
X97926816Y-83467219D02*
X97926816Y-82467219D01*
X98498245Y-83181504D02*
X98974435Y-83181504D01*
X98403007Y-83467219D02*
X98736340Y-82467219D01*
X98736340Y-82467219D02*
X99069673Y-83467219D01*
X99926816Y-82514838D02*
X99831578Y-82467219D01*
X99831578Y-82467219D02*
X99688721Y-82467219D01*
X99688721Y-82467219D02*
X99545864Y-82514838D01*
X99545864Y-82514838D02*
X99450626Y-82610076D01*
X99450626Y-82610076D02*
X99403007Y-82705314D01*
X99403007Y-82705314D02*
X99355388Y-82895790D01*
X99355388Y-82895790D02*
X99355388Y-83038647D01*
X99355388Y-83038647D02*
X99403007Y-83229123D01*
X99403007Y-83229123D02*
X99450626Y-83324361D01*
X99450626Y-83324361D02*
X99545864Y-83419600D01*
X99545864Y-83419600D02*
X99688721Y-83467219D01*
X99688721Y-83467219D02*
X99783959Y-83467219D01*
X99783959Y-83467219D02*
X99926816Y-83419600D01*
X99926816Y-83419600D02*
X99974435Y-83371980D01*
X99974435Y-83371980D02*
X99974435Y-83038647D01*
X99974435Y-83038647D02*
X99783959Y-83038647D01*
X100403007Y-82943409D02*
X100736340Y-82943409D01*
X100879197Y-83467219D02*
X100403007Y-83467219D01*
X100403007Y-83467219D02*
X100403007Y-82467219D01*
X100403007Y-82467219D02*
X100879197Y-82467219D01*
X102022055Y-83419600D02*
X102164912Y-83467219D01*
X102164912Y-83467219D02*
X102403007Y-83467219D01*
X102403007Y-83467219D02*
X102498245Y-83419600D01*
X102498245Y-83419600D02*
X102545864Y-83371980D01*
X102545864Y-83371980D02*
X102593483Y-83276742D01*
X102593483Y-83276742D02*
X102593483Y-83181504D01*
X102593483Y-83181504D02*
X102545864Y-83086266D01*
X102545864Y-83086266D02*
X102498245Y-83038647D01*
X102498245Y-83038647D02*
X102403007Y-82991028D01*
X102403007Y-82991028D02*
X102212531Y-82943409D01*
X102212531Y-82943409D02*
X102117293Y-82895790D01*
X102117293Y-82895790D02*
X102069674Y-82848171D01*
X102069674Y-82848171D02*
X102022055Y-82752933D01*
X102022055Y-82752933D02*
X102022055Y-82657695D01*
X102022055Y-82657695D02*
X102069674Y-82562457D01*
X102069674Y-82562457D02*
X102117293Y-82514838D01*
X102117293Y-82514838D02*
X102212531Y-82467219D01*
X102212531Y-82467219D02*
X102450626Y-82467219D01*
X102450626Y-82467219D02*
X102593483Y-82514838D01*
X103022055Y-82943409D02*
X103355388Y-82943409D01*
X103498245Y-83467219D02*
X103022055Y-83467219D01*
X103022055Y-83467219D02*
X103022055Y-82467219D01*
X103022055Y-82467219D02*
X103498245Y-82467219D01*
X103926817Y-83467219D02*
X103926817Y-82467219D01*
X103926817Y-82467219D02*
X104498245Y-83467219D01*
X104498245Y-83467219D02*
X104498245Y-82467219D01*
X104926817Y-83419600D02*
X105069674Y-83467219D01*
X105069674Y-83467219D02*
X105307769Y-83467219D01*
X105307769Y-83467219D02*
X105403007Y-83419600D01*
X105403007Y-83419600D02*
X105450626Y-83371980D01*
X105450626Y-83371980D02*
X105498245Y-83276742D01*
X105498245Y-83276742D02*
X105498245Y-83181504D01*
X105498245Y-83181504D02*
X105450626Y-83086266D01*
X105450626Y-83086266D02*
X105403007Y-83038647D01*
X105403007Y-83038647D02*
X105307769Y-82991028D01*
X105307769Y-82991028D02*
X105117293Y-82943409D01*
X105117293Y-82943409D02*
X105022055Y-82895790D01*
X105022055Y-82895790D02*
X104974436Y-82848171D01*
X104974436Y-82848171D02*
X104926817Y-82752933D01*
X104926817Y-82752933D02*
X104926817Y-82657695D01*
X104926817Y-82657695D02*
X104974436Y-82562457D01*
X104974436Y-82562457D02*
X105022055Y-82514838D01*
X105022055Y-82514838D02*
X105117293Y-82467219D01*
X105117293Y-82467219D02*
X105355388Y-82467219D01*
X105355388Y-82467219D02*
X105498245Y-82514838D01*
X105926817Y-82943409D02*
X106260150Y-82943409D01*
X106403007Y-83467219D02*
X105926817Y-83467219D01*
X105926817Y-83467219D02*
X105926817Y-82467219D01*
X105926817Y-82467219D02*
X106403007Y-82467219D01*
X107593484Y-83467219D02*
X107593484Y-82467219D01*
X108069674Y-83467219D02*
X108069674Y-82467219D01*
X108069674Y-82467219D02*
X108641102Y-83467219D01*
X108641102Y-83467219D02*
X108641102Y-82467219D01*
X153167219Y-130573183D02*
X153167219Y-130001755D01*
X154167219Y-130287469D02*
X153167219Y-130287469D01*
X153643409Y-129668421D02*
X153643409Y-129335088D01*
X154167219Y-129192231D02*
X154167219Y-129668421D01*
X154167219Y-129668421D02*
X153167219Y-129668421D01*
X153167219Y-129668421D02*
X153167219Y-129192231D01*
X154167219Y-128763659D02*
X153167219Y-128763659D01*
X153167219Y-128763659D02*
X153881504Y-128430326D01*
X153881504Y-128430326D02*
X153167219Y-128096993D01*
X153167219Y-128096993D02*
X154167219Y-128096993D01*
X154167219Y-127620802D02*
X153167219Y-127620802D01*
X153167219Y-127620802D02*
X153167219Y-127239850D01*
X153167219Y-127239850D02*
X153214838Y-127144612D01*
X153214838Y-127144612D02*
X153262457Y-127096993D01*
X153262457Y-127096993D02*
X153357695Y-127049374D01*
X153357695Y-127049374D02*
X153500552Y-127049374D01*
X153500552Y-127049374D02*
X153595790Y-127096993D01*
X153595790Y-127096993D02*
X153643409Y-127144612D01*
X153643409Y-127144612D02*
X153691028Y-127239850D01*
X153691028Y-127239850D02*
X153691028Y-127620802D01*
X154167219Y-125811278D02*
X154167219Y-125620802D01*
X154167219Y-125620802D02*
X154119600Y-125525564D01*
X154119600Y-125525564D02*
X154071980Y-125477945D01*
X154071980Y-125477945D02*
X153929123Y-125382707D01*
X153929123Y-125382707D02*
X153738647Y-125335088D01*
X153738647Y-125335088D02*
X153357695Y-125335088D01*
X153357695Y-125335088D02*
X153262457Y-125382707D01*
X153262457Y-125382707D02*
X153214838Y-125430326D01*
X153214838Y-125430326D02*
X153167219Y-125525564D01*
X153167219Y-125525564D02*
X153167219Y-125716040D01*
X153167219Y-125716040D02*
X153214838Y-125811278D01*
X153214838Y-125811278D02*
X153262457Y-125858897D01*
X153262457Y-125858897D02*
X153357695Y-125906516D01*
X153357695Y-125906516D02*
X153595790Y-125906516D01*
X153595790Y-125906516D02*
X153691028Y-125858897D01*
X153691028Y-125858897D02*
X153738647Y-125811278D01*
X153738647Y-125811278D02*
X153786266Y-125716040D01*
X153786266Y-125716040D02*
X153786266Y-125525564D01*
X153786266Y-125525564D02*
X153738647Y-125430326D01*
X153738647Y-125430326D02*
X153691028Y-125382707D01*
X153691028Y-125382707D02*
X153595790Y-125335088D01*
X153786266Y-124906516D02*
X153786266Y-124144612D01*
X154167219Y-123144612D02*
X154167219Y-123716040D01*
X154167219Y-123430326D02*
X153167219Y-123430326D01*
X153167219Y-123430326D02*
X153310076Y-123525564D01*
X153310076Y-123525564D02*
X153405314Y-123620802D01*
X153405314Y-123620802D02*
X153452933Y-123716040D01*
X153167219Y-122287469D02*
X153167219Y-122477945D01*
X153167219Y-122477945D02*
X153214838Y-122573183D01*
X153214838Y-122573183D02*
X153262457Y-122620802D01*
X153262457Y-122620802D02*
X153405314Y-122716040D01*
X153405314Y-122716040D02*
X153595790Y-122763659D01*
X153595790Y-122763659D02*
X153976742Y-122763659D01*
X153976742Y-122763659D02*
X154071980Y-122716040D01*
X154071980Y-122716040D02*
X154119600Y-122668421D01*
X154119600Y-122668421D02*
X154167219Y-122573183D01*
X154167219Y-122573183D02*
X154167219Y-122382707D01*
X154167219Y-122382707D02*
X154119600Y-122287469D01*
X154119600Y-122287469D02*
X154071980Y-122239850D01*
X154071980Y-122239850D02*
X153976742Y-122192231D01*
X153976742Y-122192231D02*
X153738647Y-122192231D01*
X153738647Y-122192231D02*
X153643409Y-122239850D01*
X153643409Y-122239850D02*
X153595790Y-122287469D01*
X153595790Y-122287469D02*
X153548171Y-122382707D01*
X153548171Y-122382707D02*
X153548171Y-122573183D01*
X153548171Y-122573183D02*
X153595790Y-122668421D01*
X153595790Y-122668421D02*
X153643409Y-122716040D01*
X153643409Y-122716040D02*
X153738647Y-122763659D01*
X154167219Y-121001754D02*
X153167219Y-121001754D01*
X154167219Y-120525564D02*
X153167219Y-120525564D01*
X153167219Y-120525564D02*
X154167219Y-119954136D01*
X154167219Y-119954136D02*
X153167219Y-119954136D01*
X154167219Y-119477945D02*
X153167219Y-119477945D01*
X153167219Y-119477945D02*
X153167219Y-119096993D01*
X153167219Y-119096993D02*
X153214838Y-119001755D01*
X153214838Y-119001755D02*
X153262457Y-118954136D01*
X153262457Y-118954136D02*
X153357695Y-118906517D01*
X153357695Y-118906517D02*
X153500552Y-118906517D01*
X153500552Y-118906517D02*
X153595790Y-118954136D01*
X153595790Y-118954136D02*
X153643409Y-119001755D01*
X153643409Y-119001755D02*
X153691028Y-119096993D01*
X153691028Y-119096993D02*
X153691028Y-119477945D01*
X153167219Y-118477945D02*
X153976742Y-118477945D01*
X153976742Y-118477945D02*
X154071980Y-118430326D01*
X154071980Y-118430326D02*
X154119600Y-118382707D01*
X154119600Y-118382707D02*
X154167219Y-118287469D01*
X154167219Y-118287469D02*
X154167219Y-118096993D01*
X154167219Y-118096993D02*
X154119600Y-118001755D01*
X154119600Y-118001755D02*
X154071980Y-117954136D01*
X154071980Y-117954136D02*
X153976742Y-117906517D01*
X153976742Y-117906517D02*
X153167219Y-117906517D01*
X153167219Y-117573183D02*
X153167219Y-117001755D01*
X154167219Y-117287469D02*
X153167219Y-117287469D01*
D12*
X86993922Y-118269819D02*
X87327255Y-119269819D01*
X87327255Y-119269819D02*
X87660588Y-118269819D01*
X87946303Y-119222200D02*
X88089160Y-119269819D01*
X88089160Y-119269819D02*
X88327255Y-119269819D01*
X88327255Y-119269819D02*
X88422493Y-119222200D01*
X88422493Y-119222200D02*
X88470112Y-119174580D01*
X88470112Y-119174580D02*
X88517731Y-119079342D01*
X88517731Y-119079342D02*
X88517731Y-118984104D01*
X88517731Y-118984104D02*
X88470112Y-118888866D01*
X88470112Y-118888866D02*
X88422493Y-118841247D01*
X88422493Y-118841247D02*
X88327255Y-118793628D01*
X88327255Y-118793628D02*
X88136779Y-118746009D01*
X88136779Y-118746009D02*
X88041541Y-118698390D01*
X88041541Y-118698390D02*
X87993922Y-118650771D01*
X87993922Y-118650771D02*
X87946303Y-118555533D01*
X87946303Y-118555533D02*
X87946303Y-118460295D01*
X87946303Y-118460295D02*
X87993922Y-118365057D01*
X87993922Y-118365057D02*
X88041541Y-118317438D01*
X88041541Y-118317438D02*
X88136779Y-118269819D01*
X88136779Y-118269819D02*
X88374874Y-118269819D01*
X88374874Y-118269819D02*
X88517731Y-118317438D01*
X88946303Y-118746009D02*
X89279636Y-118746009D01*
X89422493Y-119269819D02*
X88946303Y-119269819D01*
X88946303Y-119269819D02*
X88946303Y-118269819D01*
X88946303Y-118269819D02*
X89422493Y-118269819D01*
X89851065Y-119269819D02*
X89851065Y-118269819D01*
X89851065Y-118269819D02*
X90422493Y-119269819D01*
X90422493Y-119269819D02*
X90422493Y-118269819D01*
X90851065Y-119222200D02*
X90993922Y-119269819D01*
X90993922Y-119269819D02*
X91232017Y-119269819D01*
X91232017Y-119269819D02*
X91327255Y-119222200D01*
X91327255Y-119222200D02*
X91374874Y-119174580D01*
X91374874Y-119174580D02*
X91422493Y-119079342D01*
X91422493Y-119079342D02*
X91422493Y-118984104D01*
X91422493Y-118984104D02*
X91374874Y-118888866D01*
X91374874Y-118888866D02*
X91327255Y-118841247D01*
X91327255Y-118841247D02*
X91232017Y-118793628D01*
X91232017Y-118793628D02*
X91041541Y-118746009D01*
X91041541Y-118746009D02*
X90946303Y-118698390D01*
X90946303Y-118698390D02*
X90898684Y-118650771D01*
X90898684Y-118650771D02*
X90851065Y-118555533D01*
X90851065Y-118555533D02*
X90851065Y-118460295D01*
X90851065Y-118460295D02*
X90898684Y-118365057D01*
X90898684Y-118365057D02*
X90946303Y-118317438D01*
X90946303Y-118317438D02*
X91041541Y-118269819D01*
X91041541Y-118269819D02*
X91279636Y-118269819D01*
X91279636Y-118269819D02*
X91422493Y-118317438D01*
X91851065Y-118746009D02*
X92184398Y-118746009D01*
X92327255Y-119269819D02*
X91851065Y-119269819D01*
X91851065Y-119269819D02*
X91851065Y-118269819D01*
X91851065Y-118269819D02*
X92327255Y-118269819D01*
X75730826Y-135569819D02*
X75855826Y-134569819D01*
X75855826Y-134569819D02*
X76099874Y-135284104D01*
X76099874Y-135284104D02*
X76522493Y-134569819D01*
X76522493Y-134569819D02*
X76397493Y-135569819D01*
X77302255Y-135569819D02*
X77367731Y-135046009D01*
X77367731Y-135046009D02*
X77332017Y-134950771D01*
X77332017Y-134950771D02*
X77242731Y-134903152D01*
X77242731Y-134903152D02*
X77052255Y-134903152D01*
X77052255Y-134903152D02*
X76951064Y-134950771D01*
X77308207Y-135522200D02*
X77207017Y-135569819D01*
X77207017Y-135569819D02*
X76968921Y-135569819D01*
X76968921Y-135569819D02*
X76879636Y-135522200D01*
X76879636Y-135522200D02*
X76843921Y-135426961D01*
X76843921Y-135426961D02*
X76855826Y-135331723D01*
X76855826Y-135331723D02*
X76915350Y-135236485D01*
X76915350Y-135236485D02*
X77016541Y-135188866D01*
X77016541Y-135188866D02*
X77254636Y-135188866D01*
X77254636Y-135188866D02*
X77355826Y-135141247D01*
X78207017Y-135569819D02*
X78332017Y-134569819D01*
X78212969Y-135522200D02*
X78111779Y-135569819D01*
X78111779Y-135569819D02*
X77921303Y-135569819D01*
X77921303Y-135569819D02*
X77832017Y-135522200D01*
X77832017Y-135522200D02*
X77790350Y-135474580D01*
X77790350Y-135474580D02*
X77754636Y-135379342D01*
X77754636Y-135379342D02*
X77790350Y-135093628D01*
X77790350Y-135093628D02*
X77849874Y-134998390D01*
X77849874Y-134998390D02*
X77903445Y-134950771D01*
X77903445Y-134950771D02*
X78004636Y-134903152D01*
X78004636Y-134903152D02*
X78195112Y-134903152D01*
X78195112Y-134903152D02*
X78284398Y-134950771D01*
X79070112Y-135522200D02*
X78968922Y-135569819D01*
X78968922Y-135569819D02*
X78778445Y-135569819D01*
X78778445Y-135569819D02*
X78689160Y-135522200D01*
X78689160Y-135522200D02*
X78653445Y-135426961D01*
X78653445Y-135426961D02*
X78701065Y-135046009D01*
X78701065Y-135046009D02*
X78760588Y-134950771D01*
X78760588Y-134950771D02*
X78861779Y-134903152D01*
X78861779Y-134903152D02*
X79052255Y-134903152D01*
X79052255Y-134903152D02*
X79141541Y-134950771D01*
X79141541Y-134950771D02*
X79177255Y-135046009D01*
X79177255Y-135046009D02*
X79165350Y-135141247D01*
X79165350Y-135141247D02*
X78677255Y-135236485D01*
X80302255Y-135569819D02*
X80427255Y-134569819D01*
X80379636Y-134950771D02*
X80480827Y-134903152D01*
X80480827Y-134903152D02*
X80671303Y-134903152D01*
X80671303Y-134903152D02*
X80760589Y-134950771D01*
X80760589Y-134950771D02*
X80802255Y-134998390D01*
X80802255Y-134998390D02*
X80837970Y-135093628D01*
X80837970Y-135093628D02*
X80802255Y-135379342D01*
X80802255Y-135379342D02*
X80742732Y-135474580D01*
X80742732Y-135474580D02*
X80689160Y-135522200D01*
X80689160Y-135522200D02*
X80587970Y-135569819D01*
X80587970Y-135569819D02*
X80397493Y-135569819D01*
X80397493Y-135569819D02*
X80308208Y-135522200D01*
X81195113Y-134903152D02*
X81349875Y-135569819D01*
X81671303Y-134903152D02*
X81349875Y-135569819D01*
X81349875Y-135569819D02*
X81224875Y-135807914D01*
X81224875Y-135807914D02*
X81171303Y-135855533D01*
X81171303Y-135855533D02*
X81070113Y-135903152D01*
X83409399Y-135093628D02*
X83367732Y-135046009D01*
X83367732Y-135046009D02*
X83278446Y-134998390D01*
X83278446Y-134998390D02*
X83183208Y-134998390D01*
X83183208Y-134998390D02*
X83082018Y-135046009D01*
X83082018Y-135046009D02*
X83028446Y-135093628D01*
X83028446Y-135093628D02*
X82968923Y-135188866D01*
X82968923Y-135188866D02*
X82957018Y-135284104D01*
X82957018Y-135284104D02*
X82992732Y-135379342D01*
X82992732Y-135379342D02*
X83034399Y-135426961D01*
X83034399Y-135426961D02*
X83123685Y-135474580D01*
X83123685Y-135474580D02*
X83218923Y-135474580D01*
X83218923Y-135474580D02*
X83320113Y-135426961D01*
X83320113Y-135426961D02*
X83373685Y-135379342D01*
X83421304Y-134998390D02*
X83373685Y-135379342D01*
X83373685Y-135379342D02*
X83415351Y-135426961D01*
X83415351Y-135426961D02*
X83462970Y-135426961D01*
X83462970Y-135426961D02*
X83564161Y-135379342D01*
X83564161Y-135379342D02*
X83623685Y-135284104D01*
X83623685Y-135284104D02*
X83653446Y-135046009D01*
X83653446Y-135046009D02*
X83576065Y-134903152D01*
X83576065Y-134903152D02*
X83445113Y-134807914D01*
X83445113Y-134807914D02*
X83260589Y-134760295D01*
X83260589Y-134760295D02*
X83064161Y-134807914D01*
X83064161Y-134807914D02*
X82909399Y-134903152D01*
X82909399Y-134903152D02*
X82796304Y-135046009D01*
X82796304Y-135046009D02*
X82724875Y-135236485D01*
X82724875Y-135236485D02*
X82748685Y-135426961D01*
X82748685Y-135426961D02*
X82826065Y-135569819D01*
X82826065Y-135569819D02*
X82957018Y-135665057D01*
X82957018Y-135665057D02*
X83141542Y-135712676D01*
X83141542Y-135712676D02*
X83337970Y-135665057D01*
X83337970Y-135665057D02*
X83492732Y-135569819D01*
X84004637Y-135284104D02*
X84480827Y-135284104D01*
X83873684Y-135569819D02*
X84332018Y-134569819D01*
X84332018Y-134569819D02*
X84540351Y-135569819D01*
X84873684Y-135569819D02*
X84957018Y-134903152D01*
X84945113Y-134998390D02*
X84998684Y-134950771D01*
X84998684Y-134950771D02*
X85099875Y-134903152D01*
X85099875Y-134903152D02*
X85242732Y-134903152D01*
X85242732Y-134903152D02*
X85332018Y-134950771D01*
X85332018Y-134950771D02*
X85367732Y-135046009D01*
X85367732Y-135046009D02*
X85302256Y-135569819D01*
X85367732Y-135046009D02*
X85427256Y-134950771D01*
X85427256Y-134950771D02*
X85528446Y-134903152D01*
X85528446Y-134903152D02*
X85671303Y-134903152D01*
X85671303Y-134903152D02*
X85760589Y-134950771D01*
X85760589Y-134950771D02*
X85796303Y-135046009D01*
X85796303Y-135046009D02*
X85730827Y-135569819D01*
X86207017Y-135569819D02*
X86290351Y-134903152D01*
X86266541Y-135093628D02*
X86326065Y-134998390D01*
X86326065Y-134998390D02*
X86379636Y-134950771D01*
X86379636Y-134950771D02*
X86480827Y-134903152D01*
X86480827Y-134903152D02*
X86576065Y-134903152D01*
X86968923Y-135569819D02*
X86879637Y-135522200D01*
X86879637Y-135522200D02*
X86843923Y-135426961D01*
X86843923Y-135426961D02*
X86951065Y-134569819D01*
X87254637Y-135569819D02*
X87861780Y-134903152D01*
X87337971Y-134903152D02*
X87778447Y-135569819D01*
X88147495Y-134903152D02*
X88302257Y-135569819D01*
X88623685Y-134903152D02*
X88302257Y-135569819D01*
X88302257Y-135569819D02*
X88177257Y-135807914D01*
X88177257Y-135807914D02*
X88123685Y-135855533D01*
X88123685Y-135855533D02*
X88022495Y-135903152D01*
X88909400Y-134903152D02*
X89433209Y-134903152D01*
X89433209Y-134903152D02*
X88826066Y-135569819D01*
X88826066Y-135569819D02*
X89349876Y-135569819D01*
X90730829Y-135950771D02*
X90689162Y-135903152D01*
X90689162Y-135903152D02*
X90611781Y-135760295D01*
X90611781Y-135760295D02*
X90576067Y-135665057D01*
X90576067Y-135665057D02*
X90546305Y-135522200D01*
X90546305Y-135522200D02*
X90528448Y-135284104D01*
X90528448Y-135284104D02*
X90552257Y-135093628D01*
X90552257Y-135093628D02*
X90629638Y-134855533D01*
X90629638Y-134855533D02*
X90695114Y-134712676D01*
X90695114Y-134712676D02*
X90754638Y-134617438D01*
X90754638Y-134617438D02*
X90867733Y-134474580D01*
X90867733Y-134474580D02*
X90921305Y-134426961D01*
X91802258Y-134617438D02*
X91712972Y-134569819D01*
X91712972Y-134569819D02*
X91570115Y-134569819D01*
X91570115Y-134569819D02*
X91421305Y-134617438D01*
X91421305Y-134617438D02*
X91314162Y-134712676D01*
X91314162Y-134712676D02*
X91254638Y-134807914D01*
X91254638Y-134807914D02*
X91183210Y-134998390D01*
X91183210Y-134998390D02*
X91165353Y-135141247D01*
X91165353Y-135141247D02*
X91189162Y-135331723D01*
X91189162Y-135331723D02*
X91224877Y-135426961D01*
X91224877Y-135426961D02*
X91308210Y-135522200D01*
X91308210Y-135522200D02*
X91445115Y-135569819D01*
X91445115Y-135569819D02*
X91540353Y-135569819D01*
X91540353Y-135569819D02*
X91689162Y-135522200D01*
X91689162Y-135522200D02*
X91742734Y-135474580D01*
X91742734Y-135474580D02*
X91784400Y-135141247D01*
X91784400Y-135141247D02*
X91593924Y-135141247D01*
X92159400Y-135569819D02*
X92242734Y-134903152D01*
X92284400Y-134569819D02*
X92230829Y-134617438D01*
X92230829Y-134617438D02*
X92272496Y-134665057D01*
X92272496Y-134665057D02*
X92326067Y-134617438D01*
X92326067Y-134617438D02*
X92284400Y-134569819D01*
X92284400Y-134569819D02*
X92272496Y-134665057D01*
X92576067Y-134903152D02*
X92957019Y-134903152D01*
X92760590Y-134569819D02*
X92653448Y-135426961D01*
X92653448Y-135426961D02*
X92689162Y-135522200D01*
X92689162Y-135522200D02*
X92778448Y-135569819D01*
X92778448Y-135569819D02*
X92873686Y-135569819D01*
X93207019Y-135569819D02*
X93332019Y-134569819D01*
X93635591Y-135569819D02*
X93701067Y-135046009D01*
X93701067Y-135046009D02*
X93665353Y-134950771D01*
X93665353Y-134950771D02*
X93576067Y-134903152D01*
X93576067Y-134903152D02*
X93433210Y-134903152D01*
X93433210Y-134903152D02*
X93332019Y-134950771D01*
X93332019Y-134950771D02*
X93278448Y-134998390D01*
X94623686Y-134903152D02*
X94540353Y-135569819D01*
X94195115Y-134903152D02*
X94129639Y-135426961D01*
X94129639Y-135426961D02*
X94165353Y-135522200D01*
X94165353Y-135522200D02*
X94254639Y-135569819D01*
X94254639Y-135569819D02*
X94397496Y-135569819D01*
X94397496Y-135569819D02*
X94498686Y-135522200D01*
X94498686Y-135522200D02*
X94552258Y-135474580D01*
X95016543Y-135569819D02*
X95141543Y-134569819D01*
X95093924Y-134950771D02*
X95195115Y-134903152D01*
X95195115Y-134903152D02*
X95385591Y-134903152D01*
X95385591Y-134903152D02*
X95474877Y-134950771D01*
X95474877Y-134950771D02*
X95516543Y-134998390D01*
X95516543Y-134998390D02*
X95552258Y-135093628D01*
X95552258Y-135093628D02*
X95516543Y-135379342D01*
X95516543Y-135379342D02*
X95457020Y-135474580D01*
X95457020Y-135474580D02*
X95403448Y-135522200D01*
X95403448Y-135522200D02*
X95302258Y-135569819D01*
X95302258Y-135569819D02*
X95111781Y-135569819D01*
X95111781Y-135569819D02*
X95022496Y-135522200D01*
X95778448Y-135950771D02*
X95832020Y-135903152D01*
X95832020Y-135903152D02*
X95945115Y-135760295D01*
X95945115Y-135760295D02*
X96004639Y-135665057D01*
X96004639Y-135665057D02*
X96070115Y-135522200D01*
X96070115Y-135522200D02*
X96147496Y-135284104D01*
X96147496Y-135284104D02*
X96171305Y-135093628D01*
X96171305Y-135093628D02*
X96153448Y-134855533D01*
X96153448Y-134855533D02*
X96123686Y-134712676D01*
X96123686Y-134712676D02*
X96087972Y-134617438D01*
X96087972Y-134617438D02*
X96010591Y-134474580D01*
X96010591Y-134474580D02*
X95968924Y-134426961D01*
D14*
X109509833Y-58120331D02*
X109509833Y-58882236D01*
X109128880Y-58501283D02*
X109890785Y-58501283D01*
D12*
X90841541Y-122469819D02*
X91460588Y-122469819D01*
X91460588Y-122469819D02*
X91127255Y-122850771D01*
X91127255Y-122850771D02*
X91270112Y-122850771D01*
X91270112Y-122850771D02*
X91365350Y-122898390D01*
X91365350Y-122898390D02*
X91412969Y-122946009D01*
X91412969Y-122946009D02*
X91460588Y-123041247D01*
X91460588Y-123041247D02*
X91460588Y-123279342D01*
X91460588Y-123279342D02*
X91412969Y-123374580D01*
X91412969Y-123374580D02*
X91365350Y-123422200D01*
X91365350Y-123422200D02*
X91270112Y-123469819D01*
X91270112Y-123469819D02*
X90984398Y-123469819D01*
X90984398Y-123469819D02*
X90889160Y-123422200D01*
X90889160Y-123422200D02*
X90841541Y-123374580D01*
D13*
X153167219Y-69773183D02*
X153167219Y-69201755D01*
X154167219Y-69487469D02*
X153167219Y-69487469D01*
X153643409Y-68868421D02*
X153643409Y-68535088D01*
X154167219Y-68392231D02*
X154167219Y-68868421D01*
X154167219Y-68868421D02*
X153167219Y-68868421D01*
X153167219Y-68868421D02*
X153167219Y-68392231D01*
X154167219Y-67963659D02*
X153167219Y-67963659D01*
X153167219Y-67963659D02*
X153881504Y-67630326D01*
X153881504Y-67630326D02*
X153167219Y-67296993D01*
X153167219Y-67296993D02*
X154167219Y-67296993D01*
X154167219Y-66820802D02*
X153167219Y-66820802D01*
X153167219Y-66820802D02*
X153167219Y-66439850D01*
X153167219Y-66439850D02*
X153214838Y-66344612D01*
X153214838Y-66344612D02*
X153262457Y-66296993D01*
X153262457Y-66296993D02*
X153357695Y-66249374D01*
X153357695Y-66249374D02*
X153500552Y-66249374D01*
X153500552Y-66249374D02*
X153595790Y-66296993D01*
X153595790Y-66296993D02*
X153643409Y-66344612D01*
X153643409Y-66344612D02*
X153691028Y-66439850D01*
X153691028Y-66439850D02*
X153691028Y-66820802D01*
X154167219Y-64535088D02*
X154167219Y-65106516D01*
X154167219Y-64820802D02*
X153167219Y-64820802D01*
X153167219Y-64820802D02*
X153310076Y-64916040D01*
X153310076Y-64916040D02*
X153405314Y-65011278D01*
X153405314Y-65011278D02*
X153452933Y-65106516D01*
X153786266Y-64106516D02*
X153786266Y-63344612D01*
X153595790Y-62725564D02*
X153548171Y-62820802D01*
X153548171Y-62820802D02*
X153500552Y-62868421D01*
X153500552Y-62868421D02*
X153405314Y-62916040D01*
X153405314Y-62916040D02*
X153357695Y-62916040D01*
X153357695Y-62916040D02*
X153262457Y-62868421D01*
X153262457Y-62868421D02*
X153214838Y-62820802D01*
X153214838Y-62820802D02*
X153167219Y-62725564D01*
X153167219Y-62725564D02*
X153167219Y-62535088D01*
X153167219Y-62535088D02*
X153214838Y-62439850D01*
X153214838Y-62439850D02*
X153262457Y-62392231D01*
X153262457Y-62392231D02*
X153357695Y-62344612D01*
X153357695Y-62344612D02*
X153405314Y-62344612D01*
X153405314Y-62344612D02*
X153500552Y-62392231D01*
X153500552Y-62392231D02*
X153548171Y-62439850D01*
X153548171Y-62439850D02*
X153595790Y-62535088D01*
X153595790Y-62535088D02*
X153595790Y-62725564D01*
X153595790Y-62725564D02*
X153643409Y-62820802D01*
X153643409Y-62820802D02*
X153691028Y-62868421D01*
X153691028Y-62868421D02*
X153786266Y-62916040D01*
X153786266Y-62916040D02*
X153976742Y-62916040D01*
X153976742Y-62916040D02*
X154071980Y-62868421D01*
X154071980Y-62868421D02*
X154119600Y-62820802D01*
X154119600Y-62820802D02*
X154167219Y-62725564D01*
X154167219Y-62725564D02*
X154167219Y-62535088D01*
X154167219Y-62535088D02*
X154119600Y-62439850D01*
X154119600Y-62439850D02*
X154071980Y-62392231D01*
X154071980Y-62392231D02*
X153976742Y-62344612D01*
X153976742Y-62344612D02*
X153786266Y-62344612D01*
X153786266Y-62344612D02*
X153691028Y-62392231D01*
X153691028Y-62392231D02*
X153643409Y-62439850D01*
X153643409Y-62439850D02*
X153595790Y-62535088D01*
X154167219Y-61154135D02*
X153167219Y-61154135D01*
X154167219Y-60677945D02*
X153167219Y-60677945D01*
X153167219Y-60677945D02*
X154167219Y-60106517D01*
X154167219Y-60106517D02*
X153167219Y-60106517D01*
X154167219Y-59630326D02*
X153167219Y-59630326D01*
X153167219Y-59630326D02*
X153167219Y-59249374D01*
X153167219Y-59249374D02*
X153214838Y-59154136D01*
X153214838Y-59154136D02*
X153262457Y-59106517D01*
X153262457Y-59106517D02*
X153357695Y-59058898D01*
X153357695Y-59058898D02*
X153500552Y-59058898D01*
X153500552Y-59058898D02*
X153595790Y-59106517D01*
X153595790Y-59106517D02*
X153643409Y-59154136D01*
X153643409Y-59154136D02*
X153691028Y-59249374D01*
X153691028Y-59249374D02*
X153691028Y-59630326D01*
X153167219Y-58630326D02*
X153976742Y-58630326D01*
X153976742Y-58630326D02*
X154071980Y-58582707D01*
X154071980Y-58582707D02*
X154119600Y-58535088D01*
X154119600Y-58535088D02*
X154167219Y-58439850D01*
X154167219Y-58439850D02*
X154167219Y-58249374D01*
X154167219Y-58249374D02*
X154119600Y-58154136D01*
X154119600Y-58154136D02*
X154071980Y-58106517D01*
X154071980Y-58106517D02*
X153976742Y-58058898D01*
X153976742Y-58058898D02*
X153167219Y-58058898D01*
X153167219Y-57725564D02*
X153167219Y-57154136D01*
X154167219Y-57439850D02*
X153167219Y-57439850D01*
D12*
X77734649Y-121759875D02*
X77734649Y-120759875D01*
X77734649Y-120759875D02*
X78115601Y-120759875D01*
X78115601Y-120759875D02*
X78210839Y-120807494D01*
X78210839Y-120807494D02*
X78258458Y-120855113D01*
X78258458Y-120855113D02*
X78306077Y-120950351D01*
X78306077Y-120950351D02*
X78306077Y-121093208D01*
X78306077Y-121093208D02*
X78258458Y-121188446D01*
X78258458Y-121188446D02*
X78210839Y-121236065D01*
X78210839Y-121236065D02*
X78115601Y-121283684D01*
X78115601Y-121283684D02*
X77734649Y-121283684D01*
X79306077Y-121664636D02*
X79258458Y-121712256D01*
X79258458Y-121712256D02*
X79115601Y-121759875D01*
X79115601Y-121759875D02*
X79020363Y-121759875D01*
X79020363Y-121759875D02*
X78877506Y-121712256D01*
X78877506Y-121712256D02*
X78782268Y-121617017D01*
X78782268Y-121617017D02*
X78734649Y-121521779D01*
X78734649Y-121521779D02*
X78687030Y-121331303D01*
X78687030Y-121331303D02*
X78687030Y-121188446D01*
X78687030Y-121188446D02*
X78734649Y-120997970D01*
X78734649Y-120997970D02*
X78782268Y-120902732D01*
X78782268Y-120902732D02*
X78877506Y-120807494D01*
X78877506Y-120807494D02*
X79020363Y-120759875D01*
X79020363Y-120759875D02*
X79115601Y-120759875D01*
X79115601Y-120759875D02*
X79258458Y-120807494D01*
X79258458Y-120807494D02*
X79306077Y-120855113D01*
X80067982Y-121236065D02*
X80210839Y-121283684D01*
X80210839Y-121283684D02*
X80258458Y-121331303D01*
X80258458Y-121331303D02*
X80306077Y-121426541D01*
X80306077Y-121426541D02*
X80306077Y-121569398D01*
X80306077Y-121569398D02*
X80258458Y-121664636D01*
X80258458Y-121664636D02*
X80210839Y-121712256D01*
X80210839Y-121712256D02*
X80115601Y-121759875D01*
X80115601Y-121759875D02*
X79734649Y-121759875D01*
X79734649Y-121759875D02*
X79734649Y-120759875D01*
X79734649Y-120759875D02*
X80067982Y-120759875D01*
X80067982Y-120759875D02*
X80163220Y-120807494D01*
X80163220Y-120807494D02*
X80210839Y-120855113D01*
X80210839Y-120855113D02*
X80258458Y-120950351D01*
X80258458Y-120950351D02*
X80258458Y-121045589D01*
X80258458Y-121045589D02*
X80210839Y-121140827D01*
X80210839Y-121140827D02*
X80163220Y-121188446D01*
X80163220Y-121188446D02*
X80067982Y-121236065D01*
X80067982Y-121236065D02*
X79734649Y-121236065D01*
X82067982Y-121664636D02*
X82020363Y-121712256D01*
X82020363Y-121712256D02*
X81877506Y-121759875D01*
X81877506Y-121759875D02*
X81782268Y-121759875D01*
X81782268Y-121759875D02*
X81639411Y-121712256D01*
X81639411Y-121712256D02*
X81544173Y-121617017D01*
X81544173Y-121617017D02*
X81496554Y-121521779D01*
X81496554Y-121521779D02*
X81448935Y-121331303D01*
X81448935Y-121331303D02*
X81448935Y-121188446D01*
X81448935Y-121188446D02*
X81496554Y-120997970D01*
X81496554Y-120997970D02*
X81544173Y-120902732D01*
X81544173Y-120902732D02*
X81639411Y-120807494D01*
X81639411Y-120807494D02*
X81782268Y-120759875D01*
X81782268Y-120759875D02*
X81877506Y-120759875D01*
X81877506Y-120759875D02*
X82020363Y-120807494D01*
X82020363Y-120807494D02*
X82067982Y-120855113D01*
X82687030Y-120759875D02*
X82877506Y-120759875D01*
X82877506Y-120759875D02*
X82972744Y-120807494D01*
X82972744Y-120807494D02*
X83067982Y-120902732D01*
X83067982Y-120902732D02*
X83115601Y-121093208D01*
X83115601Y-121093208D02*
X83115601Y-121426541D01*
X83115601Y-121426541D02*
X83067982Y-121617017D01*
X83067982Y-121617017D02*
X82972744Y-121712256D01*
X82972744Y-121712256D02*
X82877506Y-121759875D01*
X82877506Y-121759875D02*
X82687030Y-121759875D01*
X82687030Y-121759875D02*
X82591792Y-121712256D01*
X82591792Y-121712256D02*
X82496554Y-121617017D01*
X82496554Y-121617017D02*
X82448935Y-121426541D01*
X82448935Y-121426541D02*
X82448935Y-121093208D01*
X82448935Y-121093208D02*
X82496554Y-120902732D01*
X82496554Y-120902732D02*
X82591792Y-120807494D01*
X82591792Y-120807494D02*
X82687030Y-120759875D01*
X83544173Y-121759875D02*
X83544173Y-120759875D01*
X83544173Y-120759875D02*
X84115601Y-121759875D01*
X84115601Y-121759875D02*
X84115601Y-120759875D01*
X84591792Y-121759875D02*
X84591792Y-120759875D01*
X84591792Y-120759875D02*
X85163220Y-121759875D01*
X85163220Y-121759875D02*
X85163220Y-120759875D01*
X77115601Y-122846009D02*
X76782268Y-122846009D01*
X76782268Y-123369819D02*
X76782268Y-122369819D01*
X76782268Y-122369819D02*
X77258458Y-122369819D01*
X78210839Y-123369819D02*
X77877506Y-122893628D01*
X77639411Y-123369819D02*
X77639411Y-122369819D01*
X77639411Y-122369819D02*
X78020363Y-122369819D01*
X78020363Y-122369819D02*
X78115601Y-122417438D01*
X78115601Y-122417438D02*
X78163220Y-122465057D01*
X78163220Y-122465057D02*
X78210839Y-122560295D01*
X78210839Y-122560295D02*
X78210839Y-122703152D01*
X78210839Y-122703152D02*
X78163220Y-122798390D01*
X78163220Y-122798390D02*
X78115601Y-122846009D01*
X78115601Y-122846009D02*
X78020363Y-122893628D01*
X78020363Y-122893628D02*
X77639411Y-122893628D01*
X78829887Y-122369819D02*
X79020363Y-122369819D01*
X79020363Y-122369819D02*
X79115601Y-122417438D01*
X79115601Y-122417438D02*
X79210839Y-122512676D01*
X79210839Y-122512676D02*
X79258458Y-122703152D01*
X79258458Y-122703152D02*
X79258458Y-123036485D01*
X79258458Y-123036485D02*
X79210839Y-123226961D01*
X79210839Y-123226961D02*
X79115601Y-123322200D01*
X79115601Y-123322200D02*
X79020363Y-123369819D01*
X79020363Y-123369819D02*
X78829887Y-123369819D01*
X78829887Y-123369819D02*
X78734649Y-123322200D01*
X78734649Y-123322200D02*
X78639411Y-123226961D01*
X78639411Y-123226961D02*
X78591792Y-123036485D01*
X78591792Y-123036485D02*
X78591792Y-122703152D01*
X78591792Y-122703152D02*
X78639411Y-122512676D01*
X78639411Y-122512676D02*
X78734649Y-122417438D01*
X78734649Y-122417438D02*
X78829887Y-122369819D01*
X79687030Y-123369819D02*
X79687030Y-122369819D01*
X79687030Y-122369819D02*
X80258458Y-123369819D01*
X80258458Y-123369819D02*
X80258458Y-122369819D01*
X80591792Y-122369819D02*
X81163220Y-122369819D01*
X80877506Y-123369819D02*
X80877506Y-122369819D01*
X82115602Y-122369819D02*
X82448935Y-123369819D01*
X82448935Y-123369819D02*
X82782268Y-122369819D01*
X83115602Y-123369819D02*
X83115602Y-122369819D01*
X83591792Y-122846009D02*
X83925125Y-122846009D01*
X84067982Y-123369819D02*
X83591792Y-123369819D01*
X83591792Y-123369819D02*
X83591792Y-122369819D01*
X83591792Y-122369819D02*
X84067982Y-122369819D01*
X84401316Y-122369819D02*
X84639411Y-123369819D01*
X84639411Y-123369819D02*
X84829887Y-122655533D01*
X84829887Y-122655533D02*
X85020363Y-123369819D01*
X85020363Y-123369819D02*
X85258459Y-122369819D01*
D13*
X104493482Y-51267219D02*
X103922054Y-51267219D01*
X104207768Y-51267219D02*
X104207768Y-50267219D01*
X104207768Y-50267219D02*
X104112530Y-50410076D01*
X104112530Y-50410076D02*
X104017292Y-50505314D01*
X104017292Y-50505314D02*
X103922054Y-50552933D01*
X104874435Y-50362457D02*
X104922054Y-50314838D01*
X104922054Y-50314838D02*
X105017292Y-50267219D01*
X105017292Y-50267219D02*
X105255387Y-50267219D01*
X105255387Y-50267219D02*
X105350625Y-50314838D01*
X105350625Y-50314838D02*
X105398244Y-50362457D01*
X105398244Y-50362457D02*
X105445863Y-50457695D01*
X105445863Y-50457695D02*
X105445863Y-50552933D01*
X105445863Y-50552933D02*
X105398244Y-50695790D01*
X105398244Y-50695790D02*
X104826816Y-51267219D01*
X104826816Y-51267219D02*
X105445863Y-51267219D01*
X105731578Y-50267219D02*
X106064911Y-51267219D01*
X106064911Y-51267219D02*
X106398244Y-50267219D01*
X107493483Y-51267219D02*
X107493483Y-50267219D01*
X107922054Y-51219600D02*
X108064911Y-51267219D01*
X108064911Y-51267219D02*
X108303006Y-51267219D01*
X108303006Y-51267219D02*
X108398244Y-51219600D01*
X108398244Y-51219600D02*
X108445863Y-51171980D01*
X108445863Y-51171980D02*
X108493482Y-51076742D01*
X108493482Y-51076742D02*
X108493482Y-50981504D01*
X108493482Y-50981504D02*
X108445863Y-50886266D01*
X108445863Y-50886266D02*
X108398244Y-50838647D01*
X108398244Y-50838647D02*
X108303006Y-50791028D01*
X108303006Y-50791028D02*
X108112530Y-50743409D01*
X108112530Y-50743409D02*
X108017292Y-50695790D01*
X108017292Y-50695790D02*
X107969673Y-50648171D01*
X107969673Y-50648171D02*
X107922054Y-50552933D01*
X107922054Y-50552933D02*
X107922054Y-50457695D01*
X107922054Y-50457695D02*
X107969673Y-50362457D01*
X107969673Y-50362457D02*
X108017292Y-50314838D01*
X108017292Y-50314838D02*
X108112530Y-50267219D01*
X108112530Y-50267219D02*
X108350625Y-50267219D01*
X108350625Y-50267219D02*
X108493482Y-50314838D01*
X109112530Y-50267219D02*
X109303006Y-50267219D01*
X109303006Y-50267219D02*
X109398244Y-50314838D01*
X109398244Y-50314838D02*
X109493482Y-50410076D01*
X109493482Y-50410076D02*
X109541101Y-50600552D01*
X109541101Y-50600552D02*
X109541101Y-50933885D01*
X109541101Y-50933885D02*
X109493482Y-51124361D01*
X109493482Y-51124361D02*
X109398244Y-51219600D01*
X109398244Y-51219600D02*
X109303006Y-51267219D01*
X109303006Y-51267219D02*
X109112530Y-51267219D01*
X109112530Y-51267219D02*
X109017292Y-51219600D01*
X109017292Y-51219600D02*
X108922054Y-51124361D01*
X108922054Y-51124361D02*
X108874435Y-50933885D01*
X108874435Y-50933885D02*
X108874435Y-50600552D01*
X108874435Y-50600552D02*
X108922054Y-50410076D01*
X108922054Y-50410076D02*
X109017292Y-50314838D01*
X109017292Y-50314838D02*
X109112530Y-50267219D01*
X110445863Y-51267219D02*
X109969673Y-51267219D01*
X109969673Y-51267219D02*
X109969673Y-50267219D01*
X110731578Y-50981504D02*
X111207768Y-50981504D01*
X110636340Y-51267219D02*
X110969673Y-50267219D01*
X110969673Y-50267219D02*
X111303006Y-51267219D01*
X111493483Y-50267219D02*
X112064911Y-50267219D01*
X111779197Y-51267219D02*
X111779197Y-50267219D01*
X112398245Y-50743409D02*
X112731578Y-50743409D01*
X112874435Y-51267219D02*
X112398245Y-51267219D01*
X112398245Y-51267219D02*
X112398245Y-50267219D01*
X112398245Y-50267219D02*
X112874435Y-50267219D01*
X113303007Y-51267219D02*
X113303007Y-50267219D01*
X113303007Y-50267219D02*
X113541102Y-50267219D01*
X113541102Y-50267219D02*
X113683959Y-50314838D01*
X113683959Y-50314838D02*
X113779197Y-50410076D01*
X113779197Y-50410076D02*
X113826816Y-50505314D01*
X113826816Y-50505314D02*
X113874435Y-50695790D01*
X113874435Y-50695790D02*
X113874435Y-50838647D01*
X113874435Y-50838647D02*
X113826816Y-51029123D01*
X113826816Y-51029123D02*
X113779197Y-51124361D01*
X113779197Y-51124361D02*
X113683959Y-51219600D01*
X113683959Y-51219600D02*
X113541102Y-51267219D01*
X113541102Y-51267219D02*
X113303007Y-51267219D01*
D12*
X156169819Y-114506077D02*
X156169819Y-113934649D01*
X157169819Y-114220363D02*
X156169819Y-114220363D01*
X156646009Y-113601315D02*
X156646009Y-113267982D01*
X157169819Y-113125125D02*
X157169819Y-113601315D01*
X157169819Y-113601315D02*
X156169819Y-113601315D01*
X156169819Y-113601315D02*
X156169819Y-113125125D01*
X157169819Y-112696553D02*
X156169819Y-112696553D01*
X156169819Y-112696553D02*
X156884104Y-112363220D01*
X156884104Y-112363220D02*
X156169819Y-112029887D01*
X156169819Y-112029887D02*
X157169819Y-112029887D01*
X157169819Y-111553696D02*
X156169819Y-111553696D01*
X156169819Y-111553696D02*
X156169819Y-111172744D01*
X156169819Y-111172744D02*
X156217438Y-111077506D01*
X156217438Y-111077506D02*
X156265057Y-111029887D01*
X156265057Y-111029887D02*
X156360295Y-110982268D01*
X156360295Y-110982268D02*
X156503152Y-110982268D01*
X156503152Y-110982268D02*
X156598390Y-111029887D01*
X156598390Y-111029887D02*
X156646009Y-111077506D01*
X156646009Y-111077506D02*
X156693628Y-111172744D01*
X156693628Y-111172744D02*
X156693628Y-111553696D01*
X160417438Y-110639411D02*
X160369819Y-110734649D01*
X160369819Y-110734649D02*
X160369819Y-110877506D01*
X160369819Y-110877506D02*
X160417438Y-111020363D01*
X160417438Y-111020363D02*
X160512676Y-111115601D01*
X160512676Y-111115601D02*
X160607914Y-111163220D01*
X160607914Y-111163220D02*
X160798390Y-111210839D01*
X160798390Y-111210839D02*
X160941247Y-111210839D01*
X160941247Y-111210839D02*
X161131723Y-111163220D01*
X161131723Y-111163220D02*
X161226961Y-111115601D01*
X161226961Y-111115601D02*
X161322200Y-111020363D01*
X161322200Y-111020363D02*
X161369819Y-110877506D01*
X161369819Y-110877506D02*
X161369819Y-110782268D01*
X161369819Y-110782268D02*
X161322200Y-110639411D01*
X161322200Y-110639411D02*
X161274580Y-110591792D01*
X161274580Y-110591792D02*
X160941247Y-110591792D01*
X160941247Y-110591792D02*
X160941247Y-110782268D01*
X89460588Y-123469819D02*
X88889160Y-123469819D01*
X89174874Y-123469819D02*
X89174874Y-122469819D01*
X89174874Y-122469819D02*
X89079636Y-122612676D01*
X89079636Y-122612676D02*
X88984398Y-122707914D01*
X88984398Y-122707914D02*
X88889160Y-122755533D01*
D13*
X85669673Y-65867219D02*
X85669673Y-64867219D01*
X85669673Y-65343409D02*
X86241101Y-65343409D01*
X86241101Y-65867219D02*
X86241101Y-64867219D01*
X86574435Y-64867219D02*
X86907768Y-65867219D01*
X86907768Y-65867219D02*
X87241101Y-64867219D01*
X88336340Y-65867219D02*
X88336340Y-64867219D01*
X88764911Y-65819600D02*
X88907768Y-65867219D01*
X88907768Y-65867219D02*
X89145863Y-65867219D01*
X89145863Y-65867219D02*
X89241101Y-65819600D01*
X89241101Y-65819600D02*
X89288720Y-65771980D01*
X89288720Y-65771980D02*
X89336339Y-65676742D01*
X89336339Y-65676742D02*
X89336339Y-65581504D01*
X89336339Y-65581504D02*
X89288720Y-65486266D01*
X89288720Y-65486266D02*
X89241101Y-65438647D01*
X89241101Y-65438647D02*
X89145863Y-65391028D01*
X89145863Y-65391028D02*
X88955387Y-65343409D01*
X88955387Y-65343409D02*
X88860149Y-65295790D01*
X88860149Y-65295790D02*
X88812530Y-65248171D01*
X88812530Y-65248171D02*
X88764911Y-65152933D01*
X88764911Y-65152933D02*
X88764911Y-65057695D01*
X88764911Y-65057695D02*
X88812530Y-64962457D01*
X88812530Y-64962457D02*
X88860149Y-64914838D01*
X88860149Y-64914838D02*
X88955387Y-64867219D01*
X88955387Y-64867219D02*
X89193482Y-64867219D01*
X89193482Y-64867219D02*
X89336339Y-64914838D01*
X89955387Y-64867219D02*
X90145863Y-64867219D01*
X90145863Y-64867219D02*
X90241101Y-64914838D01*
X90241101Y-64914838D02*
X90336339Y-65010076D01*
X90336339Y-65010076D02*
X90383958Y-65200552D01*
X90383958Y-65200552D02*
X90383958Y-65533885D01*
X90383958Y-65533885D02*
X90336339Y-65724361D01*
X90336339Y-65724361D02*
X90241101Y-65819600D01*
X90241101Y-65819600D02*
X90145863Y-65867219D01*
X90145863Y-65867219D02*
X89955387Y-65867219D01*
X89955387Y-65867219D02*
X89860149Y-65819600D01*
X89860149Y-65819600D02*
X89764911Y-65724361D01*
X89764911Y-65724361D02*
X89717292Y-65533885D01*
X89717292Y-65533885D02*
X89717292Y-65200552D01*
X89717292Y-65200552D02*
X89764911Y-65010076D01*
X89764911Y-65010076D02*
X89860149Y-64914838D01*
X89860149Y-64914838D02*
X89955387Y-64867219D01*
X91574435Y-65486266D02*
X92336340Y-65486266D01*
X92812530Y-65200552D02*
X93574435Y-65486266D01*
X93574435Y-65486266D02*
X92812530Y-65771980D01*
D12*
X91365350Y-120803152D02*
X91365350Y-121469819D01*
X91127255Y-120422200D02*
X90889160Y-121136485D01*
X90889160Y-121136485D02*
X91508207Y-121136485D01*
X87460588Y-122517438D02*
X87365350Y-122469819D01*
X87365350Y-122469819D02*
X87222493Y-122469819D01*
X87222493Y-122469819D02*
X87079636Y-122517438D01*
X87079636Y-122517438D02*
X86984398Y-122612676D01*
X86984398Y-122612676D02*
X86936779Y-122707914D01*
X86936779Y-122707914D02*
X86889160Y-122898390D01*
X86889160Y-122898390D02*
X86889160Y-123041247D01*
X86889160Y-123041247D02*
X86936779Y-123231723D01*
X86936779Y-123231723D02*
X86984398Y-123326961D01*
X86984398Y-123326961D02*
X87079636Y-123422200D01*
X87079636Y-123422200D02*
X87222493Y-123469819D01*
X87222493Y-123469819D02*
X87317731Y-123469819D01*
X87317731Y-123469819D02*
X87460588Y-123422200D01*
X87460588Y-123422200D02*
X87508207Y-123374580D01*
X87508207Y-123374580D02*
X87508207Y-123041247D01*
X87508207Y-123041247D02*
X87317731Y-123041247D01*
X159659875Y-124365350D02*
X158659875Y-124365350D01*
X158659875Y-124365350D02*
X158659875Y-123984398D01*
X158659875Y-123984398D02*
X158707494Y-123889160D01*
X158707494Y-123889160D02*
X158755113Y-123841541D01*
X158755113Y-123841541D02*
X158850351Y-123793922D01*
X158850351Y-123793922D02*
X158993208Y-123793922D01*
X158993208Y-123793922D02*
X159088446Y-123841541D01*
X159088446Y-123841541D02*
X159136065Y-123889160D01*
X159136065Y-123889160D02*
X159183684Y-123984398D01*
X159183684Y-123984398D02*
X159183684Y-124365350D01*
X159564636Y-122793922D02*
X159612256Y-122841541D01*
X159612256Y-122841541D02*
X159659875Y-122984398D01*
X159659875Y-122984398D02*
X159659875Y-123079636D01*
X159659875Y-123079636D02*
X159612256Y-123222493D01*
X159612256Y-123222493D02*
X159517017Y-123317731D01*
X159517017Y-123317731D02*
X159421779Y-123365350D01*
X159421779Y-123365350D02*
X159231303Y-123412969D01*
X159231303Y-123412969D02*
X159088446Y-123412969D01*
X159088446Y-123412969D02*
X158897970Y-123365350D01*
X158897970Y-123365350D02*
X158802732Y-123317731D01*
X158802732Y-123317731D02*
X158707494Y-123222493D01*
X158707494Y-123222493D02*
X158659875Y-123079636D01*
X158659875Y-123079636D02*
X158659875Y-122984398D01*
X158659875Y-122984398D02*
X158707494Y-122841541D01*
X158707494Y-122841541D02*
X158755113Y-122793922D01*
X159136065Y-122032017D02*
X159183684Y-121889160D01*
X159183684Y-121889160D02*
X159231303Y-121841541D01*
X159231303Y-121841541D02*
X159326541Y-121793922D01*
X159326541Y-121793922D02*
X159469398Y-121793922D01*
X159469398Y-121793922D02*
X159564636Y-121841541D01*
X159564636Y-121841541D02*
X159612256Y-121889160D01*
X159612256Y-121889160D02*
X159659875Y-121984398D01*
X159659875Y-121984398D02*
X159659875Y-122365350D01*
X159659875Y-122365350D02*
X158659875Y-122365350D01*
X158659875Y-122365350D02*
X158659875Y-122032017D01*
X158659875Y-122032017D02*
X158707494Y-121936779D01*
X158707494Y-121936779D02*
X158755113Y-121889160D01*
X158755113Y-121889160D02*
X158850351Y-121841541D01*
X158850351Y-121841541D02*
X158945589Y-121841541D01*
X158945589Y-121841541D02*
X159040827Y-121889160D01*
X159040827Y-121889160D02*
X159088446Y-121936779D01*
X159088446Y-121936779D02*
X159136065Y-122032017D01*
X159136065Y-122032017D02*
X159136065Y-122365350D01*
X159564636Y-120032017D02*
X159612256Y-120079636D01*
X159612256Y-120079636D02*
X159659875Y-120222493D01*
X159659875Y-120222493D02*
X159659875Y-120317731D01*
X159659875Y-120317731D02*
X159612256Y-120460588D01*
X159612256Y-120460588D02*
X159517017Y-120555826D01*
X159517017Y-120555826D02*
X159421779Y-120603445D01*
X159421779Y-120603445D02*
X159231303Y-120651064D01*
X159231303Y-120651064D02*
X159088446Y-120651064D01*
X159088446Y-120651064D02*
X158897970Y-120603445D01*
X158897970Y-120603445D02*
X158802732Y-120555826D01*
X158802732Y-120555826D02*
X158707494Y-120460588D01*
X158707494Y-120460588D02*
X158659875Y-120317731D01*
X158659875Y-120317731D02*
X158659875Y-120222493D01*
X158659875Y-120222493D02*
X158707494Y-120079636D01*
X158707494Y-120079636D02*
X158755113Y-120032017D01*
X158659875Y-119412969D02*
X158659875Y-119222493D01*
X158659875Y-119222493D02*
X158707494Y-119127255D01*
X158707494Y-119127255D02*
X158802732Y-119032017D01*
X158802732Y-119032017D02*
X158993208Y-118984398D01*
X158993208Y-118984398D02*
X159326541Y-118984398D01*
X159326541Y-118984398D02*
X159517017Y-119032017D01*
X159517017Y-119032017D02*
X159612256Y-119127255D01*
X159612256Y-119127255D02*
X159659875Y-119222493D01*
X159659875Y-119222493D02*
X159659875Y-119412969D01*
X159659875Y-119412969D02*
X159612256Y-119508207D01*
X159612256Y-119508207D02*
X159517017Y-119603445D01*
X159517017Y-119603445D02*
X159326541Y-119651064D01*
X159326541Y-119651064D02*
X158993208Y-119651064D01*
X158993208Y-119651064D02*
X158802732Y-119603445D01*
X158802732Y-119603445D02*
X158707494Y-119508207D01*
X158707494Y-119508207D02*
X158659875Y-119412969D01*
X159659875Y-118555826D02*
X158659875Y-118555826D01*
X158659875Y-118555826D02*
X159659875Y-117984398D01*
X159659875Y-117984398D02*
X158659875Y-117984398D01*
X159659875Y-117508207D02*
X158659875Y-117508207D01*
X158659875Y-117508207D02*
X159659875Y-116936779D01*
X159659875Y-116936779D02*
X158659875Y-116936779D01*
X160746009Y-124984398D02*
X160746009Y-125317731D01*
X161269819Y-125317731D02*
X160269819Y-125317731D01*
X160269819Y-125317731D02*
X160269819Y-124841541D01*
X161269819Y-123889160D02*
X160793628Y-124222493D01*
X161269819Y-124460588D02*
X160269819Y-124460588D01*
X160269819Y-124460588D02*
X160269819Y-124079636D01*
X160269819Y-124079636D02*
X160317438Y-123984398D01*
X160317438Y-123984398D02*
X160365057Y-123936779D01*
X160365057Y-123936779D02*
X160460295Y-123889160D01*
X160460295Y-123889160D02*
X160603152Y-123889160D01*
X160603152Y-123889160D02*
X160698390Y-123936779D01*
X160698390Y-123936779D02*
X160746009Y-123984398D01*
X160746009Y-123984398D02*
X160793628Y-124079636D01*
X160793628Y-124079636D02*
X160793628Y-124460588D01*
X160269819Y-123270112D02*
X160269819Y-123079636D01*
X160269819Y-123079636D02*
X160317438Y-122984398D01*
X160317438Y-122984398D02*
X160412676Y-122889160D01*
X160412676Y-122889160D02*
X160603152Y-122841541D01*
X160603152Y-122841541D02*
X160936485Y-122841541D01*
X160936485Y-122841541D02*
X161126961Y-122889160D01*
X161126961Y-122889160D02*
X161222200Y-122984398D01*
X161222200Y-122984398D02*
X161269819Y-123079636D01*
X161269819Y-123079636D02*
X161269819Y-123270112D01*
X161269819Y-123270112D02*
X161222200Y-123365350D01*
X161222200Y-123365350D02*
X161126961Y-123460588D01*
X161126961Y-123460588D02*
X160936485Y-123508207D01*
X160936485Y-123508207D02*
X160603152Y-123508207D01*
X160603152Y-123508207D02*
X160412676Y-123460588D01*
X160412676Y-123460588D02*
X160317438Y-123365350D01*
X160317438Y-123365350D02*
X160269819Y-123270112D01*
X161269819Y-122412969D02*
X160269819Y-122412969D01*
X160269819Y-122412969D02*
X161269819Y-121841541D01*
X161269819Y-121841541D02*
X160269819Y-121841541D01*
X160269819Y-121508207D02*
X160269819Y-120936779D01*
X161269819Y-121222493D02*
X160269819Y-121222493D01*
X160269819Y-119984397D02*
X161269819Y-119651064D01*
X161269819Y-119651064D02*
X160269819Y-119317731D01*
X161269819Y-118984397D02*
X160269819Y-118984397D01*
X160746009Y-118508207D02*
X160746009Y-118174874D01*
X161269819Y-118032017D02*
X161269819Y-118508207D01*
X161269819Y-118508207D02*
X160269819Y-118508207D01*
X160269819Y-118508207D02*
X160269819Y-118032017D01*
X160269819Y-117698683D02*
X161269819Y-117460588D01*
X161269819Y-117460588D02*
X160555533Y-117270112D01*
X160555533Y-117270112D02*
X161269819Y-117079636D01*
X161269819Y-117079636D02*
X160269819Y-116841541D01*
X158369819Y-111158458D02*
X158369819Y-110539411D01*
X158369819Y-110539411D02*
X158750771Y-110872744D01*
X158750771Y-110872744D02*
X158750771Y-110729887D01*
X158750771Y-110729887D02*
X158798390Y-110634649D01*
X158798390Y-110634649D02*
X158846009Y-110587030D01*
X158846009Y-110587030D02*
X158941247Y-110539411D01*
X158941247Y-110539411D02*
X159179342Y-110539411D01*
X159179342Y-110539411D02*
X159274580Y-110587030D01*
X159274580Y-110587030D02*
X159322200Y-110634649D01*
X159322200Y-110634649D02*
X159369819Y-110729887D01*
X159369819Y-110729887D02*
X159369819Y-111015601D01*
X159369819Y-111015601D02*
X159322200Y-111110839D01*
X159322200Y-111110839D02*
X159274580Y-111158458D01*
X88889160Y-120565057D02*
X88936779Y-120517438D01*
X88936779Y-120517438D02*
X89032017Y-120469819D01*
X89032017Y-120469819D02*
X89270112Y-120469819D01*
X89270112Y-120469819D02*
X89365350Y-120517438D01*
X89365350Y-120517438D02*
X89412969Y-120565057D01*
X89412969Y-120565057D02*
X89460588Y-120660295D01*
X89460588Y-120660295D02*
X89460588Y-120755533D01*
X89460588Y-120755533D02*
X89412969Y-120898390D01*
X89412969Y-120898390D02*
X88841541Y-121469819D01*
X88841541Y-121469819D02*
X89460588Y-121469819D01*
D14*
X109981261Y-55644140D02*
X110028880Y-55548902D01*
X110028880Y-55548902D02*
X110028880Y-55406045D01*
X110028880Y-55406045D02*
X109981261Y-55263188D01*
X109981261Y-55263188D02*
X109886023Y-55167950D01*
X109886023Y-55167950D02*
X109790785Y-55120331D01*
X109790785Y-55120331D02*
X109600309Y-55072712D01*
X109600309Y-55072712D02*
X109457452Y-55072712D01*
X109457452Y-55072712D02*
X109266976Y-55120331D01*
X109266976Y-55120331D02*
X109171738Y-55167950D01*
X109171738Y-55167950D02*
X109076500Y-55263188D01*
X109076500Y-55263188D02*
X109028880Y-55406045D01*
X109028880Y-55406045D02*
X109028880Y-55501283D01*
X109028880Y-55501283D02*
X109076500Y-55644140D01*
X109076500Y-55644140D02*
X109124119Y-55691759D01*
X109124119Y-55691759D02*
X109457452Y-55691759D01*
X109457452Y-55691759D02*
X109457452Y-55501283D01*
D13*
X76445863Y-131967219D02*
X76654197Y-132967219D01*
X76654197Y-132967219D02*
X77112530Y-131967219D01*
X77844673Y-132967219D02*
X77273244Y-132967219D01*
X77558959Y-132967219D02*
X77683959Y-131967219D01*
X77683959Y-131967219D02*
X77570863Y-132110076D01*
X77570863Y-132110076D02*
X77463721Y-132205314D01*
X77463721Y-132205314D02*
X77362530Y-132252933D01*
D12*
X158465057Y-113110839D02*
X158417438Y-113063220D01*
X158417438Y-113063220D02*
X158369819Y-112967982D01*
X158369819Y-112967982D02*
X158369819Y-112729887D01*
X158369819Y-112729887D02*
X158417438Y-112634649D01*
X158417438Y-112634649D02*
X158465057Y-112587030D01*
X158465057Y-112587030D02*
X158560295Y-112539411D01*
X158560295Y-112539411D02*
X158655533Y-112539411D01*
X158655533Y-112539411D02*
X158798390Y-112587030D01*
X158798390Y-112587030D02*
X159369819Y-113158458D01*
X159369819Y-113158458D02*
X159369819Y-112539411D01*
X159369819Y-114539411D02*
X159369819Y-115110839D01*
X159369819Y-114825125D02*
X158369819Y-114825125D01*
X158369819Y-114825125D02*
X158512676Y-114920363D01*
X158512676Y-114920363D02*
X158607914Y-115015601D01*
X158607914Y-115015601D02*
X158655533Y-115110839D01*
X160417438Y-112639411D02*
X160369819Y-112734649D01*
X160369819Y-112734649D02*
X160369819Y-112877506D01*
X160369819Y-112877506D02*
X160417438Y-113020363D01*
X160417438Y-113020363D02*
X160512676Y-113115601D01*
X160512676Y-113115601D02*
X160607914Y-113163220D01*
X160607914Y-113163220D02*
X160798390Y-113210839D01*
X160798390Y-113210839D02*
X160941247Y-113210839D01*
X160941247Y-113210839D02*
X161131723Y-113163220D01*
X161131723Y-113163220D02*
X161226961Y-113115601D01*
X161226961Y-113115601D02*
X161322200Y-113020363D01*
X161322200Y-113020363D02*
X161369819Y-112877506D01*
X161369819Y-112877506D02*
X161369819Y-112782268D01*
X161369819Y-112782268D02*
X161322200Y-112639411D01*
X161322200Y-112639411D02*
X161274580Y-112591792D01*
X161274580Y-112591792D02*
X160941247Y-112591792D01*
X160941247Y-112591792D02*
X160941247Y-112782268D01*
X132157142Y-97254819D02*
X131823809Y-96778628D01*
X131585714Y-97254819D02*
X131585714Y-96254819D01*
X131585714Y-96254819D02*
X131966666Y-96254819D01*
X131966666Y-96254819D02*
X132061904Y-96302438D01*
X132061904Y-96302438D02*
X132109523Y-96350057D01*
X132109523Y-96350057D02*
X132157142Y-96445295D01*
X132157142Y-96445295D02*
X132157142Y-96588152D01*
X132157142Y-96588152D02*
X132109523Y-96683390D01*
X132109523Y-96683390D02*
X132061904Y-96731009D01*
X132061904Y-96731009D02*
X131966666Y-96778628D01*
X131966666Y-96778628D02*
X131585714Y-96778628D01*
X133109523Y-97254819D02*
X132538095Y-97254819D01*
X132823809Y-97254819D02*
X132823809Y-96254819D01*
X132823809Y-96254819D02*
X132728571Y-96397676D01*
X132728571Y-96397676D02*
X132633333Y-96492914D01*
X132633333Y-96492914D02*
X132538095Y-96540533D01*
X134061904Y-97254819D02*
X133490476Y-97254819D01*
X133776190Y-97254819D02*
X133776190Y-96254819D01*
X133776190Y-96254819D02*
X133680952Y-96397676D01*
X133680952Y-96397676D02*
X133585714Y-96492914D01*
X133585714Y-96492914D02*
X133490476Y-96540533D01*
X108333333Y-74859580D02*
X108285714Y-74907200D01*
X108285714Y-74907200D02*
X108142857Y-74954819D01*
X108142857Y-74954819D02*
X108047619Y-74954819D01*
X108047619Y-74954819D02*
X107904762Y-74907200D01*
X107904762Y-74907200D02*
X107809524Y-74811961D01*
X107809524Y-74811961D02*
X107761905Y-74716723D01*
X107761905Y-74716723D02*
X107714286Y-74526247D01*
X107714286Y-74526247D02*
X107714286Y-74383390D01*
X107714286Y-74383390D02*
X107761905Y-74192914D01*
X107761905Y-74192914D02*
X107809524Y-74097676D01*
X107809524Y-74097676D02*
X107904762Y-74002438D01*
X107904762Y-74002438D02*
X108047619Y-73954819D01*
X108047619Y-73954819D02*
X108142857Y-73954819D01*
X108142857Y-73954819D02*
X108285714Y-74002438D01*
X108285714Y-74002438D02*
X108333333Y-74050057D01*
X109190476Y-74288152D02*
X109190476Y-74954819D01*
X108952381Y-73907200D02*
X108714286Y-74621485D01*
X108714286Y-74621485D02*
X109333333Y-74621485D01*
X68490476Y-70751009D02*
X68157143Y-70751009D01*
X68157143Y-71274819D02*
X68157143Y-70274819D01*
X68157143Y-70274819D02*
X68633333Y-70274819D01*
X69538095Y-71274819D02*
X68966667Y-71274819D01*
X69252381Y-71274819D02*
X69252381Y-70274819D01*
X69252381Y-70274819D02*
X69157143Y-70417676D01*
X69157143Y-70417676D02*
X69061905Y-70512914D01*
X69061905Y-70512914D02*
X68966667Y-70560533D01*
X70395238Y-70274819D02*
X70204762Y-70274819D01*
X70204762Y-70274819D02*
X70109524Y-70322438D01*
X70109524Y-70322438D02*
X70061905Y-70370057D01*
X70061905Y-70370057D02*
X69966667Y-70512914D01*
X69966667Y-70512914D02*
X69919048Y-70703390D01*
X69919048Y-70703390D02*
X69919048Y-71084342D01*
X69919048Y-71084342D02*
X69966667Y-71179580D01*
X69966667Y-71179580D02*
X70014286Y-71227200D01*
X70014286Y-71227200D02*
X70109524Y-71274819D01*
X70109524Y-71274819D02*
X70300000Y-71274819D01*
X70300000Y-71274819D02*
X70395238Y-71227200D01*
X70395238Y-71227200D02*
X70442857Y-71179580D01*
X70442857Y-71179580D02*
X70490476Y-71084342D01*
X70490476Y-71084342D02*
X70490476Y-70846247D01*
X70490476Y-70846247D02*
X70442857Y-70751009D01*
X70442857Y-70751009D02*
X70395238Y-70703390D01*
X70395238Y-70703390D02*
X70300000Y-70655771D01*
X70300000Y-70655771D02*
X70109524Y-70655771D01*
X70109524Y-70655771D02*
X70014286Y-70703390D01*
X70014286Y-70703390D02*
X69966667Y-70751009D01*
X69966667Y-70751009D02*
X69919048Y-70846247D01*
X68502976Y-84751009D02*
X68169643Y-84751009D01*
X68169643Y-85274819D02*
X68169643Y-84274819D01*
X68169643Y-84274819D02*
X68645833Y-84274819D01*
X69550595Y-85274819D02*
X68979167Y-85274819D01*
X69264881Y-85274819D02*
X69264881Y-84274819D01*
X69264881Y-84274819D02*
X69169643Y-84417676D01*
X69169643Y-84417676D02*
X69074405Y-84512914D01*
X69074405Y-84512914D02*
X68979167Y-84560533D01*
X69931548Y-84370057D02*
X69979167Y-84322438D01*
X69979167Y-84322438D02*
X70074405Y-84274819D01*
X70074405Y-84274819D02*
X70312500Y-84274819D01*
X70312500Y-84274819D02*
X70407738Y-84322438D01*
X70407738Y-84322438D02*
X70455357Y-84370057D01*
X70455357Y-84370057D02*
X70502976Y-84465295D01*
X70502976Y-84465295D02*
X70502976Y-84560533D01*
X70502976Y-84560533D02*
X70455357Y-84703390D01*
X70455357Y-84703390D02*
X69883929Y-85274819D01*
X69883929Y-85274819D02*
X70502976Y-85274819D01*
X68966666Y-119751009D02*
X68633333Y-119751009D01*
X68633333Y-120274819D02*
X68633333Y-119274819D01*
X68633333Y-119274819D02*
X69109523Y-119274819D01*
X69442857Y-119370057D02*
X69490476Y-119322438D01*
X69490476Y-119322438D02*
X69585714Y-119274819D01*
X69585714Y-119274819D02*
X69823809Y-119274819D01*
X69823809Y-119274819D02*
X69919047Y-119322438D01*
X69919047Y-119322438D02*
X69966666Y-119370057D01*
X69966666Y-119370057D02*
X70014285Y-119465295D01*
X70014285Y-119465295D02*
X70014285Y-119560533D01*
X70014285Y-119560533D02*
X69966666Y-119703390D01*
X69966666Y-119703390D02*
X69395238Y-120274819D01*
X69395238Y-120274819D02*
X70014285Y-120274819D01*
X68979166Y-116251009D02*
X68645833Y-116251009D01*
X68645833Y-116774819D02*
X68645833Y-115774819D01*
X68645833Y-115774819D02*
X69122023Y-115774819D01*
X69407738Y-115774819D02*
X70026785Y-115774819D01*
X70026785Y-115774819D02*
X69693452Y-116155771D01*
X69693452Y-116155771D02*
X69836309Y-116155771D01*
X69836309Y-116155771D02*
X69931547Y-116203390D01*
X69931547Y-116203390D02*
X69979166Y-116251009D01*
X69979166Y-116251009D02*
X70026785Y-116346247D01*
X70026785Y-116346247D02*
X70026785Y-116584342D01*
X70026785Y-116584342D02*
X69979166Y-116679580D01*
X69979166Y-116679580D02*
X69931547Y-116727200D01*
X69931547Y-116727200D02*
X69836309Y-116774819D01*
X69836309Y-116774819D02*
X69550595Y-116774819D01*
X69550595Y-116774819D02*
X69455357Y-116727200D01*
X69455357Y-116727200D02*
X69407738Y-116679580D01*
X150557142Y-89404819D02*
X150223809Y-88928628D01*
X149985714Y-89404819D02*
X149985714Y-88404819D01*
X149985714Y-88404819D02*
X150366666Y-88404819D01*
X150366666Y-88404819D02*
X150461904Y-88452438D01*
X150461904Y-88452438D02*
X150509523Y-88500057D01*
X150509523Y-88500057D02*
X150557142Y-88595295D01*
X150557142Y-88595295D02*
X150557142Y-88738152D01*
X150557142Y-88738152D02*
X150509523Y-88833390D01*
X150509523Y-88833390D02*
X150461904Y-88881009D01*
X150461904Y-88881009D02*
X150366666Y-88928628D01*
X150366666Y-88928628D02*
X149985714Y-88928628D01*
X151509523Y-89404819D02*
X150938095Y-89404819D01*
X151223809Y-89404819D02*
X151223809Y-88404819D01*
X151223809Y-88404819D02*
X151128571Y-88547676D01*
X151128571Y-88547676D02*
X151033333Y-88642914D01*
X151033333Y-88642914D02*
X150938095Y-88690533D01*
X151842857Y-88404819D02*
X152509523Y-88404819D01*
X152509523Y-88404819D02*
X152080952Y-89404819D01*
X100066666Y-59854819D02*
X100066666Y-60569104D01*
X100066666Y-60569104D02*
X100019047Y-60711961D01*
X100019047Y-60711961D02*
X99923809Y-60807200D01*
X99923809Y-60807200D02*
X99780952Y-60854819D01*
X99780952Y-60854819D02*
X99685714Y-60854819D01*
X101019047Y-59854819D02*
X100542857Y-59854819D01*
X100542857Y-59854819D02*
X100495238Y-60331009D01*
X100495238Y-60331009D02*
X100542857Y-60283390D01*
X100542857Y-60283390D02*
X100638095Y-60235771D01*
X100638095Y-60235771D02*
X100876190Y-60235771D01*
X100876190Y-60235771D02*
X100971428Y-60283390D01*
X100971428Y-60283390D02*
X101019047Y-60331009D01*
X101019047Y-60331009D02*
X101066666Y-60426247D01*
X101066666Y-60426247D02*
X101066666Y-60664342D01*
X101066666Y-60664342D02*
X101019047Y-60759580D01*
X101019047Y-60759580D02*
X100971428Y-60807200D01*
X100971428Y-60807200D02*
X100876190Y-60854819D01*
X100876190Y-60854819D02*
X100638095Y-60854819D01*
X100638095Y-60854819D02*
X100542857Y-60807200D01*
X100542857Y-60807200D02*
X100495238Y-60759580D01*
X132633333Y-90654819D02*
X132300000Y-90178628D01*
X132061905Y-90654819D02*
X132061905Y-89654819D01*
X132061905Y-89654819D02*
X132442857Y-89654819D01*
X132442857Y-89654819D02*
X132538095Y-89702438D01*
X132538095Y-89702438D02*
X132585714Y-89750057D01*
X132585714Y-89750057D02*
X132633333Y-89845295D01*
X132633333Y-89845295D02*
X132633333Y-89988152D01*
X132633333Y-89988152D02*
X132585714Y-90083390D01*
X132585714Y-90083390D02*
X132538095Y-90131009D01*
X132538095Y-90131009D02*
X132442857Y-90178628D01*
X132442857Y-90178628D02*
X132061905Y-90178628D01*
X133490476Y-89654819D02*
X133300000Y-89654819D01*
X133300000Y-89654819D02*
X133204762Y-89702438D01*
X133204762Y-89702438D02*
X133157143Y-89750057D01*
X133157143Y-89750057D02*
X133061905Y-89892914D01*
X133061905Y-89892914D02*
X133014286Y-90083390D01*
X133014286Y-90083390D02*
X133014286Y-90464342D01*
X133014286Y-90464342D02*
X133061905Y-90559580D01*
X133061905Y-90559580D02*
X133109524Y-90607200D01*
X133109524Y-90607200D02*
X133204762Y-90654819D01*
X133204762Y-90654819D02*
X133395238Y-90654819D01*
X133395238Y-90654819D02*
X133490476Y-90607200D01*
X133490476Y-90607200D02*
X133538095Y-90559580D01*
X133538095Y-90559580D02*
X133585714Y-90464342D01*
X133585714Y-90464342D02*
X133585714Y-90226247D01*
X133585714Y-90226247D02*
X133538095Y-90131009D01*
X133538095Y-90131009D02*
X133490476Y-90083390D01*
X133490476Y-90083390D02*
X133395238Y-90035771D01*
X133395238Y-90035771D02*
X133204762Y-90035771D01*
X133204762Y-90035771D02*
X133109524Y-90083390D01*
X133109524Y-90083390D02*
X133061905Y-90131009D01*
X133061905Y-90131009D02*
X133014286Y-90226247D01*
X138157142Y-97254819D02*
X137823809Y-96778628D01*
X137585714Y-97254819D02*
X137585714Y-96254819D01*
X137585714Y-96254819D02*
X137966666Y-96254819D01*
X137966666Y-96254819D02*
X138061904Y-96302438D01*
X138061904Y-96302438D02*
X138109523Y-96350057D01*
X138109523Y-96350057D02*
X138157142Y-96445295D01*
X138157142Y-96445295D02*
X138157142Y-96588152D01*
X138157142Y-96588152D02*
X138109523Y-96683390D01*
X138109523Y-96683390D02*
X138061904Y-96731009D01*
X138061904Y-96731009D02*
X137966666Y-96778628D01*
X137966666Y-96778628D02*
X137585714Y-96778628D01*
X139109523Y-97254819D02*
X138538095Y-97254819D01*
X138823809Y-97254819D02*
X138823809Y-96254819D01*
X138823809Y-96254819D02*
X138728571Y-96397676D01*
X138728571Y-96397676D02*
X138633333Y-96492914D01*
X138633333Y-96492914D02*
X138538095Y-96540533D01*
X139442857Y-96254819D02*
X140061904Y-96254819D01*
X140061904Y-96254819D02*
X139728571Y-96635771D01*
X139728571Y-96635771D02*
X139871428Y-96635771D01*
X139871428Y-96635771D02*
X139966666Y-96683390D01*
X139966666Y-96683390D02*
X140014285Y-96731009D01*
X140014285Y-96731009D02*
X140061904Y-96826247D01*
X140061904Y-96826247D02*
X140061904Y-97064342D01*
X140061904Y-97064342D02*
X140014285Y-97159580D01*
X140014285Y-97159580D02*
X139966666Y-97207200D01*
X139966666Y-97207200D02*
X139871428Y-97254819D01*
X139871428Y-97254819D02*
X139585714Y-97254819D01*
X139585714Y-97254819D02*
X139490476Y-97207200D01*
X139490476Y-97207200D02*
X139442857Y-97159580D01*
X68979166Y-112751009D02*
X68645833Y-112751009D01*
X68645833Y-113274819D02*
X68645833Y-112274819D01*
X68645833Y-112274819D02*
X69122023Y-112274819D01*
X69931547Y-112608152D02*
X69931547Y-113274819D01*
X69693452Y-112227200D02*
X69455357Y-112941485D01*
X69455357Y-112941485D02*
X70074404Y-112941485D01*
X83038095Y-78654819D02*
X83038095Y-79464342D01*
X83038095Y-79464342D02*
X83085714Y-79559580D01*
X83085714Y-79559580D02*
X83133333Y-79607200D01*
X83133333Y-79607200D02*
X83228571Y-79654819D01*
X83228571Y-79654819D02*
X83419047Y-79654819D01*
X83419047Y-79654819D02*
X83514285Y-79607200D01*
X83514285Y-79607200D02*
X83561904Y-79559580D01*
X83561904Y-79559580D02*
X83609523Y-79464342D01*
X83609523Y-79464342D02*
X83609523Y-78654819D01*
X84514285Y-78988152D02*
X84514285Y-79654819D01*
X84276190Y-78607200D02*
X84038095Y-79321485D01*
X84038095Y-79321485D02*
X84657142Y-79321485D01*
X68502976Y-88251009D02*
X68169643Y-88251009D01*
X68169643Y-88774819D02*
X68169643Y-87774819D01*
X68169643Y-87774819D02*
X68645833Y-87774819D01*
X69550595Y-88774819D02*
X68979167Y-88774819D01*
X69264881Y-88774819D02*
X69264881Y-87774819D01*
X69264881Y-87774819D02*
X69169643Y-87917676D01*
X69169643Y-87917676D02*
X69074405Y-88012914D01*
X69074405Y-88012914D02*
X68979167Y-88060533D01*
X70502976Y-88774819D02*
X69931548Y-88774819D01*
X70217262Y-88774819D02*
X70217262Y-87774819D01*
X70217262Y-87774819D02*
X70122024Y-87917676D01*
X70122024Y-87917676D02*
X70026786Y-88012914D01*
X70026786Y-88012914D02*
X69931548Y-88060533D01*
X68502976Y-74251009D02*
X68169643Y-74251009D01*
X68169643Y-74774819D02*
X68169643Y-73774819D01*
X68169643Y-73774819D02*
X68645833Y-73774819D01*
X69550595Y-74774819D02*
X68979167Y-74774819D01*
X69264881Y-74774819D02*
X69264881Y-73774819D01*
X69264881Y-73774819D02*
X69169643Y-73917676D01*
X69169643Y-73917676D02*
X69074405Y-74012914D01*
X69074405Y-74012914D02*
X68979167Y-74060533D01*
X70455357Y-73774819D02*
X69979167Y-73774819D01*
X69979167Y-73774819D02*
X69931548Y-74251009D01*
X69931548Y-74251009D02*
X69979167Y-74203390D01*
X69979167Y-74203390D02*
X70074405Y-74155771D01*
X70074405Y-74155771D02*
X70312500Y-74155771D01*
X70312500Y-74155771D02*
X70407738Y-74203390D01*
X70407738Y-74203390D02*
X70455357Y-74251009D01*
X70455357Y-74251009D02*
X70502976Y-74346247D01*
X70502976Y-74346247D02*
X70502976Y-74584342D01*
X70502976Y-74584342D02*
X70455357Y-74679580D01*
X70455357Y-74679580D02*
X70407738Y-74727200D01*
X70407738Y-74727200D02*
X70312500Y-74774819D01*
X70312500Y-74774819D02*
X70074405Y-74774819D01*
X70074405Y-74774819D02*
X69979167Y-74727200D01*
X69979167Y-74727200D02*
X69931548Y-74679580D01*
X68490476Y-77751009D02*
X68157143Y-77751009D01*
X68157143Y-78274819D02*
X68157143Y-77274819D01*
X68157143Y-77274819D02*
X68633333Y-77274819D01*
X69538095Y-78274819D02*
X68966667Y-78274819D01*
X69252381Y-78274819D02*
X69252381Y-77274819D01*
X69252381Y-77274819D02*
X69157143Y-77417676D01*
X69157143Y-77417676D02*
X69061905Y-77512914D01*
X69061905Y-77512914D02*
X68966667Y-77560533D01*
X70395238Y-77608152D02*
X70395238Y-78274819D01*
X70157143Y-77227200D02*
X69919048Y-77941485D01*
X69919048Y-77941485D02*
X70538095Y-77941485D01*
X116304761Y-81250057D02*
X116209523Y-81202438D01*
X116209523Y-81202438D02*
X116114285Y-81107200D01*
X116114285Y-81107200D02*
X115971428Y-80964342D01*
X115971428Y-80964342D02*
X115876190Y-80916723D01*
X115876190Y-80916723D02*
X115780952Y-80916723D01*
X115828571Y-81154819D02*
X115733333Y-81107200D01*
X115733333Y-81107200D02*
X115638095Y-81011961D01*
X115638095Y-81011961D02*
X115590476Y-80821485D01*
X115590476Y-80821485D02*
X115590476Y-80488152D01*
X115590476Y-80488152D02*
X115638095Y-80297676D01*
X115638095Y-80297676D02*
X115733333Y-80202438D01*
X115733333Y-80202438D02*
X115828571Y-80154819D01*
X115828571Y-80154819D02*
X116019047Y-80154819D01*
X116019047Y-80154819D02*
X116114285Y-80202438D01*
X116114285Y-80202438D02*
X116209523Y-80297676D01*
X116209523Y-80297676D02*
X116257142Y-80488152D01*
X116257142Y-80488152D02*
X116257142Y-80821485D01*
X116257142Y-80821485D02*
X116209523Y-81011961D01*
X116209523Y-81011961D02*
X116114285Y-81107200D01*
X116114285Y-81107200D02*
X116019047Y-81154819D01*
X116019047Y-81154819D02*
X115828571Y-81154819D01*
X116638095Y-80250057D02*
X116685714Y-80202438D01*
X116685714Y-80202438D02*
X116780952Y-80154819D01*
X116780952Y-80154819D02*
X117019047Y-80154819D01*
X117019047Y-80154819D02*
X117114285Y-80202438D01*
X117114285Y-80202438D02*
X117161904Y-80250057D01*
X117161904Y-80250057D02*
X117209523Y-80345295D01*
X117209523Y-80345295D02*
X117209523Y-80440533D01*
X117209523Y-80440533D02*
X117161904Y-80583390D01*
X117161904Y-80583390D02*
X116590476Y-81154819D01*
X116590476Y-81154819D02*
X117209523Y-81154819D01*
X68979166Y-95251009D02*
X68645833Y-95251009D01*
X68645833Y-95774819D02*
X68645833Y-94774819D01*
X68645833Y-94774819D02*
X69122023Y-94774819D01*
X69550595Y-95774819D02*
X69741071Y-95774819D01*
X69741071Y-95774819D02*
X69836309Y-95727200D01*
X69836309Y-95727200D02*
X69883928Y-95679580D01*
X69883928Y-95679580D02*
X69979166Y-95536723D01*
X69979166Y-95536723D02*
X70026785Y-95346247D01*
X70026785Y-95346247D02*
X70026785Y-94965295D01*
X70026785Y-94965295D02*
X69979166Y-94870057D01*
X69979166Y-94870057D02*
X69931547Y-94822438D01*
X69931547Y-94822438D02*
X69836309Y-94774819D01*
X69836309Y-94774819D02*
X69645833Y-94774819D01*
X69645833Y-94774819D02*
X69550595Y-94822438D01*
X69550595Y-94822438D02*
X69502976Y-94870057D01*
X69502976Y-94870057D02*
X69455357Y-94965295D01*
X69455357Y-94965295D02*
X69455357Y-95203390D01*
X69455357Y-95203390D02*
X69502976Y-95298628D01*
X69502976Y-95298628D02*
X69550595Y-95346247D01*
X69550595Y-95346247D02*
X69645833Y-95393866D01*
X69645833Y-95393866D02*
X69836309Y-95393866D01*
X69836309Y-95393866D02*
X69931547Y-95346247D01*
X69931547Y-95346247D02*
X69979166Y-95298628D01*
X69979166Y-95298628D02*
X70026785Y-95203390D01*
X126633333Y-90654819D02*
X126300000Y-90178628D01*
X126061905Y-90654819D02*
X126061905Y-89654819D01*
X126061905Y-89654819D02*
X126442857Y-89654819D01*
X126442857Y-89654819D02*
X126538095Y-89702438D01*
X126538095Y-89702438D02*
X126585714Y-89750057D01*
X126585714Y-89750057D02*
X126633333Y-89845295D01*
X126633333Y-89845295D02*
X126633333Y-89988152D01*
X126633333Y-89988152D02*
X126585714Y-90083390D01*
X126585714Y-90083390D02*
X126538095Y-90131009D01*
X126538095Y-90131009D02*
X126442857Y-90178628D01*
X126442857Y-90178628D02*
X126061905Y-90178628D01*
X127204762Y-90083390D02*
X127109524Y-90035771D01*
X127109524Y-90035771D02*
X127061905Y-89988152D01*
X127061905Y-89988152D02*
X127014286Y-89892914D01*
X127014286Y-89892914D02*
X127014286Y-89845295D01*
X127014286Y-89845295D02*
X127061905Y-89750057D01*
X127061905Y-89750057D02*
X127109524Y-89702438D01*
X127109524Y-89702438D02*
X127204762Y-89654819D01*
X127204762Y-89654819D02*
X127395238Y-89654819D01*
X127395238Y-89654819D02*
X127490476Y-89702438D01*
X127490476Y-89702438D02*
X127538095Y-89750057D01*
X127538095Y-89750057D02*
X127585714Y-89845295D01*
X127585714Y-89845295D02*
X127585714Y-89892914D01*
X127585714Y-89892914D02*
X127538095Y-89988152D01*
X127538095Y-89988152D02*
X127490476Y-90035771D01*
X127490476Y-90035771D02*
X127395238Y-90083390D01*
X127395238Y-90083390D02*
X127204762Y-90083390D01*
X127204762Y-90083390D02*
X127109524Y-90131009D01*
X127109524Y-90131009D02*
X127061905Y-90178628D01*
X127061905Y-90178628D02*
X127014286Y-90273866D01*
X127014286Y-90273866D02*
X127014286Y-90464342D01*
X127014286Y-90464342D02*
X127061905Y-90559580D01*
X127061905Y-90559580D02*
X127109524Y-90607200D01*
X127109524Y-90607200D02*
X127204762Y-90654819D01*
X127204762Y-90654819D02*
X127395238Y-90654819D01*
X127395238Y-90654819D02*
X127490476Y-90607200D01*
X127490476Y-90607200D02*
X127538095Y-90559580D01*
X127538095Y-90559580D02*
X127585714Y-90464342D01*
X127585714Y-90464342D02*
X127585714Y-90273866D01*
X127585714Y-90273866D02*
X127538095Y-90178628D01*
X127538095Y-90178628D02*
X127490476Y-90131009D01*
X127490476Y-90131009D02*
X127395238Y-90083390D01*
X147633333Y-90654819D02*
X147300000Y-90178628D01*
X147061905Y-90654819D02*
X147061905Y-89654819D01*
X147061905Y-89654819D02*
X147442857Y-89654819D01*
X147442857Y-89654819D02*
X147538095Y-89702438D01*
X147538095Y-89702438D02*
X147585714Y-89750057D01*
X147585714Y-89750057D02*
X147633333Y-89845295D01*
X147633333Y-89845295D02*
X147633333Y-89988152D01*
X147633333Y-89988152D02*
X147585714Y-90083390D01*
X147585714Y-90083390D02*
X147538095Y-90131009D01*
X147538095Y-90131009D02*
X147442857Y-90178628D01*
X147442857Y-90178628D02*
X147061905Y-90178628D01*
X148585714Y-90654819D02*
X148014286Y-90654819D01*
X148300000Y-90654819D02*
X148300000Y-89654819D01*
X148300000Y-89654819D02*
X148204762Y-89797676D01*
X148204762Y-89797676D02*
X148109524Y-89892914D01*
X148109524Y-89892914D02*
X148014286Y-89940533D01*
X123566666Y-104854819D02*
X123566666Y-105569104D01*
X123566666Y-105569104D02*
X123519047Y-105711961D01*
X123519047Y-105711961D02*
X123423809Y-105807200D01*
X123423809Y-105807200D02*
X123280952Y-105854819D01*
X123280952Y-105854819D02*
X123185714Y-105854819D01*
X123995238Y-104950057D02*
X124042857Y-104902438D01*
X124042857Y-104902438D02*
X124138095Y-104854819D01*
X124138095Y-104854819D02*
X124376190Y-104854819D01*
X124376190Y-104854819D02*
X124471428Y-104902438D01*
X124471428Y-104902438D02*
X124519047Y-104950057D01*
X124519047Y-104950057D02*
X124566666Y-105045295D01*
X124566666Y-105045295D02*
X124566666Y-105140533D01*
X124566666Y-105140533D02*
X124519047Y-105283390D01*
X124519047Y-105283390D02*
X123947619Y-105854819D01*
X123947619Y-105854819D02*
X124566666Y-105854819D01*
X161604761Y-68450057D02*
X161509523Y-68402438D01*
X161509523Y-68402438D02*
X161414285Y-68307200D01*
X161414285Y-68307200D02*
X161271428Y-68164342D01*
X161271428Y-68164342D02*
X161176190Y-68116723D01*
X161176190Y-68116723D02*
X161080952Y-68116723D01*
X161128571Y-68354819D02*
X161033333Y-68307200D01*
X161033333Y-68307200D02*
X160938095Y-68211961D01*
X160938095Y-68211961D02*
X160890476Y-68021485D01*
X160890476Y-68021485D02*
X160890476Y-67688152D01*
X160890476Y-67688152D02*
X160938095Y-67497676D01*
X160938095Y-67497676D02*
X161033333Y-67402438D01*
X161033333Y-67402438D02*
X161128571Y-67354819D01*
X161128571Y-67354819D02*
X161319047Y-67354819D01*
X161319047Y-67354819D02*
X161414285Y-67402438D01*
X161414285Y-67402438D02*
X161509523Y-67497676D01*
X161509523Y-67497676D02*
X161557142Y-67688152D01*
X161557142Y-67688152D02*
X161557142Y-68021485D01*
X161557142Y-68021485D02*
X161509523Y-68211961D01*
X161509523Y-68211961D02*
X161414285Y-68307200D01*
X161414285Y-68307200D02*
X161319047Y-68354819D01*
X161319047Y-68354819D02*
X161128571Y-68354819D01*
X162509523Y-68354819D02*
X161938095Y-68354819D01*
X162223809Y-68354819D02*
X162223809Y-67354819D01*
X162223809Y-67354819D02*
X162128571Y-67497676D01*
X162128571Y-67497676D02*
X162033333Y-67592914D01*
X162033333Y-67592914D02*
X161938095Y-67640533D01*
X109157142Y-78454819D02*
X108823809Y-77978628D01*
X108585714Y-78454819D02*
X108585714Y-77454819D01*
X108585714Y-77454819D02*
X108966666Y-77454819D01*
X108966666Y-77454819D02*
X109061904Y-77502438D01*
X109061904Y-77502438D02*
X109109523Y-77550057D01*
X109109523Y-77550057D02*
X109157142Y-77645295D01*
X109157142Y-77645295D02*
X109157142Y-77788152D01*
X109157142Y-77788152D02*
X109109523Y-77883390D01*
X109109523Y-77883390D02*
X109061904Y-77931009D01*
X109061904Y-77931009D02*
X108966666Y-77978628D01*
X108966666Y-77978628D02*
X108585714Y-77978628D01*
X110109523Y-78454819D02*
X109538095Y-78454819D01*
X109823809Y-78454819D02*
X109823809Y-77454819D01*
X109823809Y-77454819D02*
X109728571Y-77597676D01*
X109728571Y-77597676D02*
X109633333Y-77692914D01*
X109633333Y-77692914D02*
X109538095Y-77740533D01*
X110680952Y-77883390D02*
X110585714Y-77835771D01*
X110585714Y-77835771D02*
X110538095Y-77788152D01*
X110538095Y-77788152D02*
X110490476Y-77692914D01*
X110490476Y-77692914D02*
X110490476Y-77645295D01*
X110490476Y-77645295D02*
X110538095Y-77550057D01*
X110538095Y-77550057D02*
X110585714Y-77502438D01*
X110585714Y-77502438D02*
X110680952Y-77454819D01*
X110680952Y-77454819D02*
X110871428Y-77454819D01*
X110871428Y-77454819D02*
X110966666Y-77502438D01*
X110966666Y-77502438D02*
X111014285Y-77550057D01*
X111014285Y-77550057D02*
X111061904Y-77645295D01*
X111061904Y-77645295D02*
X111061904Y-77692914D01*
X111061904Y-77692914D02*
X111014285Y-77788152D01*
X111014285Y-77788152D02*
X110966666Y-77835771D01*
X110966666Y-77835771D02*
X110871428Y-77883390D01*
X110871428Y-77883390D02*
X110680952Y-77883390D01*
X110680952Y-77883390D02*
X110585714Y-77931009D01*
X110585714Y-77931009D02*
X110538095Y-77978628D01*
X110538095Y-77978628D02*
X110490476Y-78073866D01*
X110490476Y-78073866D02*
X110490476Y-78264342D01*
X110490476Y-78264342D02*
X110538095Y-78359580D01*
X110538095Y-78359580D02*
X110585714Y-78407200D01*
X110585714Y-78407200D02*
X110680952Y-78454819D01*
X110680952Y-78454819D02*
X110871428Y-78454819D01*
X110871428Y-78454819D02*
X110966666Y-78407200D01*
X110966666Y-78407200D02*
X111014285Y-78359580D01*
X111014285Y-78359580D02*
X111061904Y-78264342D01*
X111061904Y-78264342D02*
X111061904Y-78073866D01*
X111061904Y-78073866D02*
X111014285Y-77978628D01*
X111014285Y-77978628D02*
X110966666Y-77931009D01*
X110966666Y-77931009D02*
X110871428Y-77883390D01*
X118538095Y-74654819D02*
X118538095Y-75464342D01*
X118538095Y-75464342D02*
X118585714Y-75559580D01*
X118585714Y-75559580D02*
X118633333Y-75607200D01*
X118633333Y-75607200D02*
X118728571Y-75654819D01*
X118728571Y-75654819D02*
X118919047Y-75654819D01*
X118919047Y-75654819D02*
X119014285Y-75607200D01*
X119014285Y-75607200D02*
X119061904Y-75559580D01*
X119061904Y-75559580D02*
X119109523Y-75464342D01*
X119109523Y-75464342D02*
X119109523Y-74654819D01*
X119490476Y-74654819D02*
X120109523Y-74654819D01*
X120109523Y-74654819D02*
X119776190Y-75035771D01*
X119776190Y-75035771D02*
X119919047Y-75035771D01*
X119919047Y-75035771D02*
X120014285Y-75083390D01*
X120014285Y-75083390D02*
X120061904Y-75131009D01*
X120061904Y-75131009D02*
X120109523Y-75226247D01*
X120109523Y-75226247D02*
X120109523Y-75464342D01*
X120109523Y-75464342D02*
X120061904Y-75559580D01*
X120061904Y-75559580D02*
X120014285Y-75607200D01*
X120014285Y-75607200D02*
X119919047Y-75654819D01*
X119919047Y-75654819D02*
X119633333Y-75654819D01*
X119633333Y-75654819D02*
X119538095Y-75607200D01*
X119538095Y-75607200D02*
X119490476Y-75559580D01*
X78333333Y-71159580D02*
X78285714Y-71207200D01*
X78285714Y-71207200D02*
X78142857Y-71254819D01*
X78142857Y-71254819D02*
X78047619Y-71254819D01*
X78047619Y-71254819D02*
X77904762Y-71207200D01*
X77904762Y-71207200D02*
X77809524Y-71111961D01*
X77809524Y-71111961D02*
X77761905Y-71016723D01*
X77761905Y-71016723D02*
X77714286Y-70826247D01*
X77714286Y-70826247D02*
X77714286Y-70683390D01*
X77714286Y-70683390D02*
X77761905Y-70492914D01*
X77761905Y-70492914D02*
X77809524Y-70397676D01*
X77809524Y-70397676D02*
X77904762Y-70302438D01*
X77904762Y-70302438D02*
X78047619Y-70254819D01*
X78047619Y-70254819D02*
X78142857Y-70254819D01*
X78142857Y-70254819D02*
X78285714Y-70302438D01*
X78285714Y-70302438D02*
X78333333Y-70350057D01*
X78666667Y-70254819D02*
X79285714Y-70254819D01*
X79285714Y-70254819D02*
X78952381Y-70635771D01*
X78952381Y-70635771D02*
X79095238Y-70635771D01*
X79095238Y-70635771D02*
X79190476Y-70683390D01*
X79190476Y-70683390D02*
X79238095Y-70731009D01*
X79238095Y-70731009D02*
X79285714Y-70826247D01*
X79285714Y-70826247D02*
X79285714Y-71064342D01*
X79285714Y-71064342D02*
X79238095Y-71159580D01*
X79238095Y-71159580D02*
X79190476Y-71207200D01*
X79190476Y-71207200D02*
X79095238Y-71254819D01*
X79095238Y-71254819D02*
X78809524Y-71254819D01*
X78809524Y-71254819D02*
X78714286Y-71207200D01*
X78714286Y-71207200D02*
X78666667Y-71159580D01*
X73354819Y-62633333D02*
X74069104Y-62633333D01*
X74069104Y-62633333D02*
X74211961Y-62680952D01*
X74211961Y-62680952D02*
X74307200Y-62776190D01*
X74307200Y-62776190D02*
X74354819Y-62919047D01*
X74354819Y-62919047D02*
X74354819Y-63014285D01*
X73688152Y-61728571D02*
X74354819Y-61728571D01*
X73307200Y-61966666D02*
X74021485Y-62204761D01*
X74021485Y-62204761D02*
X74021485Y-61585714D01*
X129633333Y-90654819D02*
X129300000Y-90178628D01*
X129061905Y-90654819D02*
X129061905Y-89654819D01*
X129061905Y-89654819D02*
X129442857Y-89654819D01*
X129442857Y-89654819D02*
X129538095Y-89702438D01*
X129538095Y-89702438D02*
X129585714Y-89750057D01*
X129585714Y-89750057D02*
X129633333Y-89845295D01*
X129633333Y-89845295D02*
X129633333Y-89988152D01*
X129633333Y-89988152D02*
X129585714Y-90083390D01*
X129585714Y-90083390D02*
X129538095Y-90131009D01*
X129538095Y-90131009D02*
X129442857Y-90178628D01*
X129442857Y-90178628D02*
X129061905Y-90178628D01*
X129966667Y-89654819D02*
X130633333Y-89654819D01*
X130633333Y-89654819D02*
X130204762Y-90654819D01*
X123466666Y-80954819D02*
X123466666Y-81669104D01*
X123466666Y-81669104D02*
X123419047Y-81811961D01*
X123419047Y-81811961D02*
X123323809Y-81907200D01*
X123323809Y-81907200D02*
X123180952Y-81954819D01*
X123180952Y-81954819D02*
X123085714Y-81954819D01*
X124466666Y-81954819D02*
X123895238Y-81954819D01*
X124180952Y-81954819D02*
X124180952Y-80954819D01*
X124180952Y-80954819D02*
X124085714Y-81097676D01*
X124085714Y-81097676D02*
X123990476Y-81192914D01*
X123990476Y-81192914D02*
X123895238Y-81240533D01*
X155638095Y-92054819D02*
X155638095Y-92864342D01*
X155638095Y-92864342D02*
X155685714Y-92959580D01*
X155685714Y-92959580D02*
X155733333Y-93007200D01*
X155733333Y-93007200D02*
X155828571Y-93054819D01*
X155828571Y-93054819D02*
X156019047Y-93054819D01*
X156019047Y-93054819D02*
X156114285Y-93007200D01*
X156114285Y-93007200D02*
X156161904Y-92959580D01*
X156161904Y-92959580D02*
X156209523Y-92864342D01*
X156209523Y-92864342D02*
X156209523Y-92054819D01*
X156638095Y-92150057D02*
X156685714Y-92102438D01*
X156685714Y-92102438D02*
X156780952Y-92054819D01*
X156780952Y-92054819D02*
X157019047Y-92054819D01*
X157019047Y-92054819D02*
X157114285Y-92102438D01*
X157114285Y-92102438D02*
X157161904Y-92150057D01*
X157161904Y-92150057D02*
X157209523Y-92245295D01*
X157209523Y-92245295D02*
X157209523Y-92340533D01*
X157209523Y-92340533D02*
X157161904Y-92483390D01*
X157161904Y-92483390D02*
X156590476Y-93054819D01*
X156590476Y-93054819D02*
X157209523Y-93054819D01*
X126533333Y-97254819D02*
X126200000Y-96778628D01*
X125961905Y-97254819D02*
X125961905Y-96254819D01*
X125961905Y-96254819D02*
X126342857Y-96254819D01*
X126342857Y-96254819D02*
X126438095Y-96302438D01*
X126438095Y-96302438D02*
X126485714Y-96350057D01*
X126485714Y-96350057D02*
X126533333Y-96445295D01*
X126533333Y-96445295D02*
X126533333Y-96588152D01*
X126533333Y-96588152D02*
X126485714Y-96683390D01*
X126485714Y-96683390D02*
X126438095Y-96731009D01*
X126438095Y-96731009D02*
X126342857Y-96778628D01*
X126342857Y-96778628D02*
X125961905Y-96778628D01*
X127009524Y-97254819D02*
X127200000Y-97254819D01*
X127200000Y-97254819D02*
X127295238Y-97207200D01*
X127295238Y-97207200D02*
X127342857Y-97159580D01*
X127342857Y-97159580D02*
X127438095Y-97016723D01*
X127438095Y-97016723D02*
X127485714Y-96826247D01*
X127485714Y-96826247D02*
X127485714Y-96445295D01*
X127485714Y-96445295D02*
X127438095Y-96350057D01*
X127438095Y-96350057D02*
X127390476Y-96302438D01*
X127390476Y-96302438D02*
X127295238Y-96254819D01*
X127295238Y-96254819D02*
X127104762Y-96254819D01*
X127104762Y-96254819D02*
X127009524Y-96302438D01*
X127009524Y-96302438D02*
X126961905Y-96350057D01*
X126961905Y-96350057D02*
X126914286Y-96445295D01*
X126914286Y-96445295D02*
X126914286Y-96683390D01*
X126914286Y-96683390D02*
X126961905Y-96778628D01*
X126961905Y-96778628D02*
X127009524Y-96826247D01*
X127009524Y-96826247D02*
X127104762Y-96873866D01*
X127104762Y-96873866D02*
X127295238Y-96873866D01*
X127295238Y-96873866D02*
X127390476Y-96826247D01*
X127390476Y-96826247D02*
X127438095Y-96778628D01*
X127438095Y-96778628D02*
X127485714Y-96683390D01*
X144633333Y-90654819D02*
X144300000Y-90178628D01*
X144061905Y-90654819D02*
X144061905Y-89654819D01*
X144061905Y-89654819D02*
X144442857Y-89654819D01*
X144442857Y-89654819D02*
X144538095Y-89702438D01*
X144538095Y-89702438D02*
X144585714Y-89750057D01*
X144585714Y-89750057D02*
X144633333Y-89845295D01*
X144633333Y-89845295D02*
X144633333Y-89988152D01*
X144633333Y-89988152D02*
X144585714Y-90083390D01*
X144585714Y-90083390D02*
X144538095Y-90131009D01*
X144538095Y-90131009D02*
X144442857Y-90178628D01*
X144442857Y-90178628D02*
X144061905Y-90178628D01*
X145014286Y-89750057D02*
X145061905Y-89702438D01*
X145061905Y-89702438D02*
X145157143Y-89654819D01*
X145157143Y-89654819D02*
X145395238Y-89654819D01*
X145395238Y-89654819D02*
X145490476Y-89702438D01*
X145490476Y-89702438D02*
X145538095Y-89750057D01*
X145538095Y-89750057D02*
X145585714Y-89845295D01*
X145585714Y-89845295D02*
X145585714Y-89940533D01*
X145585714Y-89940533D02*
X145538095Y-90083390D01*
X145538095Y-90083390D02*
X144966667Y-90654819D01*
X144966667Y-90654819D02*
X145585714Y-90654819D01*
X162989580Y-94566666D02*
X163037200Y-94614285D01*
X163037200Y-94614285D02*
X163084819Y-94757142D01*
X163084819Y-94757142D02*
X163084819Y-94852380D01*
X163084819Y-94852380D02*
X163037200Y-94995237D01*
X163037200Y-94995237D02*
X162941961Y-95090475D01*
X162941961Y-95090475D02*
X162846723Y-95138094D01*
X162846723Y-95138094D02*
X162656247Y-95185713D01*
X162656247Y-95185713D02*
X162513390Y-95185713D01*
X162513390Y-95185713D02*
X162322914Y-95138094D01*
X162322914Y-95138094D02*
X162227676Y-95090475D01*
X162227676Y-95090475D02*
X162132438Y-94995237D01*
X162132438Y-94995237D02*
X162084819Y-94852380D01*
X162084819Y-94852380D02*
X162084819Y-94757142D01*
X162084819Y-94757142D02*
X162132438Y-94614285D01*
X162132438Y-94614285D02*
X162180057Y-94566666D01*
X163084819Y-93614285D02*
X163084819Y-94185713D01*
X163084819Y-93899999D02*
X162084819Y-93899999D01*
X162084819Y-93899999D02*
X162227676Y-93995237D01*
X162227676Y-93995237D02*
X162322914Y-94090475D01*
X162322914Y-94090475D02*
X162370533Y-94185713D01*
X144257142Y-97254819D02*
X143923809Y-96778628D01*
X143685714Y-97254819D02*
X143685714Y-96254819D01*
X143685714Y-96254819D02*
X144066666Y-96254819D01*
X144066666Y-96254819D02*
X144161904Y-96302438D01*
X144161904Y-96302438D02*
X144209523Y-96350057D01*
X144209523Y-96350057D02*
X144257142Y-96445295D01*
X144257142Y-96445295D02*
X144257142Y-96588152D01*
X144257142Y-96588152D02*
X144209523Y-96683390D01*
X144209523Y-96683390D02*
X144161904Y-96731009D01*
X144161904Y-96731009D02*
X144066666Y-96778628D01*
X144066666Y-96778628D02*
X143685714Y-96778628D01*
X145209523Y-97254819D02*
X144638095Y-97254819D01*
X144923809Y-97254819D02*
X144923809Y-96254819D01*
X144923809Y-96254819D02*
X144828571Y-96397676D01*
X144828571Y-96397676D02*
X144733333Y-96492914D01*
X144733333Y-96492914D02*
X144638095Y-96540533D01*
X146114285Y-96254819D02*
X145638095Y-96254819D01*
X145638095Y-96254819D02*
X145590476Y-96731009D01*
X145590476Y-96731009D02*
X145638095Y-96683390D01*
X145638095Y-96683390D02*
X145733333Y-96635771D01*
X145733333Y-96635771D02*
X145971428Y-96635771D01*
X145971428Y-96635771D02*
X146066666Y-96683390D01*
X146066666Y-96683390D02*
X146114285Y-96731009D01*
X146114285Y-96731009D02*
X146161904Y-96826247D01*
X146161904Y-96826247D02*
X146161904Y-97064342D01*
X146161904Y-97064342D02*
X146114285Y-97159580D01*
X146114285Y-97159580D02*
X146066666Y-97207200D01*
X146066666Y-97207200D02*
X145971428Y-97254819D01*
X145971428Y-97254819D02*
X145733333Y-97254819D01*
X145733333Y-97254819D02*
X145638095Y-97207200D01*
X145638095Y-97207200D02*
X145590476Y-97159580D01*
X68502976Y-81251009D02*
X68169643Y-81251009D01*
X68169643Y-81774819D02*
X68169643Y-80774819D01*
X68169643Y-80774819D02*
X68645833Y-80774819D01*
X69550595Y-81774819D02*
X68979167Y-81774819D01*
X69264881Y-81774819D02*
X69264881Y-80774819D01*
X69264881Y-80774819D02*
X69169643Y-80917676D01*
X69169643Y-80917676D02*
X69074405Y-81012914D01*
X69074405Y-81012914D02*
X68979167Y-81060533D01*
X69883929Y-80774819D02*
X70502976Y-80774819D01*
X70502976Y-80774819D02*
X70169643Y-81155771D01*
X70169643Y-81155771D02*
X70312500Y-81155771D01*
X70312500Y-81155771D02*
X70407738Y-81203390D01*
X70407738Y-81203390D02*
X70455357Y-81251009D01*
X70455357Y-81251009D02*
X70502976Y-81346247D01*
X70502976Y-81346247D02*
X70502976Y-81584342D01*
X70502976Y-81584342D02*
X70455357Y-81679580D01*
X70455357Y-81679580D02*
X70407738Y-81727200D01*
X70407738Y-81727200D02*
X70312500Y-81774819D01*
X70312500Y-81774819D02*
X70026786Y-81774819D01*
X70026786Y-81774819D02*
X69931548Y-81727200D01*
X69931548Y-81727200D02*
X69883929Y-81679580D01*
X147257142Y-97254819D02*
X146923809Y-96778628D01*
X146685714Y-97254819D02*
X146685714Y-96254819D01*
X146685714Y-96254819D02*
X147066666Y-96254819D01*
X147066666Y-96254819D02*
X147161904Y-96302438D01*
X147161904Y-96302438D02*
X147209523Y-96350057D01*
X147209523Y-96350057D02*
X147257142Y-96445295D01*
X147257142Y-96445295D02*
X147257142Y-96588152D01*
X147257142Y-96588152D02*
X147209523Y-96683390D01*
X147209523Y-96683390D02*
X147161904Y-96731009D01*
X147161904Y-96731009D02*
X147066666Y-96778628D01*
X147066666Y-96778628D02*
X146685714Y-96778628D01*
X148209523Y-97254819D02*
X147638095Y-97254819D01*
X147923809Y-97254819D02*
X147923809Y-96254819D01*
X147923809Y-96254819D02*
X147828571Y-96397676D01*
X147828571Y-96397676D02*
X147733333Y-96492914D01*
X147733333Y-96492914D02*
X147638095Y-96540533D01*
X149066666Y-96254819D02*
X148876190Y-96254819D01*
X148876190Y-96254819D02*
X148780952Y-96302438D01*
X148780952Y-96302438D02*
X148733333Y-96350057D01*
X148733333Y-96350057D02*
X148638095Y-96492914D01*
X148638095Y-96492914D02*
X148590476Y-96683390D01*
X148590476Y-96683390D02*
X148590476Y-97064342D01*
X148590476Y-97064342D02*
X148638095Y-97159580D01*
X148638095Y-97159580D02*
X148685714Y-97207200D01*
X148685714Y-97207200D02*
X148780952Y-97254819D01*
X148780952Y-97254819D02*
X148971428Y-97254819D01*
X148971428Y-97254819D02*
X149066666Y-97207200D01*
X149066666Y-97207200D02*
X149114285Y-97159580D01*
X149114285Y-97159580D02*
X149161904Y-97064342D01*
X149161904Y-97064342D02*
X149161904Y-96826247D01*
X149161904Y-96826247D02*
X149114285Y-96731009D01*
X149114285Y-96731009D02*
X149066666Y-96683390D01*
X149066666Y-96683390D02*
X148971428Y-96635771D01*
X148971428Y-96635771D02*
X148780952Y-96635771D01*
X148780952Y-96635771D02*
X148685714Y-96683390D01*
X148685714Y-96683390D02*
X148638095Y-96731009D01*
X148638095Y-96731009D02*
X148590476Y-96826247D01*
X84366666Y-83554819D02*
X84366666Y-84269104D01*
X84366666Y-84269104D02*
X84319047Y-84411961D01*
X84319047Y-84411961D02*
X84223809Y-84507200D01*
X84223809Y-84507200D02*
X84080952Y-84554819D01*
X84080952Y-84554819D02*
X83985714Y-84554819D01*
X84747619Y-83554819D02*
X85366666Y-83554819D01*
X85366666Y-83554819D02*
X85033333Y-83935771D01*
X85033333Y-83935771D02*
X85176190Y-83935771D01*
X85176190Y-83935771D02*
X85271428Y-83983390D01*
X85271428Y-83983390D02*
X85319047Y-84031009D01*
X85319047Y-84031009D02*
X85366666Y-84126247D01*
X85366666Y-84126247D02*
X85366666Y-84364342D01*
X85366666Y-84364342D02*
X85319047Y-84459580D01*
X85319047Y-84459580D02*
X85271428Y-84507200D01*
X85271428Y-84507200D02*
X85176190Y-84554819D01*
X85176190Y-84554819D02*
X84890476Y-84554819D01*
X84890476Y-84554819D02*
X84795238Y-84507200D01*
X84795238Y-84507200D02*
X84747619Y-84459580D01*
X141257142Y-97254819D02*
X140923809Y-96778628D01*
X140685714Y-97254819D02*
X140685714Y-96254819D01*
X140685714Y-96254819D02*
X141066666Y-96254819D01*
X141066666Y-96254819D02*
X141161904Y-96302438D01*
X141161904Y-96302438D02*
X141209523Y-96350057D01*
X141209523Y-96350057D02*
X141257142Y-96445295D01*
X141257142Y-96445295D02*
X141257142Y-96588152D01*
X141257142Y-96588152D02*
X141209523Y-96683390D01*
X141209523Y-96683390D02*
X141161904Y-96731009D01*
X141161904Y-96731009D02*
X141066666Y-96778628D01*
X141066666Y-96778628D02*
X140685714Y-96778628D01*
X142209523Y-97254819D02*
X141638095Y-97254819D01*
X141923809Y-97254819D02*
X141923809Y-96254819D01*
X141923809Y-96254819D02*
X141828571Y-96397676D01*
X141828571Y-96397676D02*
X141733333Y-96492914D01*
X141733333Y-96492914D02*
X141638095Y-96540533D01*
X143066666Y-96588152D02*
X143066666Y-97254819D01*
X142828571Y-96207200D02*
X142590476Y-96921485D01*
X142590476Y-96921485D02*
X143209523Y-96921485D01*
X141633333Y-90654819D02*
X141300000Y-90178628D01*
X141061905Y-90654819D02*
X141061905Y-89654819D01*
X141061905Y-89654819D02*
X141442857Y-89654819D01*
X141442857Y-89654819D02*
X141538095Y-89702438D01*
X141538095Y-89702438D02*
X141585714Y-89750057D01*
X141585714Y-89750057D02*
X141633333Y-89845295D01*
X141633333Y-89845295D02*
X141633333Y-89988152D01*
X141633333Y-89988152D02*
X141585714Y-90083390D01*
X141585714Y-90083390D02*
X141538095Y-90131009D01*
X141538095Y-90131009D02*
X141442857Y-90178628D01*
X141442857Y-90178628D02*
X141061905Y-90178628D01*
X141966667Y-89654819D02*
X142585714Y-89654819D01*
X142585714Y-89654819D02*
X142252381Y-90035771D01*
X142252381Y-90035771D02*
X142395238Y-90035771D01*
X142395238Y-90035771D02*
X142490476Y-90083390D01*
X142490476Y-90083390D02*
X142538095Y-90131009D01*
X142538095Y-90131009D02*
X142585714Y-90226247D01*
X142585714Y-90226247D02*
X142585714Y-90464342D01*
X142585714Y-90464342D02*
X142538095Y-90559580D01*
X142538095Y-90559580D02*
X142490476Y-90607200D01*
X142490476Y-90607200D02*
X142395238Y-90654819D01*
X142395238Y-90654819D02*
X142109524Y-90654819D01*
X142109524Y-90654819D02*
X142014286Y-90607200D01*
X142014286Y-90607200D02*
X141966667Y-90559580D01*
X68979166Y-98751009D02*
X68645833Y-98751009D01*
X68645833Y-99274819D02*
X68645833Y-98274819D01*
X68645833Y-98274819D02*
X69122023Y-98274819D01*
X69645833Y-98703390D02*
X69550595Y-98655771D01*
X69550595Y-98655771D02*
X69502976Y-98608152D01*
X69502976Y-98608152D02*
X69455357Y-98512914D01*
X69455357Y-98512914D02*
X69455357Y-98465295D01*
X69455357Y-98465295D02*
X69502976Y-98370057D01*
X69502976Y-98370057D02*
X69550595Y-98322438D01*
X69550595Y-98322438D02*
X69645833Y-98274819D01*
X69645833Y-98274819D02*
X69836309Y-98274819D01*
X69836309Y-98274819D02*
X69931547Y-98322438D01*
X69931547Y-98322438D02*
X69979166Y-98370057D01*
X69979166Y-98370057D02*
X70026785Y-98465295D01*
X70026785Y-98465295D02*
X70026785Y-98512914D01*
X70026785Y-98512914D02*
X69979166Y-98608152D01*
X69979166Y-98608152D02*
X69931547Y-98655771D01*
X69931547Y-98655771D02*
X69836309Y-98703390D01*
X69836309Y-98703390D02*
X69645833Y-98703390D01*
X69645833Y-98703390D02*
X69550595Y-98751009D01*
X69550595Y-98751009D02*
X69502976Y-98798628D01*
X69502976Y-98798628D02*
X69455357Y-98893866D01*
X69455357Y-98893866D02*
X69455357Y-99084342D01*
X69455357Y-99084342D02*
X69502976Y-99179580D01*
X69502976Y-99179580D02*
X69550595Y-99227200D01*
X69550595Y-99227200D02*
X69645833Y-99274819D01*
X69645833Y-99274819D02*
X69836309Y-99274819D01*
X69836309Y-99274819D02*
X69931547Y-99227200D01*
X69931547Y-99227200D02*
X69979166Y-99179580D01*
X69979166Y-99179580D02*
X70026785Y-99084342D01*
X70026785Y-99084342D02*
X70026785Y-98893866D01*
X70026785Y-98893866D02*
X69979166Y-98798628D01*
X69979166Y-98798628D02*
X69931547Y-98751009D01*
X69931547Y-98751009D02*
X69836309Y-98703390D01*
X155638095Y-83554819D02*
X155638095Y-84364342D01*
X155638095Y-84364342D02*
X155685714Y-84459580D01*
X155685714Y-84459580D02*
X155733333Y-84507200D01*
X155733333Y-84507200D02*
X155828571Y-84554819D01*
X155828571Y-84554819D02*
X156019047Y-84554819D01*
X156019047Y-84554819D02*
X156114285Y-84507200D01*
X156114285Y-84507200D02*
X156161904Y-84459580D01*
X156161904Y-84459580D02*
X156209523Y-84364342D01*
X156209523Y-84364342D02*
X156209523Y-83554819D01*
X157209523Y-84554819D02*
X156638095Y-84554819D01*
X156923809Y-84554819D02*
X156923809Y-83554819D01*
X156923809Y-83554819D02*
X156828571Y-83697676D01*
X156828571Y-83697676D02*
X156733333Y-83792914D01*
X156733333Y-83792914D02*
X156638095Y-83840533D01*
X128957142Y-97254819D02*
X128623809Y-96778628D01*
X128385714Y-97254819D02*
X128385714Y-96254819D01*
X128385714Y-96254819D02*
X128766666Y-96254819D01*
X128766666Y-96254819D02*
X128861904Y-96302438D01*
X128861904Y-96302438D02*
X128909523Y-96350057D01*
X128909523Y-96350057D02*
X128957142Y-96445295D01*
X128957142Y-96445295D02*
X128957142Y-96588152D01*
X128957142Y-96588152D02*
X128909523Y-96683390D01*
X128909523Y-96683390D02*
X128861904Y-96731009D01*
X128861904Y-96731009D02*
X128766666Y-96778628D01*
X128766666Y-96778628D02*
X128385714Y-96778628D01*
X129909523Y-97254819D02*
X129338095Y-97254819D01*
X129623809Y-97254819D02*
X129623809Y-96254819D01*
X129623809Y-96254819D02*
X129528571Y-96397676D01*
X129528571Y-96397676D02*
X129433333Y-96492914D01*
X129433333Y-96492914D02*
X129338095Y-96540533D01*
X130528571Y-96254819D02*
X130623809Y-96254819D01*
X130623809Y-96254819D02*
X130719047Y-96302438D01*
X130719047Y-96302438D02*
X130766666Y-96350057D01*
X130766666Y-96350057D02*
X130814285Y-96445295D01*
X130814285Y-96445295D02*
X130861904Y-96635771D01*
X130861904Y-96635771D02*
X130861904Y-96873866D01*
X130861904Y-96873866D02*
X130814285Y-97064342D01*
X130814285Y-97064342D02*
X130766666Y-97159580D01*
X130766666Y-97159580D02*
X130719047Y-97207200D01*
X130719047Y-97207200D02*
X130623809Y-97254819D01*
X130623809Y-97254819D02*
X130528571Y-97254819D01*
X130528571Y-97254819D02*
X130433333Y-97207200D01*
X130433333Y-97207200D02*
X130385714Y-97159580D01*
X130385714Y-97159580D02*
X130338095Y-97064342D01*
X130338095Y-97064342D02*
X130290476Y-96873866D01*
X130290476Y-96873866D02*
X130290476Y-96635771D01*
X130290476Y-96635771D02*
X130338095Y-96445295D01*
X130338095Y-96445295D02*
X130385714Y-96350057D01*
X130385714Y-96350057D02*
X130433333Y-96302438D01*
X130433333Y-96302438D02*
X130528571Y-96254819D01*
X138633333Y-90654819D02*
X138300000Y-90178628D01*
X138061905Y-90654819D02*
X138061905Y-89654819D01*
X138061905Y-89654819D02*
X138442857Y-89654819D01*
X138442857Y-89654819D02*
X138538095Y-89702438D01*
X138538095Y-89702438D02*
X138585714Y-89750057D01*
X138585714Y-89750057D02*
X138633333Y-89845295D01*
X138633333Y-89845295D02*
X138633333Y-89988152D01*
X138633333Y-89988152D02*
X138585714Y-90083390D01*
X138585714Y-90083390D02*
X138538095Y-90131009D01*
X138538095Y-90131009D02*
X138442857Y-90178628D01*
X138442857Y-90178628D02*
X138061905Y-90178628D01*
X139490476Y-89988152D02*
X139490476Y-90654819D01*
X139252381Y-89607200D02*
X139014286Y-90321485D01*
X139014286Y-90321485D02*
X139633333Y-90321485D01*
X135157142Y-97254819D02*
X134823809Y-96778628D01*
X134585714Y-97254819D02*
X134585714Y-96254819D01*
X134585714Y-96254819D02*
X134966666Y-96254819D01*
X134966666Y-96254819D02*
X135061904Y-96302438D01*
X135061904Y-96302438D02*
X135109523Y-96350057D01*
X135109523Y-96350057D02*
X135157142Y-96445295D01*
X135157142Y-96445295D02*
X135157142Y-96588152D01*
X135157142Y-96588152D02*
X135109523Y-96683390D01*
X135109523Y-96683390D02*
X135061904Y-96731009D01*
X135061904Y-96731009D02*
X134966666Y-96778628D01*
X134966666Y-96778628D02*
X134585714Y-96778628D01*
X136109523Y-97254819D02*
X135538095Y-97254819D01*
X135823809Y-97254819D02*
X135823809Y-96254819D01*
X135823809Y-96254819D02*
X135728571Y-96397676D01*
X135728571Y-96397676D02*
X135633333Y-96492914D01*
X135633333Y-96492914D02*
X135538095Y-96540533D01*
X136490476Y-96350057D02*
X136538095Y-96302438D01*
X136538095Y-96302438D02*
X136633333Y-96254819D01*
X136633333Y-96254819D02*
X136871428Y-96254819D01*
X136871428Y-96254819D02*
X136966666Y-96302438D01*
X136966666Y-96302438D02*
X137014285Y-96350057D01*
X137014285Y-96350057D02*
X137061904Y-96445295D01*
X137061904Y-96445295D02*
X137061904Y-96540533D01*
X137061904Y-96540533D02*
X137014285Y-96683390D01*
X137014285Y-96683390D02*
X136442857Y-97254819D01*
X136442857Y-97254819D02*
X137061904Y-97254819D01*
X68966666Y-123251009D02*
X68633333Y-123251009D01*
X68633333Y-123774819D02*
X68633333Y-122774819D01*
X68633333Y-122774819D02*
X69109523Y-122774819D01*
X70014285Y-123774819D02*
X69442857Y-123774819D01*
X69728571Y-123774819D02*
X69728571Y-122774819D01*
X69728571Y-122774819D02*
X69633333Y-122917676D01*
X69633333Y-122917676D02*
X69538095Y-123012914D01*
X69538095Y-123012914D02*
X69442857Y-123060533D01*
X150129580Y-82966666D02*
X150177200Y-83014285D01*
X150177200Y-83014285D02*
X150224819Y-83157142D01*
X150224819Y-83157142D02*
X150224819Y-83252380D01*
X150224819Y-83252380D02*
X150177200Y-83395237D01*
X150177200Y-83395237D02*
X150081961Y-83490475D01*
X150081961Y-83490475D02*
X149986723Y-83538094D01*
X149986723Y-83538094D02*
X149796247Y-83585713D01*
X149796247Y-83585713D02*
X149653390Y-83585713D01*
X149653390Y-83585713D02*
X149462914Y-83538094D01*
X149462914Y-83538094D02*
X149367676Y-83490475D01*
X149367676Y-83490475D02*
X149272438Y-83395237D01*
X149272438Y-83395237D02*
X149224819Y-83252380D01*
X149224819Y-83252380D02*
X149224819Y-83157142D01*
X149224819Y-83157142D02*
X149272438Y-83014285D01*
X149272438Y-83014285D02*
X149320057Y-82966666D01*
X149320057Y-82585713D02*
X149272438Y-82538094D01*
X149272438Y-82538094D02*
X149224819Y-82442856D01*
X149224819Y-82442856D02*
X149224819Y-82204761D01*
X149224819Y-82204761D02*
X149272438Y-82109523D01*
X149272438Y-82109523D02*
X149320057Y-82061904D01*
X149320057Y-82061904D02*
X149415295Y-82014285D01*
X149415295Y-82014285D02*
X149510533Y-82014285D01*
X149510533Y-82014285D02*
X149653390Y-82061904D01*
X149653390Y-82061904D02*
X150224819Y-82633332D01*
X150224819Y-82633332D02*
X150224819Y-82014285D01*
X68979166Y-102251009D02*
X68645833Y-102251009D01*
X68645833Y-102774819D02*
X68645833Y-101774819D01*
X68645833Y-101774819D02*
X69122023Y-101774819D01*
X69407738Y-101774819D02*
X70074404Y-101774819D01*
X70074404Y-101774819D02*
X69645833Y-102774819D01*
X68502976Y-91751009D02*
X68169643Y-91751009D01*
X68169643Y-92274819D02*
X68169643Y-91274819D01*
X68169643Y-91274819D02*
X68645833Y-91274819D01*
X69550595Y-92274819D02*
X68979167Y-92274819D01*
X69264881Y-92274819D02*
X69264881Y-91274819D01*
X69264881Y-91274819D02*
X69169643Y-91417676D01*
X69169643Y-91417676D02*
X69074405Y-91512914D01*
X69074405Y-91512914D02*
X68979167Y-91560533D01*
X70169643Y-91274819D02*
X70264881Y-91274819D01*
X70264881Y-91274819D02*
X70360119Y-91322438D01*
X70360119Y-91322438D02*
X70407738Y-91370057D01*
X70407738Y-91370057D02*
X70455357Y-91465295D01*
X70455357Y-91465295D02*
X70502976Y-91655771D01*
X70502976Y-91655771D02*
X70502976Y-91893866D01*
X70502976Y-91893866D02*
X70455357Y-92084342D01*
X70455357Y-92084342D02*
X70407738Y-92179580D01*
X70407738Y-92179580D02*
X70360119Y-92227200D01*
X70360119Y-92227200D02*
X70264881Y-92274819D01*
X70264881Y-92274819D02*
X70169643Y-92274819D01*
X70169643Y-92274819D02*
X70074405Y-92227200D01*
X70074405Y-92227200D02*
X70026786Y-92179580D01*
X70026786Y-92179580D02*
X69979167Y-92084342D01*
X69979167Y-92084342D02*
X69931548Y-91893866D01*
X69931548Y-91893866D02*
X69931548Y-91655771D01*
X69931548Y-91655771D02*
X69979167Y-91465295D01*
X69979167Y-91465295D02*
X70026786Y-91370057D01*
X70026786Y-91370057D02*
X70074405Y-91322438D01*
X70074405Y-91322438D02*
X70169643Y-91274819D01*
X68966666Y-109251009D02*
X68633333Y-109251009D01*
X68633333Y-109774819D02*
X68633333Y-108774819D01*
X68633333Y-108774819D02*
X69109523Y-108774819D01*
X69966666Y-108774819D02*
X69490476Y-108774819D01*
X69490476Y-108774819D02*
X69442857Y-109251009D01*
X69442857Y-109251009D02*
X69490476Y-109203390D01*
X69490476Y-109203390D02*
X69585714Y-109155771D01*
X69585714Y-109155771D02*
X69823809Y-109155771D01*
X69823809Y-109155771D02*
X69919047Y-109203390D01*
X69919047Y-109203390D02*
X69966666Y-109251009D01*
X69966666Y-109251009D02*
X70014285Y-109346247D01*
X70014285Y-109346247D02*
X70014285Y-109584342D01*
X70014285Y-109584342D02*
X69966666Y-109679580D01*
X69966666Y-109679580D02*
X69919047Y-109727200D01*
X69919047Y-109727200D02*
X69823809Y-109774819D01*
X69823809Y-109774819D02*
X69585714Y-109774819D01*
X69585714Y-109774819D02*
X69490476Y-109727200D01*
X69490476Y-109727200D02*
X69442857Y-109679580D01*
X135633333Y-90654819D02*
X135300000Y-90178628D01*
X135061905Y-90654819D02*
X135061905Y-89654819D01*
X135061905Y-89654819D02*
X135442857Y-89654819D01*
X135442857Y-89654819D02*
X135538095Y-89702438D01*
X135538095Y-89702438D02*
X135585714Y-89750057D01*
X135585714Y-89750057D02*
X135633333Y-89845295D01*
X135633333Y-89845295D02*
X135633333Y-89988152D01*
X135633333Y-89988152D02*
X135585714Y-90083390D01*
X135585714Y-90083390D02*
X135538095Y-90131009D01*
X135538095Y-90131009D02*
X135442857Y-90178628D01*
X135442857Y-90178628D02*
X135061905Y-90178628D01*
X136538095Y-89654819D02*
X136061905Y-89654819D01*
X136061905Y-89654819D02*
X136014286Y-90131009D01*
X136014286Y-90131009D02*
X136061905Y-90083390D01*
X136061905Y-90083390D02*
X136157143Y-90035771D01*
X136157143Y-90035771D02*
X136395238Y-90035771D01*
X136395238Y-90035771D02*
X136490476Y-90083390D01*
X136490476Y-90083390D02*
X136538095Y-90131009D01*
X136538095Y-90131009D02*
X136585714Y-90226247D01*
X136585714Y-90226247D02*
X136585714Y-90464342D01*
X136585714Y-90464342D02*
X136538095Y-90559580D01*
X136538095Y-90559580D02*
X136490476Y-90607200D01*
X136490476Y-90607200D02*
X136395238Y-90654819D01*
X136395238Y-90654819D02*
X136157143Y-90654819D01*
X136157143Y-90654819D02*
X136061905Y-90607200D01*
X136061905Y-90607200D02*
X136014286Y-90559580D01*
X68979166Y-105751009D02*
X68645833Y-105751009D01*
X68645833Y-106274819D02*
X68645833Y-105274819D01*
X68645833Y-105274819D02*
X69122023Y-105274819D01*
X69931547Y-105274819D02*
X69741071Y-105274819D01*
X69741071Y-105274819D02*
X69645833Y-105322438D01*
X69645833Y-105322438D02*
X69598214Y-105370057D01*
X69598214Y-105370057D02*
X69502976Y-105512914D01*
X69502976Y-105512914D02*
X69455357Y-105703390D01*
X69455357Y-105703390D02*
X69455357Y-106084342D01*
X69455357Y-106084342D02*
X69502976Y-106179580D01*
X69502976Y-106179580D02*
X69550595Y-106227200D01*
X69550595Y-106227200D02*
X69645833Y-106274819D01*
X69645833Y-106274819D02*
X69836309Y-106274819D01*
X69836309Y-106274819D02*
X69931547Y-106227200D01*
X69931547Y-106227200D02*
X69979166Y-106179580D01*
X69979166Y-106179580D02*
X70026785Y-106084342D01*
X70026785Y-106084342D02*
X70026785Y-105846247D01*
X70026785Y-105846247D02*
X69979166Y-105751009D01*
X69979166Y-105751009D02*
X69931547Y-105703390D01*
X69931547Y-105703390D02*
X69836309Y-105655771D01*
X69836309Y-105655771D02*
X69645833Y-105655771D01*
X69645833Y-105655771D02*
X69550595Y-105703390D01*
X69550595Y-105703390D02*
X69502976Y-105751009D01*
X69502976Y-105751009D02*
X69455357Y-105846247D01*
D15*
%TO.C,R11*%
X132015000Y-101227064D02*
X132015000Y-100772936D01*
X133485000Y-101227064D02*
X133485000Y-100772936D01*
%TO.C,C4*%
X107590000Y-70288748D02*
X107590000Y-71711252D01*
X109410000Y-70288748D02*
X109410000Y-71711252D01*
%TO.C,F16*%
X69902064Y-68090000D02*
X68697936Y-68090000D01*
X69902064Y-69910000D02*
X68697936Y-69910000D01*
%TO.C,F12*%
X69914564Y-82090000D02*
X68710436Y-82090000D01*
X69914564Y-83910000D02*
X68710436Y-83910000D01*
%TO.C,F2*%
X69902064Y-117090000D02*
X68697936Y-117090000D01*
X69902064Y-118910000D02*
X68697936Y-118910000D01*
%TO.C,F3*%
X69914564Y-113590000D02*
X68710436Y-113590000D01*
X69914564Y-115410000D02*
X68710436Y-115410000D01*
%TO.C,R17*%
X151427064Y-86565000D02*
X150972936Y-86565000D01*
X151427064Y-88035000D02*
X150972936Y-88035000D01*
%TO.C,J5*%
X98290000Y-53065000D02*
X99290000Y-52065000D01*
X98290000Y-60935000D02*
X98290000Y-53065000D01*
X99290000Y-52065000D02*
X108410000Y-52065000D01*
X99290000Y-61935000D02*
X98290000Y-60935000D01*
X108410000Y-52065000D02*
X108410000Y-54848233D01*
X108410000Y-57490000D02*
X108410000Y-56151767D01*
X108410000Y-61935000D02*
X99290000Y-61935000D01*
X108410000Y-61935000D02*
X108410000Y-59510000D01*
%TO.C,R6*%
X132015000Y-85935436D02*
X132015000Y-86389564D01*
X133485000Y-85935436D02*
X133485000Y-86389564D01*
%TO.C,R13*%
X138015000Y-101227064D02*
X138015000Y-100772936D01*
X139485000Y-101227064D02*
X139485000Y-100772936D01*
%TO.C,F4*%
X69914564Y-110090000D02*
X68710436Y-110090000D01*
X69914564Y-111910000D02*
X68710436Y-111910000D01*
%TO.C,U4*%
X82500000Y-71000000D02*
X82500000Y-73000000D01*
X82880000Y-68680000D02*
X104920000Y-68680000D01*
X82880000Y-78120000D02*
X82880000Y-68680000D01*
X104920000Y-68680000D02*
X104920000Y-78120000D01*
X104920000Y-78120000D02*
X82880000Y-78120000D01*
%TO.C,F11*%
X69914564Y-85590000D02*
X68710436Y-85590000D01*
X69914564Y-87410000D02*
X68710436Y-87410000D01*
%TO.C,F15*%
X69914564Y-71590000D02*
X68710436Y-71590000D01*
X69914564Y-73410000D02*
X68710436Y-73410000D01*
%TO.C,F14*%
X69902064Y-75090000D02*
X68697936Y-75090000D01*
X69902064Y-76910000D02*
X68697936Y-76910000D01*
%TO.C,Q2*%
X116437500Y-76440000D02*
X115787500Y-76440000D01*
X116437500Y-76440000D02*
X117087500Y-76440000D01*
X116437500Y-79560000D02*
X115787500Y-79560000D01*
X116437500Y-79560000D02*
X117087500Y-79560000D01*
X117840000Y-79840000D02*
X117360000Y-79840000D01*
X117600000Y-79510000D01*
X117840000Y-79840000D01*
G36*
X117840000Y-79840000D02*
G01*
X117360000Y-79840000D01*
X117600000Y-79510000D01*
X117840000Y-79840000D01*
G37*
%TO.C,F9*%
X69914564Y-92590000D02*
X68710436Y-92590000D01*
X69914564Y-94410000D02*
X68710436Y-94410000D01*
%TO.C,R8*%
X126015000Y-85935436D02*
X126015000Y-86389564D01*
X127485000Y-85935436D02*
X127485000Y-86389564D01*
%TO.C,R1*%
X147015000Y-85935436D02*
X147015000Y-86389564D01*
X148485000Y-85935436D02*
X148485000Y-86389564D01*
%TO.C,J2*%
X123065000Y-106565000D02*
X151435000Y-106565000D01*
X123065000Y-115695000D02*
X123065000Y-106565000D01*
X124065000Y-116695000D02*
X123065000Y-115695000D01*
X150435000Y-116695000D02*
X124065000Y-116695000D01*
X151435000Y-106565000D02*
X151435000Y-115695000D01*
X151435000Y-115695000D02*
X150435000Y-116695000D01*
%TO.C,Q1*%
X161800000Y-69240000D02*
X161150000Y-69240000D01*
X161800000Y-69240000D02*
X162450000Y-69240000D01*
X161800000Y-72360000D02*
X161150000Y-72360000D01*
X161800000Y-72360000D02*
X162450000Y-72360000D01*
X160637500Y-69290000D02*
X160397500Y-68960000D01*
X160877500Y-68960000D01*
X160637500Y-69290000D01*
G36*
X160637500Y-69290000D02*
G01*
X160397500Y-68960000D01*
X160877500Y-68960000D01*
X160637500Y-69290000D01*
G37*
%TO.C,R18*%
X111765000Y-78227064D02*
X111765000Y-77772936D01*
X113235000Y-78227064D02*
X113235000Y-77772936D01*
%TO.C,U3*%
X110680000Y-52160000D02*
X120120000Y-52160000D01*
X110680000Y-60380000D02*
X110680000Y-52160000D01*
X110680000Y-74200000D02*
X110680000Y-68080000D01*
X113000000Y-74580000D02*
X115000000Y-74580000D01*
X120100000Y-60390000D02*
X120100000Y-52170000D01*
X120120000Y-74200000D02*
X110680000Y-74200000D01*
X120200000Y-74200000D02*
X120200000Y-68080000D01*
%TO.C,C3*%
X79890000Y-70088748D02*
X79890000Y-71511252D01*
X81710000Y-70088748D02*
X81710000Y-71511252D01*
%TO.C,R7*%
X129015000Y-85935436D02*
X129015000Y-86389564D01*
X130485000Y-85935436D02*
X130485000Y-86389564D01*
%TO.C,J1*%
X123065000Y-71305000D02*
X124065000Y-70305000D01*
X123065000Y-80435000D02*
X123065000Y-71305000D01*
X124065000Y-70305000D02*
X150435000Y-70305000D01*
X150435000Y-70305000D02*
X151435000Y-71305000D01*
X151435000Y-71305000D02*
X151435000Y-80435000D01*
X151435000Y-80435000D02*
X123065000Y-80435000D01*
%TO.C,U2*%
X156400000Y-93440000D02*
X154450000Y-93440000D01*
X156400000Y-93440000D02*
X158350000Y-93440000D01*
X156400000Y-103560000D02*
X154450000Y-103560000D01*
X156400000Y-103560000D02*
X158350000Y-103560000D01*
X153700000Y-93495000D02*
X153460000Y-93165000D01*
X153940000Y-93165000D01*
X153700000Y-93495000D01*
G36*
X153700000Y-93495000D02*
G01*
X153460000Y-93165000D01*
X153940000Y-93165000D01*
X153700000Y-93495000D01*
G37*
%TO.C,R9*%
X126015000Y-101227064D02*
X126015000Y-100772936D01*
X127485000Y-101227064D02*
X127485000Y-100772936D01*
%TO.C,R2*%
X144015000Y-85935436D02*
X144015000Y-86389564D01*
X145485000Y-85935436D02*
X145485000Y-86389564D01*
%TO.C,C1*%
X160690000Y-94253733D02*
X160690000Y-94546267D01*
X161710000Y-94253733D02*
X161710000Y-94546267D01*
%TO.C,R15*%
X144015000Y-101227064D02*
X144015000Y-100772936D01*
X145485000Y-101227064D02*
X145485000Y-100772936D01*
%TO.C,F13*%
X69914564Y-78590000D02*
X68710436Y-78590000D01*
X69914564Y-80410000D02*
X68710436Y-80410000D01*
%TO.C,R16*%
X147015000Y-101227064D02*
X147015000Y-100772936D01*
X148485000Y-101227064D02*
X148485000Y-100772936D01*
%TO.C,J3*%
X83900000Y-85315000D02*
X93030000Y-85315000D01*
X83900000Y-116685000D02*
X83900000Y-85315000D01*
X93030000Y-85315000D02*
X94030000Y-86315000D01*
X93030000Y-116685000D02*
X83900000Y-116685000D01*
X94030000Y-86315000D02*
X94030000Y-115685000D01*
X94030000Y-115685000D02*
X93030000Y-116685000D01*
%TO.C,R14*%
X141015000Y-101227064D02*
X141015000Y-100772936D01*
X142485000Y-101227064D02*
X142485000Y-100772936D01*
%TO.C,R3*%
X141015000Y-85935436D02*
X141015000Y-86389564D01*
X142485000Y-85935436D02*
X142485000Y-86389564D01*
%TO.C,F8*%
X69914564Y-96090000D02*
X68710436Y-96090000D01*
X69914564Y-97910000D02*
X68710436Y-97910000D01*
%TO.C,U1*%
X156400000Y-73140000D02*
X154450000Y-73140000D01*
X156400000Y-73140000D02*
X158350000Y-73140000D01*
X156400000Y-83260000D02*
X154450000Y-83260000D01*
X156400000Y-83260000D02*
X158350000Y-83260000D01*
X159340000Y-83535000D02*
X158860000Y-83535000D01*
X159100000Y-83205000D01*
X159340000Y-83535000D01*
G36*
X159340000Y-83535000D02*
G01*
X158860000Y-83535000D01*
X159100000Y-83205000D01*
X159340000Y-83535000D01*
G37*
%TO.C,R10*%
X129015000Y-101227064D02*
X129015000Y-100772936D01*
X130485000Y-101227064D02*
X130485000Y-100772936D01*
%TO.C,R4*%
X138015000Y-85935436D02*
X138015000Y-86389564D01*
X139485000Y-85935436D02*
X139485000Y-86389564D01*
%TO.C,R12*%
X135015000Y-101227064D02*
X135015000Y-100772936D01*
X136485000Y-101227064D02*
X136485000Y-100772936D01*
%TO.C,F1*%
X69902064Y-120590000D02*
X68697936Y-120590000D01*
X69902064Y-122410000D02*
X68697936Y-122410000D01*
%TO.C,C2*%
X150690000Y-82946267D02*
X150690000Y-82653733D01*
X151710000Y-82946267D02*
X151710000Y-82653733D01*
%TO.C,F7*%
X69914564Y-99590000D02*
X68710436Y-99590000D01*
X69914564Y-101410000D02*
X68710436Y-101410000D01*
%TO.C,F10*%
X69914564Y-89090000D02*
X68710436Y-89090000D01*
X69914564Y-90910000D02*
X68710436Y-90910000D01*
D16*
%TO.C,G\u002A\u002A\u002A*%
G36*
X110699000Y-124373324D02*
G01*
X110778838Y-124443638D01*
X110850637Y-124505029D01*
X110908782Y-124552840D01*
X110947661Y-124582412D01*
X110959422Y-124589469D01*
X110989003Y-124609967D01*
X111038393Y-124654425D01*
X111102724Y-124717648D01*
X111177127Y-124794445D01*
X111256730Y-124879622D01*
X111336666Y-124967986D01*
X111412065Y-125054345D01*
X111478057Y-125133505D01*
X111520753Y-125188091D01*
X111580837Y-125271233D01*
X111638911Y-125356829D01*
X111686772Y-125432543D01*
X111708076Y-125469782D01*
X111740048Y-125526097D01*
X111766361Y-125565865D01*
X111780786Y-125580150D01*
X111793967Y-125596026D01*
X111797569Y-125613571D01*
X111804920Y-125645977D01*
X111822080Y-125703964D01*
X111845909Y-125777180D01*
X111856921Y-125809323D01*
X111884237Y-125891810D01*
X111907529Y-125969282D01*
X111922877Y-126028465D01*
X111925497Y-126041525D01*
X111937617Y-126111397D01*
X111865097Y-126101670D01*
X111810656Y-126100322D01*
X111748444Y-126107158D01*
X111690041Y-126119712D01*
X111647032Y-126135515D01*
X111630977Y-126151545D01*
X111637293Y-126176214D01*
X111653928Y-126226146D01*
X111677414Y-126290985D01*
X111679797Y-126297335D01*
X111744250Y-126495664D01*
X111787255Y-126695754D01*
X111811643Y-126911971D01*
X111816056Y-126988609D01*
X111819666Y-127081851D01*
X111821398Y-127159609D01*
X111821191Y-127214874D01*
X111818989Y-127240638D01*
X111818184Y-127241654D01*
X111803635Y-127226692D01*
X111791452Y-127204528D01*
X111767871Y-127172852D01*
X111719922Y-127122221D01*
X111653113Y-127057476D01*
X111572954Y-126983459D01*
X111484954Y-126905010D01*
X111394621Y-126826971D01*
X111307464Y-126754181D01*
X111228994Y-126691483D01*
X111164717Y-126643717D01*
X111123179Y-126617292D01*
X110943528Y-126533220D01*
X110733186Y-126454612D01*
X110499520Y-126383710D01*
X110249898Y-126322756D01*
X109998120Y-126275032D01*
X109913393Y-126260999D01*
X109843834Y-126248993D01*
X109797314Y-126240407D01*
X109781723Y-126236808D01*
X109784466Y-126219264D01*
X109795696Y-126194823D01*
X109805611Y-126162764D01*
X109786516Y-126145610D01*
X109784574Y-126144844D01*
X109756908Y-126140814D01*
X109697046Y-126136276D01*
X109610982Y-126131544D01*
X109504706Y-126126930D01*
X109384211Y-126122746D01*
X109331353Y-126121208D01*
X109036569Y-126118103D01*
X108773846Y-126126121D01*
X108538624Y-126145536D01*
X108326341Y-126176621D01*
X108288872Y-126183741D01*
X108210682Y-126201236D01*
X108158027Y-126220184D01*
X108118514Y-126246544D01*
X108082814Y-126282800D01*
X108002135Y-126384304D01*
X107920267Y-126505394D01*
X107846373Y-126631393D01*
X107789616Y-126747623D01*
X107783696Y-126761940D01*
X107753348Y-126833343D01*
X107726615Y-126877497D01*
X107693831Y-126902963D01*
X107645326Y-126918303D01*
X107596578Y-126927648D01*
X107555883Y-126933268D01*
X107533583Y-126928271D01*
X107528604Y-126906595D01*
X107539869Y-126862175D01*
X107566302Y-126788947D01*
X107570147Y-126778719D01*
X107631377Y-126632868D01*
X107704342Y-126486252D01*
X107784012Y-126347397D01*
X107865356Y-126224829D01*
X107943344Y-126127075D01*
X107972486Y-126096817D01*
X108011914Y-126055838D01*
X108036506Y-126024730D01*
X108040601Y-126015486D01*
X108052105Y-125989320D01*
X108082824Y-125941683D01*
X108127066Y-125880065D01*
X108179140Y-125811956D01*
X108233355Y-125744843D01*
X108284020Y-125686215D01*
X108317518Y-125651092D01*
X108349627Y-125627434D01*
X108413888Y-125587248D01*
X108508519Y-125531535D01*
X108631738Y-125461295D01*
X108781759Y-125377529D01*
X108956801Y-125281235D01*
X109155079Y-125173415D01*
X109374812Y-125055069D01*
X109492030Y-124992333D01*
X109959924Y-124742411D01*
X109969473Y-124905328D01*
X109979022Y-125068244D01*
X110098813Y-124886878D01*
X110174292Y-124767235D01*
X110249993Y-124637694D01*
X110320774Y-124507803D01*
X110381490Y-124387106D01*
X110426999Y-124285150D01*
X110437253Y-124258738D01*
X110470358Y-124169130D01*
X110699000Y-124373324D01*
G37*
G36*
X104497041Y-120701207D02*
G01*
X104604679Y-120702224D01*
X104684963Y-120705733D01*
X104748721Y-120713214D01*
X104806780Y-120726149D01*
X104869969Y-120746020D01*
X104899022Y-120756212D01*
X105028898Y-120806636D01*
X105161599Y-120866847D01*
X105299662Y-120938577D01*
X105445623Y-121023555D01*
X105602019Y-121123510D01*
X105771387Y-121240172D01*
X105956262Y-121375270D01*
X106159181Y-121530535D01*
X106382680Y-121707697D01*
X106629296Y-121908483D01*
X106818005Y-122064822D01*
X107071785Y-122284722D01*
X107326013Y-122520897D01*
X107573106Y-122765712D01*
X107805479Y-123011534D01*
X108015549Y-123250728D01*
X108109335Y-123364812D01*
X108116842Y-123384332D01*
X108107617Y-123410898D01*
X108077899Y-123451230D01*
X108031575Y-123503701D01*
X107930852Y-123613943D01*
X107790074Y-123446407D01*
X107627484Y-123257660D01*
X107464818Y-123079091D01*
X107296946Y-122905754D01*
X107118739Y-122732704D01*
X106925066Y-122554995D01*
X106710798Y-122367680D01*
X106470805Y-122165816D01*
X106408037Y-122114019D01*
X106140696Y-121897189D01*
X105897692Y-121706782D01*
X105677008Y-121541572D01*
X105476624Y-121400334D01*
X105294525Y-121281845D01*
X105128691Y-121184879D01*
X104977107Y-121108211D01*
X104837753Y-121050618D01*
X104708613Y-121010874D01*
X104587668Y-120987754D01*
X104545153Y-120983215D01*
X104403930Y-120983852D01*
X104281495Y-121013643D01*
X104168643Y-121075757D01*
X104091203Y-121139439D01*
X104012117Y-121224168D01*
X103941096Y-121325924D01*
X103876697Y-121448261D01*
X103817474Y-121594731D01*
X103761985Y-121768888D01*
X103708783Y-121974284D01*
X103658695Y-122203298D01*
X103613492Y-122441999D01*
X103581845Y-122649171D01*
X103563320Y-122828828D01*
X103557481Y-122984984D01*
X103561787Y-123097443D01*
X103595117Y-123352762D01*
X103654552Y-123582807D01*
X103741958Y-123791824D01*
X103859199Y-123984059D01*
X104008143Y-124163756D01*
X104048597Y-124205275D01*
X104096598Y-124252481D01*
X104145205Y-124298640D01*
X104196562Y-124345380D01*
X104252817Y-124394333D01*
X104316113Y-124447130D01*
X104388598Y-124505400D01*
X104472416Y-124570774D01*
X104569712Y-124644883D01*
X104682633Y-124729357D01*
X104813324Y-124825826D01*
X104963930Y-124935922D01*
X105136597Y-125061274D01*
X105333471Y-125203514D01*
X105556696Y-125364271D01*
X105808419Y-125545176D01*
X105868756Y-125588501D01*
X106016807Y-125695103D01*
X106154634Y-125794930D01*
X106279266Y-125885791D01*
X106387736Y-125965493D01*
X106477076Y-126031844D01*
X106544316Y-126082653D01*
X106586489Y-126115727D01*
X106600626Y-126128873D01*
X106600587Y-126128936D01*
X106581002Y-126125056D01*
X106530695Y-126109474D01*
X106454704Y-126083911D01*
X106358065Y-126050086D01*
X106245815Y-126009723D01*
X106165590Y-125980323D01*
X105990996Y-125916019D01*
X105847078Y-125863413D01*
X105728754Y-125820764D01*
X105630945Y-125786334D01*
X105548572Y-125758385D01*
X105476555Y-125735175D01*
X105409814Y-125714968D01*
X105343270Y-125696023D01*
X105302883Y-125684961D01*
X105133813Y-125639146D01*
X105146355Y-125709911D01*
X105175257Y-125810957D01*
X105228060Y-125914440D01*
X105307849Y-126025182D01*
X105417709Y-126148007D01*
X105443243Y-126174125D01*
X105593404Y-126314453D01*
X105753409Y-126440317D01*
X105929918Y-126555989D01*
X106129589Y-126665742D01*
X106359081Y-126773848D01*
X106417293Y-126799147D01*
X106524509Y-126843039D01*
X106652454Y-126892169D01*
X106791219Y-126943027D01*
X106930894Y-126992108D01*
X107061570Y-127035903D01*
X107173338Y-127070903D01*
X107231457Y-127087356D01*
X107288557Y-127109087D01*
X107321715Y-127142853D01*
X107334700Y-127170164D01*
X107356644Y-127223647D01*
X107386052Y-127292461D01*
X107403807Y-127332934D01*
X107427989Y-127388835D01*
X107444243Y-127429154D01*
X107448571Y-127442746D01*
X107446543Y-127448052D01*
X107436416Y-127449194D01*
X107412126Y-127444873D01*
X107367609Y-127433790D01*
X107296800Y-127414644D01*
X107225098Y-127394850D01*
X106860785Y-127284834D01*
X106521285Y-127163715D01*
X106208464Y-127032499D01*
X105924189Y-126892193D01*
X105670327Y-126743803D01*
X105448743Y-126588335D01*
X105261305Y-126426795D01*
X105109878Y-126260190D01*
X105102349Y-126250534D01*
X105011267Y-126125099D01*
X104944468Y-126013677D01*
X104896688Y-125906073D01*
X104862665Y-125792093D01*
X104860145Y-125781379D01*
X104842033Y-125653832D01*
X104849811Y-125545220D01*
X104882615Y-125459114D01*
X104939583Y-125399084D01*
X104954686Y-125390045D01*
X104990049Y-125366696D01*
X105004060Y-125349067D01*
X104989280Y-125333960D01*
X104948050Y-125300286D01*
X104885033Y-125251633D01*
X104804892Y-125191587D01*
X104712290Y-125123738D01*
X104693721Y-125110297D01*
X104485831Y-124957904D01*
X104306543Y-124821536D01*
X104151602Y-124697741D01*
X104016755Y-124583065D01*
X103897747Y-124474056D01*
X103838111Y-124415872D01*
X103687769Y-124252565D01*
X103565718Y-124088406D01*
X103467169Y-123914705D01*
X103387334Y-123722775D01*
X103321424Y-123503927D01*
X103309751Y-123457230D01*
X103291949Y-123354049D01*
X103280162Y-123222057D01*
X103274303Y-123070147D01*
X103274287Y-122907214D01*
X103280026Y-122742150D01*
X103291435Y-122583851D01*
X103308426Y-122441209D01*
X103320300Y-122371729D01*
X103378380Y-122089835D01*
X103436175Y-121843232D01*
X103495089Y-121629056D01*
X103556531Y-121444440D01*
X103621905Y-121286518D01*
X103692619Y-121152424D01*
X103770078Y-121039292D01*
X103855690Y-120944256D01*
X103950860Y-120864450D01*
X104056994Y-120797009D01*
X104105537Y-120771502D01*
X104247842Y-120700676D01*
X104497041Y-120701207D01*
G37*
G36*
X106497675Y-128074865D02*
G01*
X106553171Y-128095265D01*
X106597427Y-128118957D01*
X106691622Y-128174407D01*
X106616525Y-128186823D01*
X106411965Y-128222805D01*
X106233691Y-128258624D01*
X106084537Y-128293605D01*
X105967333Y-128327076D01*
X105884911Y-128358363D01*
X105874879Y-128363254D01*
X105819457Y-128391501D01*
X105935291Y-128453390D01*
X106110813Y-128565800D01*
X106284113Y-128712979D01*
X106452440Y-128891505D01*
X106613045Y-129097954D01*
X106763180Y-129328904D01*
X106900096Y-129580932D01*
X106981223Y-129755634D01*
X107011548Y-129824386D01*
X107031019Y-129862556D01*
X107043928Y-129874625D01*
X107054567Y-129865075D01*
X107065088Y-129843183D01*
X107114146Y-129754096D01*
X107173534Y-129677429D01*
X107233879Y-129625152D01*
X107237530Y-129622931D01*
X107280515Y-129601611D01*
X107313996Y-129601823D01*
X107350275Y-129617872D01*
X107416462Y-129668292D01*
X107488516Y-129752347D01*
X107564401Y-129866303D01*
X107642083Y-130006426D01*
X107719525Y-130168980D01*
X107794691Y-130350234D01*
X107865546Y-130546451D01*
X107879487Y-130588595D01*
X107904555Y-130661599D01*
X107926524Y-130718418D01*
X107942149Y-130750976D01*
X107946661Y-130755639D01*
X107958873Y-130739166D01*
X107970681Y-130699390D01*
X107970971Y-130697961D01*
X107984412Y-130653444D01*
X108009678Y-130587249D01*
X108041864Y-130512033D01*
X108049749Y-130494746D01*
X108116991Y-130349209D01*
X108182077Y-130431458D01*
X108295354Y-130594452D01*
X108404869Y-130790719D01*
X108508741Y-131015384D01*
X108605087Y-131263571D01*
X108692025Y-131530404D01*
X108767672Y-131811009D01*
X108830147Y-132100508D01*
X108833682Y-132119381D01*
X108849395Y-132211066D01*
X108855951Y-132280673D01*
X108852129Y-132341516D01*
X108836708Y-132406909D01*
X108808468Y-132490166D01*
X108796736Y-132522180D01*
X108772415Y-132593431D01*
X108754764Y-132655384D01*
X108747345Y-132695417D01*
X108747301Y-132697222D01*
X108733088Y-132726284D01*
X108693068Y-132775919D01*
X108631067Y-132842600D01*
X108550909Y-132922797D01*
X108456417Y-133012983D01*
X108351417Y-133109628D01*
X108239733Y-133209204D01*
X108125190Y-133308182D01*
X108011611Y-133403034D01*
X107902821Y-133490232D01*
X107816387Y-133556128D01*
X107754226Y-133601400D01*
X107704215Y-133636423D01*
X107673793Y-133656052D01*
X107668380Y-133658496D01*
X107659679Y-133642952D01*
X107658646Y-133630394D01*
X107649632Y-133590411D01*
X107626439Y-133530084D01*
X107594842Y-133461637D01*
X107560614Y-133397295D01*
X107529529Y-133349284D01*
X107521198Y-133339376D01*
X107481189Y-133296788D01*
X107364617Y-133388810D01*
X107264952Y-133466769D01*
X107151116Y-133554601D01*
X107027182Y-133649275D01*
X106897223Y-133747755D01*
X106765312Y-133847007D01*
X106635521Y-133943998D01*
X106511926Y-134035693D01*
X106398597Y-134119059D01*
X106299609Y-134191062D01*
X106219035Y-134248667D01*
X106160948Y-134288840D01*
X106130895Y-134307782D01*
X106100233Y-134321872D01*
X106095111Y-134313193D01*
X106101407Y-134295718D01*
X106110809Y-134260614D01*
X106122723Y-134199361D01*
X106134923Y-134123709D01*
X106137724Y-134104161D01*
X106159473Y-133948247D01*
X106636917Y-133607235D01*
X106768094Y-133513383D01*
X106900122Y-133418631D01*
X107026760Y-133327481D01*
X107141768Y-133244431D01*
X107238903Y-133173981D01*
X107311927Y-133120632D01*
X107318906Y-133115495D01*
X107523452Y-132964766D01*
X107490786Y-132908981D01*
X107433357Y-132823698D01*
X107350359Y-132718799D01*
X107245799Y-132598838D01*
X107123684Y-132468368D01*
X106988021Y-132331942D01*
X106952907Y-132297870D01*
X106851611Y-132199669D01*
X106777841Y-132124725D01*
X106731522Y-132069896D01*
X106712578Y-132032039D01*
X106720932Y-132008012D01*
X106756510Y-131994671D01*
X106819235Y-131988872D01*
X106909031Y-131987475D01*
X106945416Y-131987443D01*
X107026451Y-131986299D01*
X107090434Y-131983206D01*
X107129669Y-131978675D01*
X107138233Y-131974654D01*
X107124541Y-131955684D01*
X107091277Y-131914440D01*
X107043857Y-131857536D01*
X107002262Y-131808565D01*
X106875546Y-131670882D01*
X106720864Y-131520447D01*
X106543876Y-131362624D01*
X106436391Y-131272407D01*
X106378953Y-131224175D01*
X106334171Y-131184619D01*
X106309353Y-131160268D01*
X106306761Y-131156614D01*
X106320941Y-131144196D01*
X106363573Y-131121523D01*
X106427502Y-131092161D01*
X106483404Y-131068592D01*
X106559028Y-131036618D01*
X106619314Y-131008935D01*
X106656824Y-130989092D01*
X106665552Y-130981660D01*
X106650499Y-130958076D01*
X106608891Y-130917809D01*
X106546088Y-130865157D01*
X106467454Y-130804418D01*
X106378349Y-130739889D01*
X106284136Y-130675868D01*
X106283609Y-130675522D01*
X106065698Y-130543030D01*
X105814595Y-130409092D01*
X105535122Y-130275985D01*
X105232101Y-130145985D01*
X104910352Y-130021368D01*
X104856449Y-130001718D01*
X104766605Y-129968009D01*
X104692191Y-129937715D01*
X104639353Y-129913526D01*
X104614235Y-129898132D01*
X104613178Y-129895234D01*
X104643066Y-129874376D01*
X104702553Y-129852817D01*
X104783141Y-129832588D01*
X104876330Y-129815719D01*
X104973623Y-129804243D01*
X105002766Y-129802129D01*
X105182900Y-129791203D01*
X105086782Y-129705263D01*
X105038151Y-129666625D01*
X104971597Y-129620114D01*
X104895085Y-129570553D01*
X104816580Y-129522763D01*
X104744047Y-129481565D01*
X104685450Y-129451783D01*
X104648754Y-129438236D01*
X104645128Y-129437894D01*
X104621576Y-129425930D01*
X104581661Y-129395403D01*
X104555737Y-129372706D01*
X104504029Y-129332994D01*
X104431336Y-129286672D01*
X104351632Y-129242513D01*
X104335132Y-129234247D01*
X104268661Y-129199386D01*
X104218491Y-129168721D01*
X104192230Y-129147101D01*
X104190161Y-129141879D01*
X104208324Y-129127143D01*
X104256381Y-129098567D01*
X104329619Y-129058476D01*
X104423329Y-129009200D01*
X104532798Y-128953065D01*
X104653314Y-128892398D01*
X104780168Y-128829527D01*
X104908647Y-128766779D01*
X105034040Y-128706481D01*
X105151635Y-128650960D01*
X105256722Y-128602544D01*
X105344588Y-128563559D01*
X105410524Y-128536334D01*
X105431909Y-128528497D01*
X105601939Y-128470430D01*
X105502210Y-128405808D01*
X105448709Y-128369843D01*
X105423221Y-128347136D01*
X105421062Y-128331198D01*
X105437217Y-128315786D01*
X105476250Y-128295839D01*
X105544928Y-128269267D01*
X105635752Y-128238350D01*
X105741224Y-128205365D01*
X105853845Y-128172592D01*
X105966116Y-128142309D01*
X106070540Y-128116794D01*
X106142044Y-128101607D01*
X106266675Y-128079268D01*
X106362265Y-128067165D01*
X106436652Y-128065598D01*
X106497675Y-128074865D01*
G37*
G36*
X109367032Y-126810154D02*
G01*
X109471133Y-126815347D01*
X109564606Y-126821134D01*
X109639387Y-126826931D01*
X109687412Y-126832157D01*
X109697588Y-126834022D01*
X109728088Y-126843827D01*
X109729014Y-126858389D01*
X109706066Y-126885923D01*
X109671376Y-126928193D01*
X109661125Y-126958351D01*
X109678130Y-126984995D01*
X109725207Y-127016723D01*
X109754431Y-127033524D01*
X109854744Y-127093532D01*
X109972867Y-127169237D01*
X110096732Y-127252544D01*
X110214271Y-127335357D01*
X110303684Y-127402008D01*
X110389744Y-127473423D01*
X110487801Y-127562576D01*
X110589875Y-127661464D01*
X110687984Y-127762082D01*
X110774149Y-127856428D01*
X110840389Y-127936497D01*
X110851558Y-127951488D01*
X110933909Y-128065021D01*
X110977038Y-127970884D01*
X111006738Y-127895809D01*
X111036623Y-127803225D01*
X111063491Y-127705211D01*
X111084139Y-127613844D01*
X111095366Y-127541200D01*
X111096501Y-127520291D01*
X111100277Y-127463277D01*
X111107652Y-127420698D01*
X111118504Y-127395689D01*
X111140291Y-127388198D01*
X111184897Y-127395065D01*
X111195337Y-127397373D01*
X111313189Y-127437149D01*
X111427663Y-127505028D01*
X111462449Y-127531215D01*
X111501882Y-127559579D01*
X111529242Y-127569000D01*
X111547364Y-127555378D01*
X111559084Y-127514613D01*
X111567235Y-127442606D01*
X111572272Y-127372402D01*
X111583233Y-127204821D01*
X111665417Y-127266207D01*
X111747601Y-127327594D01*
X111737480Y-127463654D01*
X111727403Y-127540213D01*
X111708836Y-127632344D01*
X111684753Y-127728911D01*
X111658129Y-127818778D01*
X111631936Y-127890807D01*
X111613528Y-127927742D01*
X111597375Y-127939914D01*
X111574308Y-127926607D01*
X111546569Y-127896280D01*
X111507650Y-127857929D01*
X111453509Y-127813991D01*
X111394335Y-127771624D01*
X111340318Y-127737991D01*
X111301646Y-127720251D01*
X111294430Y-127719097D01*
X111283113Y-127736467D01*
X111264310Y-127784207D01*
X111240308Y-127855764D01*
X111213393Y-127944583D01*
X111202823Y-127981691D01*
X111173331Y-128083074D01*
X111143941Y-128177199D01*
X111117642Y-128254938D01*
X111097420Y-128307165D01*
X111093676Y-128315141D01*
X111070983Y-128367186D01*
X111058739Y-128408733D01*
X111058045Y-128416004D01*
X111050566Y-128442195D01*
X111024769Y-128454552D01*
X110975608Y-128453332D01*
X110898040Y-128438796D01*
X110847756Y-128426797D01*
X110689828Y-128387490D01*
X110608716Y-128470946D01*
X110455411Y-128605126D01*
X110279849Y-128718416D01*
X110094395Y-128803077D01*
X110058014Y-128815630D01*
X110034082Y-128828631D01*
X110039845Y-128850950D01*
X110048465Y-128863651D01*
X110132192Y-128983387D01*
X110220086Y-129113878D01*
X110309873Y-129251305D01*
X110399281Y-129391849D01*
X110486036Y-129531691D01*
X110567865Y-129667013D01*
X110642496Y-129793997D01*
X110707656Y-129908823D01*
X110761070Y-130007674D01*
X110800467Y-130086731D01*
X110823574Y-130142175D01*
X110828117Y-130170188D01*
X110827114Y-130171732D01*
X110805986Y-130170262D01*
X110759098Y-130157722D01*
X110696326Y-130136780D01*
X110692199Y-130135288D01*
X110611541Y-130110247D01*
X110529127Y-130091336D01*
X110473321Y-130083661D01*
X110380166Y-130077669D01*
X110366825Y-130220902D01*
X110359297Y-130302041D01*
X110349737Y-130405561D01*
X110339588Y-130515804D01*
X110333350Y-130583759D01*
X110311577Y-130804782D01*
X110288328Y-131003655D01*
X110261776Y-131192359D01*
X110230093Y-131382872D01*
X110191454Y-131587177D01*
X110148434Y-131796466D01*
X110113122Y-131957345D01*
X110083121Y-132080748D01*
X110058455Y-132166588D01*
X110039149Y-132214775D01*
X110027872Y-132226165D01*
X110017126Y-132209001D01*
X110005872Y-132164898D01*
X109999617Y-132125902D01*
X109980832Y-132019740D01*
X109952709Y-131909370D01*
X109918310Y-131803344D01*
X109880695Y-131710213D01*
X109842927Y-131638530D01*
X109811048Y-131599181D01*
X109791259Y-131591512D01*
X109766692Y-131604246D01*
X109730490Y-131641978D01*
X109709422Y-131667301D01*
X109654453Y-131733199D01*
X109580378Y-131819776D01*
X109493831Y-131919490D01*
X109401443Y-132024799D01*
X109309849Y-132128161D01*
X109225682Y-132222035D01*
X109155574Y-132298879D01*
X109127385Y-132329066D01*
X109074699Y-132383966D01*
X109042077Y-132414077D01*
X109023686Y-132422683D01*
X109013696Y-132413070D01*
X109008285Y-132396176D01*
X109001805Y-132353213D01*
X108997258Y-132287450D01*
X108995749Y-132224130D01*
X108995488Y-132097959D01*
X109350358Y-131732606D01*
X109705228Y-131367253D01*
X109681931Y-131295393D01*
X109635467Y-131178699D01*
X109566777Y-131042446D01*
X109480412Y-130894308D01*
X109380925Y-130741962D01*
X109272869Y-130593081D01*
X109241284Y-130552538D01*
X109195526Y-130493834D01*
X109171230Y-130458075D01*
X109165791Y-130438547D01*
X109176602Y-130428536D01*
X109191346Y-130423889D01*
X109236595Y-130416806D01*
X109299571Y-130412607D01*
X109324646Y-130412140D01*
X109415081Y-130411879D01*
X109378255Y-130318449D01*
X109317157Y-130188270D01*
X109231979Y-130048052D01*
X109121028Y-129895594D01*
X108982607Y-129728695D01*
X108815024Y-129545154D01*
X108662241Y-129388288D01*
X108566833Y-129293324D01*
X108473680Y-129201920D01*
X108388432Y-129119522D01*
X108316741Y-129051577D01*
X108264256Y-129003530D01*
X108251678Y-128992599D01*
X108202553Y-128947901D01*
X108169819Y-128912167D01*
X108159848Y-128892452D01*
X108160414Y-128891565D01*
X108185241Y-128884213D01*
X108235477Y-128878916D01*
X108277673Y-128877283D01*
X108327018Y-128875387D01*
X108355629Y-128869465D01*
X108361472Y-128856604D01*
X108342514Y-128833890D01*
X108296722Y-128798412D01*
X108222062Y-128747257D01*
X108156654Y-128703933D01*
X107972731Y-128588534D01*
X107789811Y-128486522D01*
X107594718Y-128390979D01*
X107391278Y-128302061D01*
X107287720Y-128258366D01*
X107185902Y-128214592D01*
X107096271Y-128175283D01*
X107029277Y-128144985D01*
X107018872Y-128140102D01*
X106937808Y-128104505D01*
X106850732Y-128070519D01*
X106799248Y-128052837D01*
X106690653Y-128018060D01*
X106608158Y-127989444D01*
X106541105Y-127962779D01*
X106478835Y-127933854D01*
X106416851Y-127901755D01*
X106295290Y-127836806D01*
X106370615Y-127820922D01*
X106410638Y-127816637D01*
X106482926Y-127813029D01*
X106581557Y-127810107D01*
X106700606Y-127807878D01*
X106834149Y-127806348D01*
X106976263Y-127805525D01*
X107121023Y-127805417D01*
X107262507Y-127806031D01*
X107394789Y-127807374D01*
X107511947Y-127809453D01*
X107608057Y-127812276D01*
X107677194Y-127815850D01*
X107709156Y-127819265D01*
X107788312Y-127833493D01*
X107743452Y-127661300D01*
X107719230Y-127570528D01*
X107700563Y-127509084D01*
X107684008Y-127469175D01*
X107666125Y-127443008D01*
X107643472Y-127422791D01*
X107635556Y-127416954D01*
X107600160Y-127379504D01*
X107560465Y-127320379D01*
X107523610Y-127252628D01*
X107496733Y-127189303D01*
X107486946Y-127145277D01*
X107489545Y-127121482D01*
X107502288Y-127103936D01*
X107532282Y-127088793D01*
X107586633Y-127072209D01*
X107653872Y-127054959D01*
X107746875Y-127031424D01*
X107859178Y-127002508D01*
X107973196Y-126972757D01*
X108031052Y-126957475D01*
X108412500Y-126873967D01*
X108801233Y-126823216D01*
X109188294Y-126806210D01*
X109367032Y-126810154D01*
G37*
G36*
X104544396Y-129553735D02*
G01*
X104639950Y-129594841D01*
X104435276Y-129737962D01*
X104247253Y-129874849D01*
X104040005Y-130035502D01*
X103819516Y-130214993D01*
X103591769Y-130408391D01*
X103362747Y-130610768D01*
X103239641Y-130722981D01*
X103161127Y-130795361D01*
X103218421Y-130785611D01*
X103300342Y-130773236D01*
X103397656Y-130760986D01*
X103503742Y-130749408D01*
X103611977Y-130739047D01*
X103715740Y-130730451D01*
X103808409Y-130724164D01*
X103883362Y-130720735D01*
X103933977Y-130720708D01*
X103953632Y-130724630D01*
X103953684Y-130724954D01*
X103937969Y-130738897D01*
X103899369Y-130758746D01*
X103891616Y-130762087D01*
X103843963Y-130789162D01*
X103784018Y-130832646D01*
X103737162Y-130872156D01*
X103644776Y-130956165D01*
X103784906Y-130959591D01*
X103870703Y-130966141D01*
X103977292Y-130980683D01*
X104091274Y-131000760D01*
X104199248Y-131023914D01*
X104287812Y-131047688D01*
X104314444Y-131056690D01*
X104335670Y-131066714D01*
X104338710Y-131079360D01*
X104319804Y-131100741D01*
X104275191Y-131136972D01*
X104255841Y-131151953D01*
X104157251Y-131237684D01*
X104085701Y-131324160D01*
X104052325Y-131379746D01*
X104042403Y-131403452D01*
X104048970Y-131418506D01*
X104079065Y-131429992D01*
X104139723Y-131442992D01*
X104139934Y-131443033D01*
X104334788Y-131492602D01*
X104552625Y-131568370D01*
X104790132Y-131668833D01*
X105043997Y-131792488D01*
X105310905Y-131937831D01*
X105567424Y-132090832D01*
X105739285Y-132197518D01*
X105555944Y-132209495D01*
X105447835Y-132219567D01*
X105362911Y-132235654D01*
X105286262Y-132260990D01*
X105252531Y-132275357D01*
X105190788Y-132303919D01*
X105159688Y-132321981D01*
X105154687Y-132333901D01*
X105171240Y-132344036D01*
X105178072Y-132346747D01*
X105370141Y-132431628D01*
X105531075Y-132527845D01*
X105667192Y-132639242D01*
X105681676Y-132653334D01*
X105797306Y-132779494D01*
X105885890Y-132905226D01*
X105950506Y-133038144D01*
X105994232Y-133185857D01*
X106020146Y-133355979D01*
X106030187Y-133515263D01*
X106027344Y-133758837D01*
X106000187Y-133989955D01*
X105946586Y-134223150D01*
X105908158Y-134348237D01*
X105857088Y-134502759D01*
X105700607Y-134605815D01*
X105611575Y-134662408D01*
X105550160Y-134696420D01*
X105514008Y-134708945D01*
X105500763Y-134701077D01*
X105500601Y-134698688D01*
X105508557Y-134677364D01*
X105529044Y-134633237D01*
X105548114Y-134594742D01*
X105579907Y-134525277D01*
X105613202Y-134441623D01*
X105644491Y-134354034D01*
X105670268Y-134272766D01*
X105687024Y-134208073D01*
X105691578Y-134175267D01*
X105689743Y-134154717D01*
X105679103Y-134148132D01*
X105651961Y-134156588D01*
X105600619Y-134181161D01*
X105581766Y-134190620D01*
X105458097Y-134249933D01*
X105318690Y-134311938D01*
X105170284Y-134374073D01*
X105019616Y-134433774D01*
X104873425Y-134488480D01*
X104738447Y-134535627D01*
X104621420Y-134572653D01*
X104529082Y-134596996D01*
X104497089Y-134603175D01*
X104419818Y-134615425D01*
X104420108Y-134447299D01*
X104417130Y-134344368D01*
X104407061Y-134271356D01*
X104388820Y-134220464D01*
X104388638Y-134220124D01*
X104356878Y-134161076D01*
X104093213Y-134148501D01*
X103976439Y-134140618D01*
X103854256Y-134128494D01*
X103741275Y-134113792D01*
X103653272Y-134098423D01*
X103524265Y-134067292D01*
X103429261Y-134034787D01*
X103364094Y-133998160D01*
X103324597Y-133954665D01*
X103306603Y-133901557D01*
X103304360Y-133868450D01*
X103301003Y-133792685D01*
X103286290Y-133743470D01*
X103253263Y-133714033D01*
X103194961Y-133697603D01*
X103119684Y-133688745D01*
X102982439Y-133672196D01*
X102821029Y-133645914D01*
X102647554Y-133612168D01*
X102474112Y-133573224D01*
X102387669Y-133551598D01*
X101941279Y-133415885D01*
X101509533Y-133245262D01*
X101093739Y-133040613D01*
X100695206Y-132802819D01*
X100315243Y-132532763D01*
X99955157Y-132231328D01*
X99616258Y-131899396D01*
X99299853Y-131537850D01*
X99184431Y-131391102D01*
X99093409Y-131269588D01*
X99027689Y-131176651D01*
X98987257Y-131112270D01*
X98972097Y-131076421D01*
X98973504Y-131069603D01*
X98991625Y-131076174D01*
X99032099Y-131101319D01*
X99087174Y-131140105D01*
X99104592Y-131153065D01*
X99348854Y-131325882D01*
X99621051Y-131498451D01*
X99911367Y-131664704D01*
X100057744Y-131742273D01*
X100486111Y-131946349D01*
X100909589Y-132114185D01*
X101327407Y-132245558D01*
X101738791Y-132340241D01*
X102142973Y-132398009D01*
X102359000Y-132413826D01*
X102626347Y-132426691D01*
X102678442Y-132522180D01*
X102707011Y-132577227D01*
X102726122Y-132619167D01*
X102730982Y-132634818D01*
X102713242Y-132641838D01*
X102663692Y-132645383D01*
X102588528Y-132645777D01*
X102493946Y-132643344D01*
X102386141Y-132638409D01*
X102271309Y-132631295D01*
X102155647Y-132622327D01*
X102045350Y-132611829D01*
X101946614Y-132600126D01*
X101881578Y-132590364D01*
X101483046Y-132507211D01*
X101088502Y-132395035D01*
X100707545Y-132256931D01*
X100353759Y-132097979D01*
X100258270Y-132050397D01*
X100363308Y-132158787D01*
X100430073Y-132221093D01*
X100514173Y-132290375D01*
X100600131Y-132354061D01*
X100621952Y-132368866D01*
X100691473Y-132416275D01*
X100750510Y-132459079D01*
X100790483Y-132490936D01*
X100800945Y-132501141D01*
X100838432Y-132526721D01*
X100862188Y-132531729D01*
X100891941Y-132539365D01*
X100898045Y-132548943D01*
X100914076Y-132565292D01*
X100955897Y-132591781D01*
X101014092Y-132623727D01*
X101079249Y-132656447D01*
X101141956Y-132685257D01*
X101192798Y-132705473D01*
X101222364Y-132712412D01*
X101225104Y-132711676D01*
X101240999Y-132713229D01*
X101241804Y-132717750D01*
X101259621Y-132733340D01*
X101309651Y-132755529D01*
X101386762Y-132782901D01*
X101485822Y-132814040D01*
X101601697Y-132847532D01*
X101729256Y-132881959D01*
X101863367Y-132915907D01*
X101998898Y-132947960D01*
X102130715Y-132976701D01*
X102253688Y-133000716D01*
X102292180Y-133007486D01*
X102385519Y-133021756D01*
X102495679Y-133036043D01*
X102615254Y-133049667D01*
X102736839Y-133061943D01*
X102853028Y-133072188D01*
X102956416Y-133079719D01*
X103039597Y-133083854D01*
X103095164Y-133083908D01*
X103107606Y-133082700D01*
X103148915Y-133076015D01*
X103102644Y-132944220D01*
X103069211Y-132860801D01*
X103024209Y-132764546D01*
X102972947Y-132665336D01*
X102920736Y-132573051D01*
X102872886Y-132497570D01*
X102838543Y-132452829D01*
X102809745Y-132417963D01*
X102766053Y-132361102D01*
X102714506Y-132291519D01*
X102683132Y-132248076D01*
X102633397Y-132178515D01*
X102590836Y-132119008D01*
X102561107Y-132077462D01*
X102551278Y-132063745D01*
X102550666Y-132034919D01*
X102565759Y-131977944D01*
X102594069Y-131898261D01*
X102633109Y-131801305D01*
X102680393Y-131692515D01*
X102733434Y-131577329D01*
X102789744Y-131461184D01*
X102846838Y-131349519D01*
X102902228Y-131247771D01*
X102953428Y-131161379D01*
X102987283Y-131110352D01*
X103021025Y-131057866D01*
X103040954Y-131016770D01*
X103043277Y-130998628D01*
X103016806Y-130988653D01*
X102963326Y-130989786D01*
X102891698Y-131000007D01*
X102810780Y-131017293D01*
X102729433Y-131039626D01*
X102656516Y-131064985D01*
X102600890Y-131091349D01*
X102583191Y-131103551D01*
X102555243Y-131119751D01*
X102546152Y-131111247D01*
X102555133Y-131086094D01*
X102581402Y-131052349D01*
X102588886Y-131045068D01*
X102775750Y-130874069D01*
X102972984Y-130698012D01*
X103176007Y-130520722D01*
X103380241Y-130346027D01*
X103581103Y-130177751D01*
X103774016Y-130019722D01*
X103954399Y-129875765D01*
X104117671Y-129749708D01*
X104259254Y-129645375D01*
X104291977Y-129622258D01*
X104448843Y-129512629D01*
X104544396Y-129553735D01*
G37*
G36*
X117835292Y-120954245D02*
G01*
X117859217Y-120956731D01*
X118070004Y-120993725D01*
X118253794Y-121055589D01*
X118412282Y-121143861D01*
X118547163Y-121260083D01*
X118660134Y-121405794D01*
X118752889Y-121582532D01*
X118827125Y-121791839D01*
X118843213Y-121850293D01*
X118860590Y-121921114D01*
X118873775Y-121987662D01*
X118883561Y-122057759D01*
X118890740Y-122139226D01*
X118896104Y-122239885D01*
X118900446Y-122367558D01*
X118902194Y-122432644D01*
X118904740Y-122697082D01*
X118897442Y-122936843D01*
X118879401Y-123164384D01*
X118849715Y-123392162D01*
X118820266Y-123565250D01*
X118750122Y-123902632D01*
X118667900Y-124223192D01*
X118574726Y-124524563D01*
X118471728Y-124804379D01*
X118360033Y-125060273D01*
X118240767Y-125289877D01*
X118115058Y-125490826D01*
X117984032Y-125660753D01*
X117848816Y-125797290D01*
X117710537Y-125898071D01*
X117709117Y-125898905D01*
X117663097Y-125921491D01*
X117588810Y-125952893D01*
X117494258Y-125989949D01*
X117387443Y-126029494D01*
X117306650Y-126058004D01*
X117186658Y-126099598D01*
X117063989Y-126142416D01*
X116949509Y-126182645D01*
X116854080Y-126216474D01*
X116812241Y-126231480D01*
X116636588Y-126294915D01*
X116735033Y-126320109D01*
X116823545Y-126350715D01*
X116883829Y-126393318D01*
X116925579Y-126455364D01*
X116933237Y-126472356D01*
X116957621Y-126577545D01*
X116950681Y-126700423D01*
X116913640Y-126838687D01*
X116847720Y-126990038D01*
X116754147Y-127152174D01*
X116634141Y-127322794D01*
X116488927Y-127499598D01*
X116319729Y-127680284D01*
X116259484Y-127739745D01*
X115959225Y-128004134D01*
X115635172Y-128239058D01*
X115288773Y-128443716D01*
X114921479Y-128617307D01*
X114534737Y-128759030D01*
X114285563Y-128830611D01*
X114201796Y-128851409D01*
X114129502Y-128866656D01*
X114059515Y-128877354D01*
X113982670Y-128884504D01*
X113889800Y-128889109D01*
X113771739Y-128892170D01*
X113712631Y-128893233D01*
X113594506Y-128894696D01*
X113484404Y-128895123D01*
X113390104Y-128894554D01*
X113319387Y-128893033D01*
X113282932Y-128890947D01*
X113035529Y-128860725D01*
X112760016Y-128820378D01*
X112464699Y-128771307D01*
X112157883Y-128714914D01*
X111847875Y-128652597D01*
X111764661Y-128634929D01*
X111643977Y-128609007D01*
X111530238Y-128584581D01*
X111430949Y-128563262D01*
X111353614Y-128546661D01*
X111305737Y-128536391D01*
X111304226Y-128536067D01*
X111216196Y-128517203D01*
X111257889Y-128385703D01*
X111279640Y-128319896D01*
X111297931Y-128269575D01*
X111309082Y-128244806D01*
X111309615Y-128244169D01*
X111330559Y-128244908D01*
X111382689Y-128253048D01*
X111459960Y-128267461D01*
X111556326Y-128287024D01*
X111661515Y-128309675D01*
X112067558Y-128395882D01*
X112438733Y-128467338D01*
X112775387Y-128524089D01*
X113077866Y-128566180D01*
X113346516Y-128593656D01*
X113581684Y-128606564D01*
X113783714Y-128604947D01*
X113871803Y-128598764D01*
X114016253Y-128581287D01*
X114155555Y-128555704D01*
X114299334Y-128519585D01*
X114457217Y-128470500D01*
X114638830Y-128406018D01*
X114646499Y-128403168D01*
X115009657Y-128249760D01*
X115346761Y-128069148D01*
X115659881Y-127859972D01*
X115951091Y-127620870D01*
X116181514Y-127394601D01*
X116291734Y-127270517D01*
X116393779Y-127142266D01*
X116484108Y-127015334D01*
X116559180Y-126895205D01*
X116615452Y-126787361D01*
X116649383Y-126697288D01*
X116657156Y-126658094D01*
X116657845Y-126621149D01*
X116642314Y-126603879D01*
X116600372Y-126596725D01*
X116590841Y-126595906D01*
X116534636Y-126595326D01*
X116448647Y-126599417D01*
X116340891Y-126607360D01*
X116219382Y-126618335D01*
X116092137Y-126631523D01*
X115967170Y-126646104D01*
X115852498Y-126661259D01*
X115756135Y-126676167D01*
X115698797Y-126687108D01*
X115643237Y-126700232D01*
X115556102Y-126722090D01*
X115442650Y-126751308D01*
X115308140Y-126786507D01*
X115157830Y-126826311D01*
X114996978Y-126869345D01*
X114830841Y-126914232D01*
X114823345Y-126916268D01*
X114664580Y-126959146D01*
X114517291Y-126998436D01*
X114385560Y-127033088D01*
X114273467Y-127062049D01*
X114185094Y-127084266D01*
X114124522Y-127098689D01*
X114095831Y-127104265D01*
X114094230Y-127104210D01*
X114105485Y-127093953D01*
X114146281Y-127068317D01*
X114212315Y-127029631D01*
X114299285Y-126980227D01*
X114402890Y-126922432D01*
X114518827Y-126858577D01*
X114642794Y-126790991D01*
X114770490Y-126722005D01*
X114897612Y-126653947D01*
X115019858Y-126589147D01*
X115132927Y-126529936D01*
X115232516Y-126478642D01*
X115314323Y-126437596D01*
X115374046Y-126409126D01*
X115393233Y-126400766D01*
X115460929Y-126375148D01*
X115555533Y-126342409D01*
X115667196Y-126305807D01*
X115786069Y-126268598D01*
X115861127Y-126246044D01*
X115985708Y-126208190D01*
X116115317Y-126166913D01*
X116238130Y-126126105D01*
X116342323Y-126089653D01*
X116386315Y-126073291D01*
X116462607Y-126044592D01*
X116566892Y-126006208D01*
X116691109Y-125961062D01*
X116827197Y-125912073D01*
X116967095Y-125862165D01*
X117042849Y-125835344D01*
X117169552Y-125790339D01*
X117285966Y-125748459D01*
X117386706Y-125711684D01*
X117466387Y-125681993D01*
X117519624Y-125661366D01*
X117539390Y-125652810D01*
X117652728Y-125573937D01*
X117766384Y-125458391D01*
X117879350Y-125307670D01*
X117990615Y-125123274D01*
X118099168Y-124906699D01*
X118196785Y-124677767D01*
X118355750Y-124226933D01*
X118477497Y-123771816D01*
X118561728Y-123313809D01*
X118608147Y-122854304D01*
X118614346Y-122725037D01*
X118616191Y-122436250D01*
X118599467Y-122180497D01*
X118564044Y-121957362D01*
X118509792Y-121766429D01*
X118436580Y-121607282D01*
X118344280Y-121479505D01*
X118232760Y-121382682D01*
X118185462Y-121353998D01*
X118079821Y-121305457D01*
X117966499Y-121272650D01*
X117837565Y-121254260D01*
X117685088Y-121248971D01*
X117570375Y-121251901D01*
X117354810Y-121269826D01*
X117125196Y-121305976D01*
X116879546Y-121361015D01*
X116615873Y-121435611D01*
X116332190Y-121530430D01*
X116026510Y-121646138D01*
X115696845Y-121783402D01*
X115341209Y-121942889D01*
X114957614Y-122125264D01*
X114938281Y-122134694D01*
X114510205Y-122348974D01*
X114070336Y-122579626D01*
X113616111Y-122828115D01*
X113144969Y-123095908D01*
X112654349Y-123384473D01*
X112141689Y-123695275D01*
X111604427Y-124029781D01*
X111379696Y-124172053D01*
X111004279Y-124410791D01*
X110911801Y-124334692D01*
X110862465Y-124292426D01*
X110826652Y-124258614D01*
X110813310Y-124242460D01*
X110809866Y-124229968D01*
X110810728Y-124217029D01*
X110818330Y-124201928D01*
X110835107Y-124182951D01*
X110863493Y-124158386D01*
X110905921Y-124126516D01*
X110964826Y-124085629D01*
X111042643Y-124034009D01*
X111141804Y-123969944D01*
X111264745Y-123891718D01*
X111413899Y-123797618D01*
X111591701Y-123685930D01*
X111700671Y-123617584D01*
X111859609Y-123518854D01*
X112040484Y-123408088D01*
X112236625Y-123289258D01*
X112441357Y-123166333D01*
X112648009Y-123043286D01*
X112849907Y-122924086D01*
X113040379Y-122812705D01*
X113212751Y-122713114D01*
X113360352Y-122629284D01*
X113378421Y-122619165D01*
X113436251Y-122586829D01*
X113518164Y-122541005D01*
X113614914Y-122486866D01*
X113717255Y-122429587D01*
X113760375Y-122405448D01*
X113903847Y-122326915D01*
X114073954Y-122236742D01*
X114263162Y-122138699D01*
X114463933Y-122036557D01*
X114668734Y-121934089D01*
X114870028Y-121835064D01*
X115060279Y-121743255D01*
X115231952Y-121662432D01*
X115374135Y-121597859D01*
X115773224Y-121428079D01*
X116144951Y-121284141D01*
X116489934Y-121165884D01*
X116808789Y-121073150D01*
X117102134Y-121005778D01*
X117370588Y-120963609D01*
X117614768Y-120946484D01*
X117835292Y-120954245D01*
G37*
G36*
X110235887Y-120919379D02*
G01*
X110359067Y-120929849D01*
X110386279Y-121101729D01*
X110394230Y-121171104D01*
X110401149Y-121268114D01*
X110406932Y-121385892D01*
X110411478Y-121517570D01*
X110414684Y-121656280D01*
X110416449Y-121795156D01*
X110416669Y-121927329D01*
X110415242Y-122045932D01*
X110412066Y-122144097D01*
X110407039Y-122214958D01*
X110403249Y-122240775D01*
X110388660Y-122310347D01*
X110516096Y-122332539D01*
X110649464Y-122365059D01*
X110752046Y-122413426D01*
X110829660Y-122482581D01*
X110888126Y-122577467D01*
X110926924Y-122681419D01*
X110946557Y-122753002D01*
X110957476Y-122816335D01*
X110960909Y-122885278D01*
X110958081Y-122973692D01*
X110955979Y-123009585D01*
X110942064Y-123161437D01*
X110918003Y-123325658D01*
X110882735Y-123507533D01*
X110835199Y-123712349D01*
X110774333Y-123945391D01*
X110751401Y-124028458D01*
X110728531Y-124085254D01*
X110698968Y-124107201D01*
X110658993Y-124094690D01*
X110604891Y-124048111D01*
X110601135Y-124044263D01*
X110537785Y-123978903D01*
X110577093Y-123848511D01*
X110644813Y-123611039D01*
X110695209Y-123404263D01*
X110728716Y-123225069D01*
X110745775Y-123070340D01*
X110746821Y-122936959D01*
X110732294Y-122821811D01*
X110725482Y-122792360D01*
X110685870Y-122681513D01*
X110629342Y-122602019D01*
X110550758Y-122548897D01*
X110444984Y-122517168D01*
X110440840Y-122516405D01*
X110345683Y-122511675D01*
X110224010Y-122525339D01*
X110081821Y-122555747D01*
X109925115Y-122601249D01*
X109759891Y-122660195D01*
X109592149Y-122730937D01*
X109498552Y-122775486D01*
X109324738Y-122872966D01*
X109140843Y-122995866D01*
X108953947Y-123138033D01*
X108771131Y-123293314D01*
X108599474Y-123455554D01*
X108446057Y-123618600D01*
X108317961Y-123776297D01*
X108272081Y-123841449D01*
X108193614Y-123965600D01*
X108119326Y-124095453D01*
X108050992Y-124226611D01*
X107990391Y-124354673D01*
X107939301Y-124475240D01*
X107899498Y-124583913D01*
X107872760Y-124676292D01*
X107860864Y-124747978D01*
X107865589Y-124794572D01*
X107880667Y-124810253D01*
X107900426Y-124799369D01*
X107939081Y-124764200D01*
X107991330Y-124710006D01*
X108051869Y-124642053D01*
X108061475Y-124630836D01*
X108346353Y-124321636D01*
X108644909Y-124047180D01*
X108959023Y-123805885D01*
X109290391Y-123596273D01*
X109403147Y-123536040D01*
X109491402Y-123498848D01*
X109559980Y-123483265D01*
X109613701Y-123487858D01*
X109631739Y-123494843D01*
X109659438Y-123509595D01*
X109652919Y-123514992D01*
X109623151Y-123516301D01*
X109583676Y-123525268D01*
X109521598Y-123548084D01*
X109447954Y-123580515D01*
X109418560Y-123594815D01*
X109344114Y-123633328D01*
X109297441Y-123662084D01*
X109271507Y-123687061D01*
X109259282Y-123714238D01*
X109255714Y-123733274D01*
X109249223Y-123781383D01*
X109239769Y-123853447D01*
X109229179Y-123935525D01*
X109226990Y-123952659D01*
X109212795Y-124038882D01*
X109193808Y-124121461D01*
X109173786Y-124184425D01*
X109170840Y-124191381D01*
X109148762Y-124234763D01*
X109122971Y-124264076D01*
X109083127Y-124287056D01*
X109018891Y-124311437D01*
X109003103Y-124316856D01*
X108869838Y-124368809D01*
X108723029Y-124436803D01*
X108577506Y-124513319D01*
X108448096Y-124590837D01*
X108403458Y-124620938D01*
X108334346Y-124674448D01*
X108252835Y-124744828D01*
X108172036Y-124820520D01*
X108136090Y-124856654D01*
X108056704Y-124935627D01*
X107992832Y-124989378D01*
X107936118Y-125022502D01*
X107878205Y-125039593D01*
X107810736Y-125045247D01*
X107792785Y-125045413D01*
X107731380Y-125049121D01*
X107690979Y-125064855D01*
X107654732Y-125099526D01*
X107651433Y-125103413D01*
X107591613Y-125191956D01*
X107535636Y-125307000D01*
X107488489Y-125436866D01*
X107457621Y-125557292D01*
X107439202Y-125673786D01*
X107437933Y-125763641D01*
X107454572Y-125834719D01*
X107489880Y-125894883D01*
X107490288Y-125895402D01*
X107516616Y-125924458D01*
X107544907Y-125938794D01*
X107587930Y-125942064D01*
X107642941Y-125939064D01*
X107725714Y-125926276D01*
X107812709Y-125897353D01*
X107905770Y-125853875D01*
X107976793Y-125817996D01*
X108018873Y-125798619D01*
X108036934Y-125794580D01*
X108035897Y-125804715D01*
X108021664Y-125826474D01*
X107990171Y-125873398D01*
X107951631Y-125933691D01*
X107936087Y-125958782D01*
X107869029Y-126033721D01*
X107778446Y-126085774D01*
X107672814Y-126112902D01*
X107560615Y-126113065D01*
X107450325Y-126084223D01*
X107437573Y-126078695D01*
X107374165Y-126038478D01*
X107330422Y-125981256D01*
X107303772Y-125901204D01*
X107291646Y-125792499D01*
X107290341Y-125745298D01*
X107296899Y-125594260D01*
X107322532Y-125454977D01*
X107370570Y-125313526D01*
X107419608Y-125205162D01*
X107498146Y-125044749D01*
X107454261Y-125015994D01*
X107418526Y-124971391D01*
X107412292Y-124906281D01*
X107435663Y-124824541D01*
X107448509Y-124797265D01*
X107477689Y-124734929D01*
X107509862Y-124658760D01*
X107525843Y-124617743D01*
X107559498Y-124541966D01*
X107611243Y-124443153D01*
X107676494Y-124329004D01*
X107750669Y-124207222D01*
X107829184Y-124085506D01*
X107907455Y-123971558D01*
X107924702Y-123947587D01*
X107972980Y-123879639D01*
X108011411Y-123822697D01*
X108035209Y-123784024D01*
X108040601Y-123771669D01*
X108053525Y-123749222D01*
X108085389Y-123714888D01*
X108093120Y-123707708D01*
X108135733Y-123664489D01*
X108186125Y-123607053D01*
X108212450Y-123574546D01*
X108330070Y-123437751D01*
X108475516Y-123290968D01*
X108641801Y-123139931D01*
X108821943Y-122990376D01*
X109008956Y-122848037D01*
X109195856Y-122718649D01*
X109375660Y-122607948D01*
X109419420Y-122583462D01*
X109490317Y-122543739D01*
X109534550Y-122514494D01*
X109559286Y-122488480D01*
X109571697Y-122458451D01*
X109578097Y-122423067D01*
X109580751Y-122376672D01*
X109579829Y-122307747D01*
X109576028Y-122225512D01*
X109570046Y-122139191D01*
X109562581Y-122058004D01*
X109554329Y-121991174D01*
X109545989Y-121947923D01*
X109541359Y-121937248D01*
X109517992Y-121939282D01*
X109470567Y-121962065D01*
X109404353Y-122001874D01*
X109324616Y-122054987D01*
X109236627Y-122117681D01*
X109145652Y-122186234D01*
X109056960Y-122256922D01*
X108975820Y-122326024D01*
X108924855Y-122372875D01*
X108870240Y-122424145D01*
X108826351Y-122463354D01*
X108800138Y-122484372D01*
X108796221Y-122486315D01*
X108783117Y-122470691D01*
X108759681Y-122430911D01*
X108731337Y-122377612D01*
X108703508Y-122321431D01*
X108681620Y-122273007D01*
X108671096Y-122242977D01*
X108670827Y-122240397D01*
X108686126Y-122218764D01*
X108727587Y-122182322D01*
X108788551Y-122135806D01*
X108862362Y-122083947D01*
X108942363Y-122031480D01*
X109021895Y-121983137D01*
X109071879Y-121955264D01*
X109181495Y-121902303D01*
X109302108Y-121852832D01*
X109421267Y-121811369D01*
X109526519Y-121782434D01*
X109571995Y-121773783D01*
X109642412Y-121763392D01*
X109656737Y-121871809D01*
X109662429Y-121934720D01*
X109667045Y-122023516D01*
X109670080Y-122125889D01*
X109671040Y-122219478D01*
X109671018Y-122458731D01*
X109825020Y-122405396D01*
X109913064Y-122378119D01*
X110003545Y-122355273D01*
X110078701Y-122341272D01*
X110087029Y-122340265D01*
X110150627Y-122331307D01*
X110200038Y-122320729D01*
X110218659Y-122313870D01*
X110226940Y-122290099D01*
X110233429Y-122234047D01*
X110238131Y-122151588D01*
X110241054Y-122048593D01*
X110242203Y-121930936D01*
X110241585Y-121804489D01*
X110239207Y-121675125D01*
X110235075Y-121548715D01*
X110229195Y-121431134D01*
X110221574Y-121328253D01*
X110217536Y-121287932D01*
X110207620Y-121202697D01*
X110198694Y-121133465D01*
X110191791Y-121087794D01*
X110188145Y-121073082D01*
X110168927Y-121079010D01*
X110122003Y-121094906D01*
X110055651Y-121117942D01*
X110016278Y-121131784D01*
X109731686Y-121242413D01*
X109445040Y-121372907D01*
X109170183Y-121516552D01*
X108942562Y-121652660D01*
X108877227Y-121693641D01*
X108823073Y-121725867D01*
X108788861Y-121744190D01*
X108783019Y-121746414D01*
X108769194Y-121731308D01*
X108747591Y-121686807D01*
X108721360Y-121620113D01*
X108698058Y-121552213D01*
X108671242Y-121470944D01*
X108654419Y-121412162D01*
X108651210Y-121369404D01*
X108665235Y-121336203D01*
X108700117Y-121306097D01*
X108759474Y-121272621D01*
X108846929Y-121229309D01*
X108891124Y-121207517D01*
X109131942Y-121102352D01*
X109384387Y-121018665D01*
X109640360Y-120958192D01*
X109891758Y-120922668D01*
X110130481Y-120913830D01*
X110235887Y-120919379D01*
G37*
D15*
%TO.C,F5*%
X69902064Y-106590000D02*
X68697936Y-106590000D01*
X69902064Y-108410000D02*
X68697936Y-108410000D01*
%TO.C,R5*%
X135015000Y-85935436D02*
X135015000Y-86389564D01*
X136485000Y-85935436D02*
X136485000Y-86389564D01*
%TO.C,F6*%
X69914564Y-103090000D02*
X68710436Y-103090000D01*
X69914564Y-104910000D02*
X68710436Y-104910000D01*
%TD*%
M02*
