%TF.GenerationSoftware,KiCad,Pcbnew,8.0.9-8.0.9-0~ubuntu24.04.1*%
%TF.CreationDate,2025-03-05T09:33:49+00:00*%
%TF.ProjectId,BMS-Mux-PCB,424d532d-4d75-4782-9d50-43422e6b6963,rev?*%
%TF.SameCoordinates,Original*%
%TF.FileFunction,Profile,NP*%
%FSLAX46Y46*%
G04 Gerber Fmt 4.6, Leading zero omitted, Abs format (unit mm)*
G04 Created by KiCad (PCBNEW 8.0.9-8.0.9-0~ubuntu24.04.1) date 2025-03-05 09:33:49*
%MOMM*%
%LPD*%
G01*
G04 APERTURE LIST*
%TA.AperFunction,Profile*%
%ADD10C,0.050000*%
%TD*%
G04 APERTURE END LIST*
D10*
X120000000Y-63800000D02*
G75*
G02*
X120000000Y-65000000I0J-600000D01*
G01*
X77500000Y-63500000D02*
G75*
G02*
X76500000Y-62500000I0J1000000D01*
G01*
X108000000Y-65000000D02*
X120000000Y-65000000D01*
X117500000Y-85500000D02*
X117500000Y-116500000D01*
X70500000Y-137500000D02*
G75*
G02*
X64500000Y-131500000I0J6000000D01*
G01*
X95500000Y-117500000D02*
G75*
G02*
X94500000Y-116500000I0J1000000D01*
G01*
X164000000Y-131500000D02*
G75*
G02*
X152000000Y-131500000I-6000000J0D01*
G01*
X122500000Y-131500000D02*
G75*
G02*
X116500000Y-137500000I-6000000J0D01*
G01*
X178000000Y-85000000D02*
G75*
G02*
X172000000Y-91000000I-6000000J0D01*
G01*
X122500000Y-118500000D02*
G75*
G02*
X123500000Y-117500000I1000000J0D01*
G01*
X64500000Y-55500000D02*
X64500000Y-131500000D01*
X172000000Y-49500000D02*
X158000000Y-49500000D01*
X70500000Y-49500000D02*
G75*
G02*
X76500000Y-55500000I0J-6000000D01*
G01*
X97500000Y-62500000D02*
G75*
G02*
X96500000Y-63500000I-1000000J0D01*
G01*
X152000000Y-68500000D02*
G75*
G02*
X151000000Y-69500000I-1000000J0D01*
G01*
X116500000Y-117500000D02*
X95500000Y-117500000D01*
X151000000Y-117500000D02*
X123500000Y-117500000D01*
X123500000Y-69500000D02*
G75*
G02*
X122500000Y-68500000I0J1000000D01*
G01*
X94500000Y-116500000D02*
X94500000Y-85500000D01*
X108000000Y-65000000D02*
G75*
G02*
X108000000Y-63800000I0J600000D01*
G01*
X172000000Y-49500000D02*
G75*
G02*
X178000000Y-55500000I0J-6000000D01*
G01*
X95500000Y-84500000D02*
X116500000Y-84500000D01*
X116500000Y-49500000D02*
X99500000Y-49500000D01*
X116500000Y-49500000D02*
G75*
G02*
X122500000Y-55500000I0J-6000000D01*
G01*
X70500000Y-137500000D02*
X116500000Y-137500000D01*
X64500000Y-55500000D02*
G75*
G02*
X70500000Y-49500000I6000000J0D01*
G01*
X77500000Y-63500000D02*
X96500000Y-63500000D01*
X117500000Y-116500000D02*
G75*
G02*
X116500000Y-117500000I-1000000J0D01*
G01*
X122500000Y-68500000D02*
X122500000Y-55500000D01*
X152000000Y-131500000D02*
X152000000Y-118500000D01*
X152000000Y-55500000D02*
G75*
G02*
X158000000Y-49500000I6000000J0D01*
G01*
X97500000Y-50500000D02*
G75*
G02*
X98500000Y-49500000I1000000J0D01*
G01*
X76500000Y-55500000D02*
X76500000Y-62500000D01*
X122500000Y-131500000D02*
X122500000Y-118500000D01*
X178000000Y-85000000D02*
X178000000Y-55500000D01*
X151000000Y-69500000D02*
X123500000Y-69500000D01*
X164000000Y-131500000D02*
X164000000Y-97000000D01*
X94500000Y-85500000D02*
G75*
G02*
X95500000Y-84500000I1000000J0D01*
G01*
X170000000Y-91000000D02*
X172000000Y-91000000D01*
X98500000Y-49500000D02*
X99500000Y-49500000D01*
X97500000Y-62500000D02*
X97500000Y-50500000D01*
X120000000Y-63800000D02*
X108000000Y-63800000D01*
X152000000Y-55500000D02*
X152000000Y-68500000D01*
X151000000Y-117500000D02*
G75*
G02*
X152000000Y-118500000I0J-1000000D01*
G01*
X164000000Y-97000000D02*
G75*
G02*
X170000000Y-91000000I6000000J0D01*
G01*
X116500000Y-84500000D02*
G75*
G02*
X117500000Y-85500000I0J-1000000D01*
G01*
M02*
