M48
; DRILL file {KiCad 8.0.9-8.0.9-0~ubuntu24.04.1} date 2025-03-05T09:36:47+0000
; FORMAT={-:-/ absolute / metric / decimal}
; #@! TF.CreationDate,2025-03-05T09:36:47+00:00
; #@! TF.GenerationSoftware,Kicad,Pcbnew,8.0.9-8.0.9-0~ubuntu24.04.1
; #@! TF.FileFunction,Plated,1,2,PTH
FMAT,2
METRIC
; #@! TA.AperFunction,Plated,PTH,ViaDrill
T1C0.400
; #@! TA.AperFunction,Plated,PTH,ComponentDrill
T2C1.000
; #@! TA.AperFunction,Plated,PTH,ComponentDrill
T3C1.100
; #@! TA.AperFunction,Plated,PTH,ComponentDrill
T4C1.600
; #@! TA.AperFunction,Plated,PTH,ComponentDrill
T5C4.800
%
G90
G05
T1
X97.7Y-75.7
X126.75Y-98.5
X129.75Y-98.5
X132.75Y-98.5
X135.75Y-98.5
X138.75Y-98.5
X138.8Y-88.7
X138.8Y-93.4
X141.75Y-88.65
X144.75Y-88.65
X147.75Y-88.65
X149.5Y-84.0
X150.4Y-75.0
X151.2Y-101.5
X151.3Y-103.0
X151.8Y-93.5
X152.4Y-72.3
X154.2Y-87.3
X155.7Y-66.2
X155.7Y-72.3
X156.3Y-61.6
X157.1Y-65.2
X157.1Y-71.1
X157.51Y-84.01
X157.7Y-105.0
X158.9Y-72.3
X159.623Y-92.823
X161.4Y-65.1
X161.6Y-74.7
X161.65Y-96.665
X161.7Y-106.6
X163.6Y-63.8
X163.6Y-68.9
T2
X169.5Y-55.0
X169.5Y-57.54
X169.5Y-60.08
X169.5Y-62.62
X169.5Y-65.16
X169.5Y-67.7
X169.5Y-70.24
X169.5Y-72.78
X169.5Y-75.32
X169.5Y-77.86
X172.04Y-55.0
X172.04Y-57.54
X172.04Y-60.08
X172.04Y-62.62
X172.04Y-65.16
X172.04Y-67.7
X172.04Y-70.24
X172.04Y-72.78
X172.04Y-75.32
X172.04Y-77.86
T3
X82.0Y-89.0
X82.0Y-92.0
X82.0Y-95.0
X82.0Y-98.0
X82.0Y-101.0
X82.0Y-104.0
X82.0Y-107.0
X82.0Y-110.0
X82.0Y-113.0
X85.0Y-72.0
X85.0Y-89.0
X85.0Y-92.0
X85.0Y-95.0
X85.0Y-98.0
X85.0Y-101.0
X85.0Y-104.0
X85.0Y-107.0
X85.0Y-110.0
X85.0Y-113.0
X87.54Y-72.0
X90.08Y-72.0
X95.16Y-72.0
X97.7Y-72.0
X100.24Y-72.0
X102.78Y-72.0
X107.32Y-55.5
X107.32Y-58.5
X114.0Y-54.3
X114.0Y-56.84
X114.0Y-59.38
X114.0Y-61.92
X114.0Y-67.0
X114.0Y-69.54
X114.0Y-72.08
X126.75Y-79.335
X126.75Y-82.335
X126.75Y-104.665
X126.75Y-107.665
X129.75Y-79.335
X129.75Y-82.335
X129.75Y-104.665
X129.75Y-107.665
X132.75Y-79.335
X132.75Y-82.335
X132.75Y-104.665
X132.75Y-107.665
X135.75Y-79.335
X135.75Y-82.335
X135.75Y-104.665
X135.75Y-107.665
X138.75Y-79.335
X138.75Y-82.335
X138.75Y-104.665
X138.75Y-107.665
X141.75Y-79.335
X141.75Y-82.335
X141.75Y-104.665
X141.75Y-107.665
X144.75Y-79.335
X144.75Y-82.335
X144.75Y-104.665
X144.75Y-107.665
X147.75Y-79.335
X147.75Y-82.335
X147.75Y-104.665
X147.75Y-107.665
T4
X74.0Y-65.5
X74.0Y-69.0
X74.0Y-72.5
X74.0Y-76.0
X74.0Y-79.5
X74.0Y-83.0
X74.0Y-86.5
X74.0Y-90.0
X74.0Y-93.5
X74.0Y-97.0
X74.0Y-100.5
X74.0Y-104.0
X74.0Y-107.5
X74.0Y-111.0
X74.0Y-114.5
X74.0Y-118.0
X74.0Y-121.5
X74.0Y-125.0
T5
X70.5Y-55.5
X70.5Y-131.5
X158.0Y-55.5
X158.0Y-131.5
M30
