%TF.GenerationSoftware,KiCad,Pcbnew,8.0.9-8.0.9-0~ubuntu24.04.1*%
%TF.CreationDate,2025-03-05T09:33:49+00:00*%
%TF.ProjectId,BMS-Mux-PCB,424d532d-4d75-4782-9d50-43422e6b6963,rev?*%
%TF.SameCoordinates,Original*%
%TF.FileFunction,Legend,Bot*%
%TF.FilePolarity,Positive*%
%FSLAX46Y46*%
G04 Gerber Fmt 4.6, Leading zero omitted, Abs format (unit mm)*
G04 Created by KiCad (PCBNEW 8.0.9-8.0.9-0~ubuntu24.04.1) date 2025-03-05 09:33:49*
%MOMM*%
%LPD*%
G01*
G04 APERTURE LIST*
%ADD10C,0.150000*%
%ADD11C,0.120000*%
G04 APERTURE END LIST*
D10*
X171103333Y-52124819D02*
X171103333Y-52839104D01*
X171103333Y-52839104D02*
X171150952Y-52981961D01*
X171150952Y-52981961D02*
X171246190Y-53077200D01*
X171246190Y-53077200D02*
X171389047Y-53124819D01*
X171389047Y-53124819D02*
X171484285Y-53124819D01*
X170198571Y-52124819D02*
X170389047Y-52124819D01*
X170389047Y-52124819D02*
X170484285Y-52172438D01*
X170484285Y-52172438D02*
X170531904Y-52220057D01*
X170531904Y-52220057D02*
X170627142Y-52362914D01*
X170627142Y-52362914D02*
X170674761Y-52553390D01*
X170674761Y-52553390D02*
X170674761Y-52934342D01*
X170674761Y-52934342D02*
X170627142Y-53029580D01*
X170627142Y-53029580D02*
X170579523Y-53077200D01*
X170579523Y-53077200D02*
X170484285Y-53124819D01*
X170484285Y-53124819D02*
X170293809Y-53124819D01*
X170293809Y-53124819D02*
X170198571Y-53077200D01*
X170198571Y-53077200D02*
X170150952Y-53029580D01*
X170150952Y-53029580D02*
X170103333Y-52934342D01*
X170103333Y-52934342D02*
X170103333Y-52696247D01*
X170103333Y-52696247D02*
X170150952Y-52601009D01*
X170150952Y-52601009D02*
X170198571Y-52553390D01*
X170198571Y-52553390D02*
X170293809Y-52505771D01*
X170293809Y-52505771D02*
X170484285Y-52505771D01*
X170484285Y-52505771D02*
X170579523Y-52553390D01*
X170579523Y-52553390D02*
X170627142Y-52601009D01*
X170627142Y-52601009D02*
X170674761Y-52696247D01*
D11*
%TO.C,J6*%
X168170000Y-53670000D02*
X170770000Y-53670000D01*
X168170000Y-79190000D02*
X168170000Y-53670000D01*
X168170000Y-79190000D02*
X173370000Y-79190000D01*
X170770000Y-53670000D02*
X170770000Y-56270000D01*
X170770000Y-56270000D02*
X173370000Y-56270000D01*
X172040000Y-53670000D02*
X173370000Y-53670000D01*
X173370000Y-53670000D02*
X173370000Y-55000000D01*
X173370000Y-79190000D02*
X173370000Y-56270000D01*
%TD*%
M02*
